SplineFontDB: 3.0
FontName: Coda-Black
FullName: Coda Black
FamilyName: Coda Black
Weight: Black
Copyright: Copyright (c) 2010 by Newtypography. All rights reserved.
Version: 1.00 2010
ItalicAngle: 0
UnderlinePosition: -103
UnderlineWidth: 102
Ascent: 1530
Descent: 518
LayerCount: 2
Layer: 0 1 "Back"  1
Layer: 1 1 "Fore"  0
XUID: [1021 823 301787212 1793890]
FSType: 4
OS2Version: 0
OS2_WeightWidthSlopeOnly: 0
OS2_UseTypoMetrics: 0
CreationTime: 1290988800
ModificationTime: 1295283652
PfmFamily: 81
TTFWeight: 900
TTFWidth: 5
LineGap: 410
VLineGap: 0
OS2TypoAscent: 0
OS2TypoAOffset: 1
OS2TypoDescent: 0
OS2TypoDOffset: 1
OS2TypoLinegap: 410
OS2WinAscent: -768
OS2WinAOffset: 1
OS2WinDescent: -449
OS2WinDOffset: 1
HheadAscent: -1125
HheadAOffset: 1
HheadDescent: 502
HheadDOffset: 1
OS2Vendor: 'NEW '
OS2CodePages: 20000193.4d000000
Lookup: 258 0 0 "'kern' Horizontal Kerning in Latin lookup 0"  {"'kern' Horizontal Kerning in Latin lookup 0 subtable"  } ['kern' ('DFLT' <'dflt' > 'latn' <'dflt' > ) ]
Lookup: 258 0 0 "'kern' Horizontal Kerning in Latin lookup 1"  {"'kern' Horizontal Kerning in Latin lookup 1 subtable"  } ['kern' ('DFLT' <'dflt' > 'latn' <'dflt' > ) ]
DEI: 91125
TtTable: prep
PUSHW_1
 511
SCANCTRL
PUSHB_1
 1
SCANTYPE
SVTCA[y-axis]
MPPEM
PUSHB_1
 8
LT
IF
PUSHB_2
 1
 1
INSTCTRL
EIF
PUSHB_2
 70
 6
CALL
IF
POP
PUSHB_1
 16
EIF
MPPEM
PUSHB_1
 20
GT
IF
POP
PUSHB_1
 128
EIF
SCVTCI
PUSHB_1
 6
CALL
NOT
IF
SVTCA[y-axis]
PUSHB_1
 5
DUP
RCVT
PUSHB_1
 3
CALL
WCVTP
PUSHB_1
 6
DUP
RCVT
PUSHB_3
 5
 18
 2
CALL
PUSHB_1
 3
CALL
WCVTP
PUSHB_1
 7
DUP
RCVT
PUSHB_3
 6
 15
 2
CALL
PUSHB_1
 3
CALL
WCVTP
SVTCA[x-axis]
PUSHB_1
 8
DUP
RCVT
PUSHB_1
 3
CALL
WCVTP
PUSHB_1
 10
DUP
RCVT
PUSHB_3
 8
 70
 2
CALL
PUSHB_2
 3
 70
SROUND
CALL
WCVTP
PUSHB_1
 9
DUP
RCVT
PUSHB_3
 10
 30
 2
CALL
PUSHB_2
 3
 70
SROUND
CALL
WCVTP
PUSHB_1
 11
DUP
RCVT
PUSHW_3
 8
 32767
 2
CALL
PUSHB_2
 3
 70
SROUND
CALL
WCVTP
EIF
PUSHB_1
 20
CALL
EndTTInstrs
TtTable: fpgm
PUSHB_1
 0
FDEF
PUSHB_1
 0
SZP0
MPPEM
PUSHB_1
 42

StartChar: exclam
Encoding: 33 33 4
Width: 780
Flags: W
HStem: 0 397<86 601> 1584 20G<89 604>
VStem: 86 515<0 397> 151 395<492 749.123>
LayerCount: 2
Fore
SplineSet
546 492 m 1,0,-1
 151 492 l 1,1,-1
 89 1604 l 1,2,-1
 604 1604 l 1,3,-1
 546 492 l 1,0,-1
86 0 m 1,4,-1
 86 397 l 1,5,-1
 601 397 l 1,6,-1
 601 0 l 1,7,-1
 86 0 l 1,4,-1
EndSplineSet
Validated: 1
EndChar

StartChar: quotedbl
Encoding: 34 34 5
Width: 1229
Flags: W
HStem: 798 806<120 408 648 936>
VStem: 120 288<798 933.939> 648 288<798 933.939>
LayerCount: 2
Fore
SplineSet
408 798 m 1,0,-1
 120 798 l 1,1,-1
 35 1604 l 1,2,-1
 493 1604 l 1,3,-1
 408 798 l 1,0,-1
936 798 m 1,4,-1
 648 798 l 1,5,-1
 563 1604 l 1,6,-1
 1021 1604 l 1,7,-1
 936 798 l 1,4,-1
EndSplineSet
Validated: 1
EndChar

StartChar: numbersign
Encoding: 35 35 6
Width: 1804
Flags: W
HStem: 0 21G<174 436.513 637 899.5> 199 288<74 200 496 663 959 1102> 880 287<154 288 585 751 1048 1182>
LayerCount: 2
Fore
SplineSet
1102 200 m 1,0,-1
 922 200 l 1,1,-1
 897 0 l 1,2,-1
 637 0 l 1,3,-1
 663 199 l 1,4,-1
 459 199 l 1,5,-1
 434 0 l 1,6,-1
 174 0 l 1,7,-1
 200 199 l 1,8,-1
 39 199 l 1,9,-1
 74 487 l 1,10,-1
 237 487 l 1,11,-1
 288 880 l 1,12,-1
 119 880 l 1,13,-1
 154 1167 l 1,14,-1
 326 1167 l 1,15,-1
 351 1358 l 1,16,-1
 610 1358 l 1,17,-1
 585 1167 l 1,18,-1
 789 1167 l 1,19,-1
 814 1358 l 1,20,-1
 1073 1358 l 1,21,-1
 1048 1167 l 1,22,-1
 1217 1167 l 1,23,-1
 1182 880 l 1,24,-1
 1011 880 l 1,25,-1
 959 487 l 1,26,-1
 1137 487 l 1,27,-1
 1102 200 l 1,0,-1
496 487 m 1,28,-1
 699 487 l 1,29,-1
 751 880 l 1,30,-1
 548 880 l 1,31,-1
 496 487 l 1,28,-1
EndSplineSet
Validated: 1
EndChar

StartChar: dollar
Encoding: 36 36 7
Width: 1573
Flags: W
HStem: 1358 257<618 731>
VStem: 49 477<237.219 533 1085.18 1356.3> 441 177<-248 -36 1615 1843> 731 187<-248 -36 1615 1843> 802 477<237.679 537.844>
LayerCount: 2
Fore
SplineSet
526 1136 m 2,0,1
 526 1110 526 1110 558.5 1091.5 c 128,-1,2
 591 1073 591 1073 644 1056 c 128,-1,3
 697 1039 697 1039 764.5 1021 c 128,-1,4
 832 1003 832 1003 902.5 978 c 128,-1,5
 973 953 973 953 1040.5 918 c 128,-1,6
 1108 883 1108 883 1161 832 c 128,-1,7
 1214 781 1214 781 1246.5 711 c 128,-1,8
 1279 641 1279 641 1279 547 c 0,9,10
 1279 481 1279 481 1276.5 419 c 128,-1,11
 1274 357 1274 357 1262.5 300.5 c 128,-1,12
 1251 244 1251 244 1228.5 195 c 128,-1,13
 1206 146 1206 146 1166 105.5 c 128,-1,14
 1126 65 1126 65 1065.5 34 c 128,-1,15
 1005 3 1005 3 918 -16 c 1,16,-1
 918 -248 l 1,17,-1
 731 -248 l 1,18,-1
 731 -36 l 1,19,-1
 618 -36 l 1,20,-1
 618 -248 l 1,21,-1
 441 -248 l 1,22,-1
 441 -17 l 1,23,24
 353 -1 353 -1 289.5 24.5 c 128,-1,25
 226 50 226 50 182 82.5 c 128,-1,26
 138 115 138 115 112 151.5 c 128,-1,27
 86 188 86 188 72 225.5 c 128,-1,28
 58 263 58 263 53.5 300.5 c 128,-1,29
 49 338 49 338 49 371 c 2,30,-1
 49 533 l 1,31,-1
 526 533 l 1,32,-1
 526 237 l 1,33,-1
 802 237 l 1,34,-1
 802 493 l 2,35,36
 802 515 802 515 769.5 532 c 128,-1,37
 737 549 737 549 684 566 c 128,-1,38
 631 583 631 583 563.5 602.5 c 128,-1,39
 496 622 496 622 425.5 649.5 c 128,-1,40
 355 677 355 677 287.5 715 c 128,-1,41
 220 753 220 753 167 806.5 c 128,-1,42
 114 860 114 860 81.5 932 c 128,-1,43
 49 1004 49 1004 49 1100 c 0,44,45
 49 1231 49 1231 66 1321 c 128,-1,46
 83 1411 83 1411 127 1470.5 c 128,-1,47
 171 1530 171 1530 247 1563.5 c 128,-1,48
 323 1597 323 1597 441 1615 c 1,49,-1
 441 1843 l 1,50,-1
 618 1843 l 1,51,-1
 618 1615 l 1,52,-1
 731 1615 l 1,53,-1
 731 1843 l 1,54,-1
 918 1843 l 1,55,-1
 918 1612 l 1,56,57
 995 1597 995 1597 1048.5 1573.5 c 128,-1,58
 1102 1550 1102 1550 1137 1520 c 128,-1,59
 1172 1490 1172 1490 1192 1456.5 c 128,-1,60
 1212 1423 1212 1423 1222 1387 c 128,-1,61
 1232 1351 1232 1351 1234 1315.5 c 128,-1,62
 1236 1280 1236 1280 1236 1247 c 2,63,-1
 1236 1128 l 1,64,-1
 802 1128 l 1,65,-1
 802 1358 l 1,66,-1
 526 1358 l 1,67,-1
 526 1136 l 2,0,1
EndSplineSet
Validated: 1
EndChar

StartChar: percent
Encoding: 37 37 8
Width: 2902
Flags: W
HStem: 75 215<1903.27 2140.67> 454 215<378.209 618.672> 955 219<1903.27 2140.67> 1334 219<378.209 618.672>
VStem: 45 333<669.918 1333.91> 620 329<669.918 1333.91> 1569 333<290.842 954.788> 2143 329<290.842 954.788>
LayerCount: 2
Fore
SplineSet
620 1334 m 1,0,-1
 378 1334 l 1,1,-1
 378 669 l 1,2,-1
 620 669 l 1,3,-1
 620 1334 l 1,0,-1
497 454 m 256,4,5
 384 454 384 454 306.5 468 c 128,-1,6
 229 482 229 482 179 506 c 128,-1,7
 129 530 129 530 101.5 561.5 c 128,-1,8
 74 593 74 593 61.5 627.5 c 128,-1,9
 49 662 49 662 47 697.5 c 128,-1,10
 45 733 45 733 45 765 c 2,11,-1
 45 1244 l 2,12,13
 45 1276 45 1276 47 1311 c 128,-1,14
 49 1346 49 1346 61.5 1380.5 c 128,-1,15
 74 1415 74 1415 101.5 1446 c 128,-1,16
 129 1477 129 1477 179 1501 c 128,-1,17
 229 1525 229 1525 306.5 1539 c 128,-1,18
 384 1553 384 1553 497 1553 c 256,19,20
 610 1553 610 1553 687.5 1539 c 128,-1,21
 765 1525 765 1525 815 1501 c 128,-1,22
 865 1477 865 1477 892.5 1446 c 128,-1,23
 920 1415 920 1415 932.5 1380.5 c 128,-1,24
 945 1346 945 1346 947 1311 c 128,-1,25
 949 1276 949 1276 949 1244 c 2,26,-1
 949 765 l 2,27,28
 949 733 949 733 947 697.5 c 128,-1,29
 945 662 945 662 932.5 627.5 c 128,-1,30
 920 593 920 593 892.5 561.5 c 128,-1,31
 865 530 865 530 815 506 c 128,-1,32
 765 482 765 482 687.5 468 c 128,-1,33
 610 454 610 454 497 454 c 256,4,5
2143 955 m 1,34,-1
 1902 955 l 1,35,-1
 1902 290 l 1,36,-1
 2143 290 l 1,37,-1
 2143 955 l 1,34,-1
2019 75 m 256,38,39
 1906 75 1906 75 1829 89 c 128,-1,40
 1752 103 1752 103 1702 127 c 128,-1,41
 1652 151 1652 151 1625 182 c 128,-1,42
 1598 213 1598 213 1585.5 248 c 128,-1,43
 1573 283 1573 283 1571 318.5 c 128,-1,44
 1569 354 1569 354 1569 386 c 2,45,-1
 1569 863 l 2,46,47
 1569 895 1569 895 1571 930.5 c 128,-1,48
 1573 966 1573 966 1585.5 1000.5 c 128,-1,49
 1598 1035 1598 1035 1625 1066.5 c 128,-1,50
 1652 1098 1652 1098 1702 1122 c 128,-1,51
 1752 1146 1752 1146 1829 1160 c 128,-1,52
 1906 1174 1906 1174 2019 1174 c 256,53,54
 2132 1174 2132 1174 2209.5 1160 c 128,-1,55
 2287 1146 2287 1146 2337.5 1122 c 128,-1,56
 2388 1098 2388 1098 2415.5 1066.5 c 128,-1,57
 2443 1035 2443 1035 2455.5 1000.5 c 128,-1,58
 2468 966 2468 966 2470 930.5 c 128,-1,59
 2472 895 2472 895 2472 863 c 2,60,-1
 2472 386 l 2,61,62
 2472 354 2472 354 2470 318.5 c 128,-1,63
 2468 283 2468 283 2455.5 248 c 128,-1,64
 2443 213 2443 213 2415.5 182 c 128,-1,65
 2388 151 2388 151 2337.5 127 c 128,-1,66
 2287 103 2287 103 2209.5 89 c 128,-1,67
 2132 75 2132 75 2019 75 c 256,38,39
1639 1670 m 1,68,-1
 1300 -40 l 1,69,-1
 880 -40 l 1,70,-1
 1224 1670 l 1,71,-1
 1639 1670 l 1,68,-1
EndSplineSet
Validated: 1
EndChar

StartChar: ampersand
Encoding: 38 38 9
Width: 1688
Flags: W
HStem: -38 275<545.955 820.227> 728 224<545 821 1298 1425> 1154 444.5<820.068 1178.87> 1358 277<548.82 816.423>
VStem: 68 477<237.145 726.664 952.793 1355.32> 821 477<238.302 728 952 1080 1154 1356.22>
LayerCount: 2
Fore
SplineSet
818 1154 m 1,0,-1
 818 1358 l 1,1,-1
 545 1358 l 1,2,-1
 545 952 l 1,3,-1
 821 952 l 1,4,-1
 821 1080 l 1,5,-1
 1298 1080 l 1,6,-1
 1298 952 l 1,7,-1
 1425 952 l 1,8,-1
 1425 728 l 1,9,-1
 1298 728 l 1,10,-1
 1298 635 l 2,11,12
 1298 503 1298 503 1290.5 402 c 128,-1,13
 1283 301 1283 301 1260 226.5 c 128,-1,14
 1237 152 1237 152 1195 101 c 128,-1,15
 1153 50 1153 50 1084 19.5 c 128,-1,16
 1015 -11 1015 -11 915 -24.5 c 128,-1,17
 815 -38 815 -38 677 -38 c 0,18,19
 540 -38 540 -38 441.5 -25 c 128,-1,20
 343 -12 343 -12 275.5 16 c 128,-1,21
 208 44 208 44 167 89 c 128,-1,22
 126 134 126 134 104 199 c 128,-1,23
 82 264 82 264 75 349 c 128,-1,24
 68 434 68 434 68 543 c 0,25,26
 68 631 68 631 86 688.5 c 128,-1,27
 104 746 104 746 126.5 779 c 128,-1,28
 149 812 149 812 168 825.5 c 128,-1,29
 187 839 187 839 189 840 c 1,30,31
 187 841 187 841 168 855 c 128,-1,32
 149 869 149 869 126.5 903 c 128,-1,33
 104 937 104 937 86 993.5 c 128,-1,34
 68 1050 68 1050 68 1137 c 0,35,36
 68 1290 68 1290 94.5 1387 c 128,-1,37
 121 1484 121 1484 189 1539 c 128,-1,38
 257 1594 257 1594 375.5 1614.5 c 128,-1,39
 494 1635 494 1635 677 1635 c 0,40,41
 815 1635 815 1635 914.5 1627 c 128,-1,42
 1014 1619 1014 1619 1082.5 1598.5 c 128,-1,43
 1151 1578 1151 1578 1192.5 1543 c 128,-1,44
 1234 1508 1234 1508 1256.5 1454.5 c 128,-1,45
 1279 1401 1279 1401 1286.5 1327 c 128,-1,46
 1294 1253 1294 1253 1294 1154 c 1,47,-1
 818 1154 l 1,0,-1
821 237 m 1,48,-1
 821 728 l 1,49,-1
 545 728 l 1,50,-1
 545 237 l 1,51,-1
 821 237 l 1,48,-1
EndSplineSet
Validated: 1
EndChar

StartChar: quotesingle
Encoding: 39 39 10
Width: 606
Flags: W
HStem: 1584 20G<35 493>
VStem: 120 288<798 933.939>
LayerCount: 2
Fore
SplineSet
408 798 m 1,0,-1
 120 798 l 1,1,-1
 35 1604 l 1,2,-1
 493 1604 l 1,3,-1
 408 798 l 1,0,-1
EndSplineSet
Validated: 1
EndChar

StartChar: parenleft
Encoding: 40 40 11
Width: 934
Flags: W
HStem: -330 279<674.149 854> 1657 278<674.149 854>
VStem: 57 512<226.385 1379.61>
LayerCount: 2
Fore
SplineSet
57 803 m 256,0,1
 57 1068 57 1068 81.5 1254.5 c 128,-1,2
 106 1441 106 1441 153 1567 c 128,-1,3
 200 1693 200 1693 269 1766 c 128,-1,4
 338 1839 338 1839 426.5 1876.5 c 128,-1,5
 515 1914 515 1914 622.5 1924.5 c 128,-1,6
 730 1935 730 1935 854 1935 c 1,7,-1
 854 1657 l 1,8,9
 802 1657 802 1657 760.5 1652.5 c 128,-1,10
 719 1648 719 1648 687.5 1624 c 128,-1,11
 656 1600 656 1600 633.5 1548 c 128,-1,12
 611 1496 611 1496 596.5 1401 c 128,-1,13
 582 1306 582 1306 575.5 1160.5 c 128,-1,14
 569 1015 569 1015 569 803 c 256,15,16
 569 591 569 591 575.5 445.5 c 128,-1,17
 582 300 582 300 596.5 205 c 128,-1,18
 611 110 611 110 633.5 58 c 128,-1,19
 656 6 656 6 687.5 -18 c 128,-1,20
 719 -42 719 -42 760.5 -46.5 c 128,-1,21
 802 -51 802 -51 854 -51 c 1,22,-1
 854 -330 l 1,23,24
 730 -330 730 -330 622.5 -319.5 c 128,-1,25
 515 -309 515 -309 426.5 -271.5 c 128,-1,26
 338 -234 338 -234 269 -160.5 c 128,-1,27
 200 -87 200 -87 153 38.5 c 128,-1,28
 106 164 106 164 81.5 351 c 128,-1,29
 57 538 57 538 57 803 c 256,0,1
EndSplineSet
Validated: 1
EndChar

StartChar: parenright
Encoding: 41 41 12
Width: 934
Flags: W
HStem: -330 279<-61 118.851> 1657 278<-61 118.851>
VStem: 224 512<226.385 1379.61>
LayerCount: 2
Fore
SplineSet
736 803 m 256,0,1
 736 538 736 538 711.5 351 c 128,-1,2
 687 164 687 164 640 38.5 c 128,-1,3
 593 -87 593 -87 524 -160.5 c 128,-1,4
 455 -234 455 -234 366.5 -271.5 c 128,-1,5
 278 -309 278 -309 170.5 -319.5 c 128,-1,6
 63 -330 63 -330 -61 -330 c 1,7,-1
 -61 -51 l 1,8,9
 -9 -51 -9 -51 32.5 -46.5 c 128,-1,10
 74 -42 74 -42 105.5 -18 c 128,-1,11
 137 6 137 6 159.5 58 c 128,-1,12
 182 110 182 110 196.5 205 c 128,-1,13
 211 300 211 300 217.5 445.5 c 128,-1,14
 224 591 224 591 224 803 c 256,15,16
 224 1015 224 1015 217.5 1160.5 c 128,-1,17
 211 1306 211 1306 196.5 1401 c 128,-1,18
 182 1496 182 1496 159.5 1548 c 128,-1,19
 137 1600 137 1600 105.5 1624 c 128,-1,20
 74 1648 74 1648 32.5 1652.5 c 128,-1,21
 -9 1657 -9 1657 -61 1657 c 1,22,-1
 -61 1935 l 1,23,24
 63 1935 63 1935 170.5 1924.5 c 128,-1,25
 278 1914 278 1914 366.5 1876.5 c 128,-1,26
 455 1839 455 1839 524 1766 c 128,-1,27
 593 1693 593 1693 640 1567 c 128,-1,28
 687 1441 687 1441 711.5 1254.5 c 128,-1,29
 736 1068 736 1068 736 803 c 256,0,1
EndSplineSet
Validated: 1
EndChar

StartChar: asterisk
Encoding: 42 42 13
Width: 1343
Flags: W
HStem: 1581 20G<437.071 471.134 682.739 716.929>
LayerCount: 2
Fore
SplineSet
494 346 m 1,0,-1
 142 478 l 1,1,-1
 320 791 l 1,2,-1
 43 733 l 1,3,-1
 43 1164 l 1,4,-1
 320 1097 l 1,5,-1
 122 1347 l 1,6,-1
 464 1601 l 1,7,-1
 576 1287 l 1,8,-1
 690 1601 l 1,9,-1
 1032 1347 l 1,10,-1
 832 1097 l 1,11,-1
 1110 1164 l 1,12,-1
 1110 733 l 1,13,-1
 832 791 l 1,14,-1
 1011 478 l 1,15,-1
 660 346 l 1,16,-1
 576 647 l 1,17,-1
 494 346 l 1,0,-1
EndSplineSet
Validated: 1
EndChar

StartChar: plus
Encoding: 43 43 14
Width: 1343
Flags: W
HStem: 0 21G<354 800> 408 483<43 354 800 1111>
VStem: 354 446<0 408 891 1298>
LayerCount: 2
Fore
SplineSet
354 891 m 1,0,-1
 354 1298 l 1,1,-1
 800 1298 l 1,2,-1
 800 891 l 1,3,-1
 1111 891 l 1,4,-1
 1111 408 l 1,5,-1
 800 408 l 1,6,-1
 800 0 l 1,7,-1
 354 0 l 1,8,-1
 354 408 l 1,9,-1
 43 408 l 1,10,-1
 43 891 l 1,11,-1
 354 891 l 1,0,-1
EndSplineSet
Validated: 1
EndChar

StartChar: comma
Encoding: 44 44 15
Width: 727
Flags: W
HStem: -367 199<98 205.323>
VStem: 74 492<3.31689 487>
LayerCount: 2
Fore
SplineSet
98 -168 m 1,0,1
 149 -156 149 -156 191 -133 c 0,2,3
 209 -123 209 -123 225.5 -110.5 c 128,-1,4
 242 -98 242 -98 255.5 -81.5 c 128,-1,5
 269 -65 269 -65 277 -44.5 c 128,-1,6
 285 -24 285 -24 285 0 c 1,7,-1
 74 0 l 1,8,-1
 74 487 l 1,9,-1
 566 487 l 1,10,-1
 566 150 l 2,11,12
 566 -2 566 -2 534 -101.5 c 128,-1,13
 502 -201 502 -201 442 -260 c 128,-1,14
 382 -319 382 -319 295 -343 c 128,-1,15
 208 -367 208 -367 98 -367 c 1,16,-1
 98 -168 l 1,0,1
EndSplineSet
Validated: 1
EndChar

StartChar: hyphen
Encoding: 45 45 16
Width: 1006
Flags: W
HStem: 461 436<59 812>
LayerCount: 2
Fore
SplineSet
812 897 m 1,0,-1
 812 461 l 1,1,-1
 59 461 l 1,2,-1
 59 897 l 1,3,-1
 812 897 l 1,0,-1
EndSplineSet
Validated: 1
EndChar

StartChar: period
Encoding: 46 46 17
Width: 686
Flags: W
HStem: 0 467<74 532>
VStem: 74 458<0 467>
LayerCount: 2
Fore
SplineSet
532 0 m 1,0,-1
 74 0 l 1,1,-1
 74 467 l 1,2,-1
 532 467 l 1,3,-1
 532 0 l 1,0,-1
EndSplineSet
Validated: 1
EndChar

StartChar: zero
Encoding: 48 48 19
Width: 1495
Flags: W
HStem: -39 276<576.797 809.093> 1358 275<576.797 809.093>
VStem: 78 497<237.083 1356.98> 811 497<237.083 1356.98>
LayerCount: 2
Fore
SplineSet
575 237 m 1,0,-1
 811 237 l 1,1,-1
 811 1358 l 1,2,-1
 575 1358 l 1,3,-1
 575 237 l 1,0,-1
697 -39 m 256,4,5
 550 -39 550 -39 447 -21 c 128,-1,6
 344 -3 344 -3 275 27 c 128,-1,7
 206 57 206 57 166.5 97 c 128,-1,8
 127 137 127 137 107.5 180 c 128,-1,9
 88 223 88 223 83 267.5 c 128,-1,10
 78 312 78 312 78 352 c 2,11,-1
 78 1242 l 2,12,13
 78 1282 78 1282 83 1326.5 c 128,-1,14
 88 1371 88 1371 107.5 1414.5 c 128,-1,15
 127 1458 127 1458 166.5 1497.5 c 128,-1,16
 206 1537 206 1537 275 1567 c 128,-1,17
 344 1597 344 1597 447 1615 c 128,-1,18
 550 1633 550 1633 697 1633 c 256,19,20
 844 1633 844 1633 946.5 1615 c 128,-1,21
 1049 1597 1049 1597 1117 1567 c 128,-1,22
 1185 1537 1185 1537 1223 1497.5 c 128,-1,23
 1261 1458 1261 1458 1280 1414.5 c 128,-1,24
 1299 1371 1299 1371 1303.5 1326.5 c 128,-1,25
 1308 1282 1308 1282 1308 1242 c 2,26,-1
 1308 352 l 2,27,28
 1308 312 1308 312 1303.5 267.5 c 128,-1,29
 1299 223 1299 223 1280 180 c 128,-1,30
 1261 137 1261 137 1223 97 c 128,-1,31
 1185 57 1185 57 1117 27 c 128,-1,32
 1049 -3 1049 -3 946.5 -21 c 128,-1,33
 844 -39 844 -39 697 -39 c 256,4,5
EndSplineSet
Validated: 1
EndChar

StartChar: one
Encoding: 49 49 20
Width: 989
Flags: W
HStem: 0 21G<265 762> 1200 184<16 196.195> 1575 20G<346.5 762>
VStem: 265 497<0 1200>
LayerCount: 2
Fore
SplineSet
762 1595 m 1,0,-1
 762 0 l 1,1,-1
 265 0 l 1,2,-1
 265 1200 l 1,3,-1
 16 1200 l 1,4,-1
 16 1384 l 1,5,6
 60 1384 60 1384 110.5 1396.5 c 128,-1,7
 161 1409 161 1409 208 1435 c 128,-1,8
 255 1461 255 1461 295 1501 c 128,-1,9
 335 1541 335 1541 358 1595 c 1,10,-1
 762 1595 l 1,0,-1
EndSplineSet
Validated: 1
EndChar

StartChar: two
Encoding: 50 50 21
Width: 1430
Flags: W
HStem: 0 351<559 1193> 1358 274<561.367 754.531>
VStem: 63 497<994 1329.7> 756 497<986.649 1356.69>
LayerCount: 2
Fore
SplineSet
63 994 m 1,0,1
 63 1162 63 1162 93 1282.5 c 128,-1,2
 123 1403 123 1403 195 1481 c 128,-1,3
 267 1559 267 1559 387.5 1595.5 c 128,-1,4
 508 1632 508 1632 688 1632 c 0,5,6
 825 1632 825 1632 930.5 1603.5 c 128,-1,7
 1036 1575 1036 1575 1107.5 1515 c 128,-1,8
 1179 1455 1179 1455 1216 1362.5 c 128,-1,9
 1253 1270 1253 1270 1253 1143 c 0,10,11
 1253 1042 1253 1042 1223 958.5 c 128,-1,12
 1193 875 1193 875 1144.5 807.5 c 128,-1,13
 1096 740 1096 740 1033.5 686 c 128,-1,14
 971 632 971 632 906 588.5 c 128,-1,15
 841 545 841 545 778.5 511 c 128,-1,16
 716 477 716 477 667.5 449 c 128,-1,17
 619 421 619 421 589 397 c 128,-1,18
 559 373 559 373 559 351 c 1,19,-1
 1193 351 l 1,20,-1
 1193 0 l 1,21,-1
 63 0 l 1,22,-1
 63 237 l 2,23,24
 63 335 63 335 93 410 c 128,-1,25
 123 485 123 485 171.5 544 c 128,-1,26
 220 603 220 603 282.5 650 c 128,-1,27
 345 697 345 697 409.5 739 c 128,-1,28
 474 781 474 781 536.5 821.5 c 128,-1,29
 599 862 599 862 647.5 908.5 c 128,-1,30
 696 955 696 955 726 1010.5 c 128,-1,31
 756 1066 756 1066 756 1138 c 2,32,-1
 756 1358 l 1,33,-1
 560 1358 l 1,34,-1
 560 994 l 1,35,-1
 63 994 l 1,0,1
EndSplineSet
Validated: 1
EndChar

StartChar: three
Encoding: 51 51 22
Width: 1458
Flags: W
HStem: -38 275<552.674 764.06> 708 224<472 765> 1358 277<552.674 764.06>
VStem: 53 497<248.789 614 1025 1355.14> 765 497<239.727 698.296 944.284 1357.48>
LayerCount: 2
Fore
SplineSet
53 1025 m 1,0,1
 53 1176 53 1176 75 1290.5 c 128,-1,2
 97 1405 97 1405 161 1481.5 c 128,-1,3
 225 1558 225 1558 342 1596.5 c 128,-1,4
 459 1635 459 1635 648 1635 c 0,5,6
 780 1635 780 1635 877 1616.5 c 128,-1,7
 974 1598 974 1598 1042.5 1564 c 128,-1,8
 1111 1530 1111 1530 1153.5 1482.5 c 128,-1,9
 1196 1435 1196 1435 1220.5 1377.5 c 128,-1,10
 1245 1320 1245 1320 1253.5 1254 c 128,-1,11
 1262 1188 1262 1188 1262 1117 c 0,12,13
 1262 1059 1262 1059 1248 1015 c 128,-1,14
 1234 971 1234 971 1213.5 938 c 128,-1,15
 1193 905 1193 905 1168.5 883 c 128,-1,16
 1144 861 1144 861 1123 847.5 c 128,-1,17
 1102 834 1102 834 1087 827.5 c 128,-1,18
 1072 821 1072 821 1071 820 c 1,19,20
 1072 819 1072 819 1087 813 c 128,-1,21
 1102 807 1102 807 1123 793.5 c 128,-1,22
 1144 780 1144 780 1168.5 758.5 c 128,-1,23
 1193 737 1193 737 1213.5 704.5 c 128,-1,24
 1234 672 1234 672 1248 627 c 128,-1,25
 1262 582 1262 582 1262 523 c 0,26,27
 1262 450 1262 450 1253.5 380 c 128,-1,28
 1245 310 1245 310 1220.5 247.5 c 128,-1,29
 1196 185 1196 185 1153.5 132.5 c 128,-1,30
 1111 80 1111 80 1042.5 42 c 128,-1,31
 974 4 974 4 877 -17 c 128,-1,32
 780 -38 780 -38 648 -38 c 0,33,34
 459 -38 459 -38 342 4.5 c 128,-1,35
 225 47 225 47 161 130 c 128,-1,36
 97 213 97 213 75 334.5 c 128,-1,37
 53 456 53 456 53 615 c 1,38,-1
 550 614 l 1,39,-1
 550 237 l 1,40,-1
 765 237 l 1,41,-1
 765 708 l 1,42,-1
 472 708 l 1,43,-1
 472 932 l 1,44,-1
 765 932 l 1,45,-1
 765 1358 l 1,46,-1
 550 1358 l 1,47,-1
 550 1025 l 1,48,-1
 53 1025 l 1,0,1
EndSplineSet
Validated: 1
EndChar

StartChar: four
Encoding: 52 52 23
Width: 1479
Flags: W
HStem: 0 21G<734 1104> 237 366<479 734 1104 1272> 1575 20G<360.507 1104>
VStem: 734 370<0 237 604 1496>
LayerCount: 2
Fore
SplineSet
1104 604 m 1,0,-1
 1272 604 l 1,1,-1
 1272 237 l 1,2,-1
 1104 237 l 1,3,-1
 1104 0 l 1,4,-1
 734 0 l 1,5,-1
 734 237 l 1,6,-1
 43 237 l 1,7,-1
 43 597 l 1,8,-1
 367 1595 l 1,9,-1
 1104 1595 l 1,10,-1
 1104 604 l 1,0,-1
734 603 m 1,11,-1
 734 1496 l 1,12,-1
 479 603 l 1,13,-1
 734 603 l 1,11,-1
EndSplineSet
Validated: 1
EndChar

StartChar: five
Encoding: 53 53 24
Width: 1438
Flags: W
HStem: -38 275<548.352 779.06> -0.5 474.5<239.625 542.999> 838 270<639.438 780> 1300 295<543 1158>
VStem: 87 456<655 777.024 998 1300> 780 497<238.031 836.178>
LayerCount: 2
Fore
SplineSet
544 474 m 1,0,-1
 544 237 l 1,1,-1
 780 237 l 1,2,-1
 780 838 l 1,3,-1
 563 838 l 1,4,-1
 543 655 l 1,5,-1
 87 655 l 1,6,-1
 87 1595 l 1,7,-1
 1158 1595 l 1,8,-1
 1158 1300 l 1,9,-1
 543 1300 l 1,10,-1
 542 998 l 1,11,12
 571 1029 571 1029 618 1053 c 0,13,14
 658 1074 658 1074 721 1091 c 128,-1,15
 784 1108 784 1108 877 1108 c 0,16,17
 981 1108 981 1108 1056.5 1072 c 128,-1,18
 1132 1036 1132 1036 1181 966 c 128,-1,19
 1230 896 1230 896 1253.5 792.5 c 128,-1,20
 1277 689 1277 689 1277 553 c 0,21,22
 1277 454 1277 454 1268.5 371.5 c 128,-1,23
 1260 289 1260 289 1235.5 223.5 c 128,-1,24
 1211 158 1211 158 1168.5 109 c 128,-1,25
 1126 60 1126 60 1057.5 27.5 c 128,-1,26
 989 -5 989 -5 892 -21.5 c 128,-1,27
 795 -38 795 -38 663 -38 c 0,28,29
 468 -38 468 -38 347 -0.5 c 128,-1,30
 226 37 226 37 159.5 104.5 c 128,-1,31
 93 172 93 172 70 266 c 128,-1,32
 47 360 47 360 47 474 c 1,33,-1
 544 474 l 1,0,-1
EndSplineSet
Validated: 1
EndChar

StartChar: six
Encoding: 54 54 25
Width: 1462
Flags: W
HStem: -38 275<570.768 802.23> 801 259<569 800.389> 1358 274<571.253 801.541>
VStem: 72 497<238.022 801 1060 1338.88> 805 497<238.008 798.662>
LayerCount: 2
Fore
SplineSet
569 237 m 1,0,-1
 805 237 l 1,1,-1
 805 801 l 1,2,-1
 569 801 l 1,3,-1
 569 237 l 1,0,-1
686 -38 m 0,4,5
 555 -38 555 -38 458.5 -21 c 128,-1,6
 362 -4 362 -4 293.5 27.5 c 128,-1,7
 225 59 225 59 182 104.5 c 128,-1,8
 139 150 139 150 114.5 207 c 128,-1,9
 90 264 90 264 81 331.5 c 128,-1,10
 72 399 72 399 72 475 c 2,11,-1
 72 1055 l 2,12,13
 72 1122 72 1122 80 1190.5 c 128,-1,14
 88 1259 88 1259 111 1323 c 128,-1,15
 134 1387 134 1387 176 1443.5 c 128,-1,16
 218 1500 218 1500 286.5 1542 c 128,-1,17
 355 1584 355 1584 453 1608 c 128,-1,18
 551 1632 551 1632 686 1632 c 0,19,20
 828 1632 828 1632 924.5 1609 c 128,-1,21
 1021 1586 1021 1586 1083 1548 c 128,-1,22
 1145 1510 1145 1510 1177.5 1460.5 c 128,-1,23
 1210 1411 1210 1411 1224.5 1358.5 c 128,-1,24
 1239 1306 1239 1306 1240.5 1254 c 128,-1,25
 1242 1202 1242 1202 1242 1158 c 1,26,-1
 804 1158 l 1,27,-1
 804 1358 l 1,28,-1
 569 1358 l 1,29,-1
 569 1060 l 1,30,-1
 697 1060 l 2,31,32
 881 1060 881 1060 998.5 1028 c 128,-1,33
 1116 996 1116 996 1183.5 929.5 c 128,-1,34
 1251 863 1251 863 1276.5 762 c 128,-1,35
 1302 661 1302 661 1302 523 c 0,36,37
 1302 389 1302 389 1280 285 c 128,-1,38
 1258 181 1258 181 1192 109 c 128,-1,39
 1126 37 1126 37 1005 -0.5 c 128,-1,40
 884 -38 884 -38 686 -38 c 0,4,5
EndSplineSet
Validated: 1
EndChar

StartChar: seven
Encoding: 55 55 26
Width: 1096
Flags: W
HStem: 0 21G<119 620.367> 1358 237<16 408>
LayerCount: 2
Fore
SplineSet
911 1595 m 1,0,-1
 911 1351 l 1,1,-1
 616 0 l 1,2,-1
 119 0 l 1,3,-1
 408 1358 l 1,4,-1
 16 1358 l 1,5,-1
 16 1595 l 1,6,-1
 911 1595 l 1,0,-1
EndSplineSet
Validated: 1
EndChar

StartChar: eight
Encoding: 56 56 27
Width: 1432
Flags: W
HStem: -41 277<539.94 772.06> 721 240<538 774> 1358 272<540.514 771.104>
VStem: 41 497<236.952 720.842> 60 478<961.748 1357.61> 774 497<236.987 697.663> 774 467<991.115 1357.61>
LayerCount: 2
Fore
SplineSet
656 1630 m 256,0,1
 794 1630 794 1630 902.5 1604.5 c 128,-1,2
 1011 1579 1011 1579 1086.5 1524.5 c 128,-1,3
 1162 1470 1162 1470 1201.5 1385 c 128,-1,4
 1241 1300 1241 1300 1241 1181 c 0,5,6
 1241 1127 1241 1127 1231.5 1085 c 128,-1,7
 1222 1043 1222 1043 1206.5 1010.5 c 128,-1,8
 1191 978 1191 978 1171.5 955 c 128,-1,9
 1152 932 1152 932 1131 916 c 0,10,11
 1083 879 1083 879 1021 865 c 1,12,13
 1090 852 1090 852 1146 805 c 0,14,15
 1169 785 1169 785 1191.5 756 c 128,-1,16
 1214 727 1214 727 1231.5 686.5 c 128,-1,17
 1249 646 1249 646 1260 592.5 c 128,-1,18
 1271 539 1271 539 1271 471 c 0,19,20
 1271 397 1271 397 1262 330 c 128,-1,21
 1253 263 1253 263 1229 206 c 128,-1,22
 1205 149 1205 149 1162 103.5 c 128,-1,23
 1119 58 1119 58 1050.5 26 c 128,-1,24
 982 -6 982 -6 885 -23.5 c 128,-1,25
 788 -41 788 -41 656 -41 c 256,26,27
 524 -41 524 -41 427 -24 c 128,-1,28
 330 -7 330 -7 261.5 25.5 c 128,-1,29
 193 58 193 58 150 103.5 c 128,-1,30
 107 149 107 149 83 206 c 128,-1,31
 59 263 59 263 50 329.5 c 128,-1,32
 41 396 41 396 41 471 c 0,33,34
 41 539 41 539 48 592.5 c 128,-1,35
 55 646 55 646 67 686.5 c 128,-1,36
 79 727 79 727 94 756 c 128,-1,37
 109 785 109 785 125 805 c 0,38,39
 163 852 163 852 210 865 c 1,40,41
 167 879 167 879 135 917 c 0,42,43
 121 933 121 933 107.5 956.5 c 128,-1,44
 94 980 94 980 83.5 1012.5 c 128,-1,45
 73 1045 73 1045 66.5 1086.5 c 128,-1,46
 60 1128 60 1128 60 1181 c 0,47,48
 60 1300 60 1300 101.5 1385 c 128,-1,49
 143 1470 143 1470 220 1524.5 c 128,-1,50
 297 1579 297 1579 407.5 1604.5 c 128,-1,51
 518 1630 518 1630 656 1630 c 256,0,1
538 1358 m 1,52,-1
 538 961 l 1,53,-1
 774 961 l 1,54,-1
 774 1358 l 1,55,-1
 538 1358 l 1,52,-1
538 236 m 1,56,-1
 774 236 l 1,57,-1
 774 721 l 1,58,-1
 538 721 l 1,59,-1
 538 236 l 1,56,-1
EndSplineSet
Validated: 1
EndChar

StartChar: nine
Encoding: 57 57 28
Width: 1464
Flags: W
HStem: -38 275<546.371 780.747> 596 270<546.389 782> 1358 274<549.721 781.232>
VStem: 49 497<866.125 1356.54> 92 454<237.088 466> 782 497<255.117 596 866 1357.84>
LayerCount: 2
Fore
SplineSet
782 1358 m 1,0,-1
 546 1358 l 1,1,-1
 546 866 l 1,2,-1
 782 866 l 1,3,-1
 782 1358 l 1,0,-1
666 1632 m 0,4,5
 797 1632 797 1632 893.5 1615 c 128,-1,6
 990 1598 990 1598 1058 1566.5 c 128,-1,7
 1126 1535 1126 1535 1169 1489.5 c 128,-1,8
 1212 1444 1212 1444 1236.5 1387 c 128,-1,9
 1261 1330 1261 1330 1270 1262.5 c 128,-1,10
 1279 1195 1279 1195 1279 1119 c 2,11,-1
 1279 539 l 2,12,13
 1279 472 1279 472 1271 403.5 c 128,-1,14
 1263 335 1263 335 1240 271 c 128,-1,15
 1217 207 1217 207 1175 150.5 c 128,-1,16
 1133 94 1133 94 1065 52 c 128,-1,17
 997 10 997 10 899 -14 c 128,-1,18
 801 -38 801 -38 666 -38 c 0,19,20
 519 -38 519 -38 419 -12.5 c 128,-1,21
 319 13 319 13 255 54 c 128,-1,22
 191 95 191 95 157 148.5 c 128,-1,23
 123 202 123 202 108.5 258 c 128,-1,24
 94 314 94 314 92 368 c 128,-1,25
 90 422 90 422 90 466 c 1,26,-1
 546 466 l 1,27,-1
 546 237 l 1,28,-1
 782 237 l 1,29,-1
 782 596 l 1,30,-1
 655 596 l 2,31,32
 532 596 532 596 439.5 608.5 c 128,-1,33
 347 621 347 621 279.5 647 c 128,-1,34
 212 673 212 673 167.5 713.5 c 128,-1,35
 123 754 123 754 96.5 810 c 128,-1,36
 70 866 70 866 59.5 938.5 c 128,-1,37
 49 1011 49 1011 49 1101 c 0,38,39
 49 1228 49 1228 71 1326.5 c 128,-1,40
 93 1425 93 1425 159 1493 c 128,-1,41
 225 1561 225 1561 346.5 1596.5 c 128,-1,42
 468 1632 468 1632 666 1632 c 0,4,5
EndSplineSet
Validated: 1
EndChar

StartChar: colon
Encoding: 58 58 29
Width: 741
Flags: W
HStem: 92 467<100 558> 1000 497<100 558>
VStem: 100 458<92 559 1000 1497>
LayerCount: 2
Fore
SplineSet
558 92 m 1,0,-1
 100 92 l 1,1,-1
 100 559 l 1,2,-1
 558 559 l 1,3,-1
 558 92 l 1,0,-1
558 1000 m 1,4,-1
 100 1000 l 1,5,-1
 100 1497 l 1,6,-1
 558 1497 l 1,7,-1
 558 1000 l 1,4,-1
EndSplineSet
Validated: 1
EndChar

StartChar: semicolon
Encoding: 59 59 30
Width: 774
Flags: W
HStem: -247 199<137 244.323> 1000 497<121 579>
VStem: 113 492<123.317 607> 121 458<1000 1497>
LayerCount: 2
Fore
SplineSet
579 1000 m 1,0,-1
 121 1000 l 1,1,-1
 121 1497 l 1,2,-1
 579 1497 l 1,3,-1
 579 1000 l 1,0,-1
137 -48 m 1,4,5
 188 -36 188 -36 230 -13 c 0,6,7
 248 -3 248 -3 264.5 9.5 c 128,-1,8
 281 22 281 22 294.5 38.5 c 128,-1,9
 308 55 308 55 316 75.5 c 128,-1,10
 324 96 324 96 324 120 c 1,11,-1
 113 120 l 1,12,-1
 113 607 l 1,13,-1
 605 607 l 1,14,-1
 605 270 l 2,15,16
 605 118 605 118 573 18.5 c 128,-1,17
 541 -81 541 -81 481 -140 c 128,-1,18
 421 -199 421 -199 334 -223 c 128,-1,19
 247 -247 247 -247 137 -247 c 1,20,-1
 137 -48 l 1,4,5
EndSplineSet
Validated: 1
EndChar

StartChar: less
Encoding: 60 60 31
Width: 1042
Flags: W
HStem: 0 21G<802.607 835> 1577 20G<803.257 835>
LayerCount: 2
Fore
SplineSet
43 1098 m 1,0,-1
 835 1597 l 1,1,-1
 835 1092 l 1,2,-1
 292 797 l 1,3,-1
 835 504 l 1,4,-1
 835 0 l 1,5,-1
 43 489 l 1,6,-1
 43 1098 l 1,0,-1
EndSplineSet
Validated: 1
EndChar

StartChar: equal
Encoding: 61 61 32
Width: 1026
Flags: W
HStem: 0 336<70 824> 561 336<70 824>
VStem: 70 754<0 336 561 897>
LayerCount: 2
Fore
SplineSet
824 336 m 1,0,-1
 824 0 l 1,1,-1
 70 0 l 1,2,-1
 70 336 l 1,3,-1
 824 336 l 1,0,-1
824 897 m 1,4,-1
 824 561 l 1,5,-1
 70 561 l 1,6,-1
 70 897 l 1,7,-1
 824 897 l 1,4,-1
EndSplineSet
Validated: 1
EndChar

StartChar: greater
Encoding: 62 62 33
Width: 1042
Flags: W
HStem: 0 21G<68 100.434> 1577 20G<68 99.7836>
LayerCount: 2
Fore
SplineSet
861 489 m 1,0,-1
 68 0 l 1,1,-1
 68 504 l 1,2,-1
 611 797 l 1,3,-1
 68 1092 l 1,4,-1
 68 1597 l 1,5,-1
 861 1098 l 1,6,-1
 861 489 l 1,0,-1
EndSplineSet
Validated: 1
EndChar

StartChar: question
Encoding: 63 63 34
Width: 1436
Flags: W
HStem: 0 237<274 751> 1358 274<472.518 742.862>
VStem: 39 431<1070 1357.04> 274 477<0 237 422 649.703> 746 477<1022.32 1356.82>
LayerCount: 2
Fore
SplineSet
274 422 m 1,0,1
 274 540 274 540 294.5 626 c 128,-1,2
 315 712 315 712 348 773.5 c 128,-1,3
 381 835 381 835 423.5 875 c 128,-1,4
 466 915 466 915 510 941 c 128,-1,5
 554 967 554 967 596.5 982.5 c 128,-1,6
 639 998 639 998 672 1010 c 128,-1,7
 705 1022 705 1022 725.5 1034 c 128,-1,8
 746 1046 746 1046 746 1066 c 2,9,-1
 746 1358 l 1,10,-1
 470 1358 l 1,11,-1
 470 1070 l 1,12,-1
 39 1070 l 1,13,-1
 39 1247 l 2,14,15
 39 1287 39 1287 42 1331 c 128,-1,16
 45 1375 45 1375 61 1418 c 128,-1,17
 77 1461 77 1461 111 1499.5 c 128,-1,18
 145 1538 145 1538 207 1567.5 c 128,-1,19
 269 1597 269 1597 363.5 1614.5 c 128,-1,20
 458 1632 458 1632 596 1632 c 256,21,22
 734 1632 734 1632 834 1621 c 128,-1,23
 934 1610 934 1610 1003.5 1585.5 c 128,-1,24
 1073 1561 1073 1561 1116 1521.5 c 128,-1,25
 1159 1482 1159 1482 1183 1425 c 128,-1,26
 1207 1368 1207 1368 1215 1291.5 c 128,-1,27
 1223 1215 1223 1215 1223 1117 c 0,28,29
 1223 1030 1223 1030 1202.5 967.5 c 128,-1,30
 1182 905 1182 905 1149 860.5 c 128,-1,31
 1116 816 1116 816 1073.5 786.5 c 128,-1,32
 1031 757 1031 757 987 736 c 128,-1,33
 943 715 943 715 900.5 699.5 c 128,-1,34
 858 684 858 684 825 668 c 128,-1,35
 792 652 792 652 771.5 632.5 c 128,-1,36
 751 613 751 613 751 583 c 2,37,-1
 751 422 l 1,38,-1
 274 422 l 1,0,1
274 237 m 1,39,-1
 751 237 l 1,40,-1
 751 0 l 1,41,-1
 274 0 l 1,42,-1
 274 237 l 1,39,-1
EndSplineSet
Validated: 1
EndChar

StartChar: at
Encoding: 64 64 35
Width: 2277
Flags: W
HStem: -385 298<685.236 1258.41> 88 240<1468 1580> 109 223<922 1031.34> 637 195<922 1111.42> 1068 227<924.357 1114.17> 1462 279<710 1408.79>
VStem: 43 352<282.004 1136.27> 568 354<332.166 635.992> 1116 352<332 637 784 1067.2> 1619 366<452.75 1216.97>
LayerCount: 2
Fore
SplineSet
1143 235 m 1,0,1
 1105 199 1105 199 1062 172 c 0,2,3
 1025 148 1025 148 976.5 128.5 c 128,-1,4
 928 109 928 109 874 109 c 0,5,6
 797 109 797 109 745 125.5 c 128,-1,7
 693 142 693 142 659 170 c 128,-1,8
 625 198 625 198 606.5 235.5 c 128,-1,9
 588 273 588 273 579.5 315 c 128,-1,10
 571 357 571 357 569.5 401.5 c 128,-1,11
 568 446 568 446 568 489 c 0,12,13
 568 522 568 522 568 560 c 128,-1,14
 568 598 568 598 574 636 c 128,-1,15
 580 674 580 674 596 709.5 c 128,-1,16
 612 745 612 745 644 772 c 128,-1,17
 676 799 676 799 726.5 815.5 c 128,-1,18
 777 832 777 832 854 832 c 0,19,20
 894 832 894 832 935.5 828 c 128,-1,21
 977 824 977 824 1013 817 c 128,-1,22
 1049 810 1049 810 1076.5 801.5 c 128,-1,23
 1104 793 1104 793 1116 784 c 1,24,-1
 1116 1068 l 1,25,-1
 922 1068 l 1,26,-1
 922 933 l 1,27,-1
 614 933 l 1,28,29
 614 950 614 950 613.5 966.5 c 128,-1,30
 613 983 613 983 613 1000 c 0,31,32
 613 1036 613 1036 617 1071.5 c 128,-1,33
 621 1107 621 1107 635 1139.5 c 128,-1,34
 649 1172 649 1172 677 1200.5 c 128,-1,35
 705 1229 705 1229 753 1250 c 128,-1,36
 801 1271 801 1271 872 1283 c 128,-1,37
 943 1295 943 1295 1044 1295 c 0,38,39
 1143 1295 1143 1295 1213 1281 c 128,-1,40
 1283 1267 1283 1267 1330 1243.5 c 128,-1,41
 1377 1220 1377 1220 1404.5 1187.5 c 128,-1,42
 1432 1155 1432 1155 1446 1117.5 c 128,-1,43
 1460 1080 1460 1080 1464 1040 c 128,-1,44
 1468 1000 1468 1000 1468 960 c 2,45,-1
 1468 328 l 1,46,-1
 1580 328 l 1,47,48
 1585 376 1585 376 1589.5 422.5 c 128,-1,49
 1594 469 1594 469 1599 515 c 0,50,51
 1603 554 1603 554 1606.5 596 c 128,-1,52
 1610 638 1610 638 1613 679 c 128,-1,53
 1616 720 1616 720 1617.5 759 c 128,-1,54
 1619 798 1619 798 1619 830 c 0,55,56
 1619 982 1619 982 1603.5 1088 c 128,-1,57
 1588 1194 1588 1194 1556.5 1264.5 c 128,-1,58
 1525 1335 1525 1335 1478 1374.5 c 128,-1,59
 1431 1414 1431 1414 1368.5 1433.5 c 128,-1,60
 1306 1453 1306 1453 1228 1457.5 c 128,-1,61
 1150 1462 1150 1462 1057 1462 c 0,62,63
 913 1462 913 1462 807.5 1442.5 c 128,-1,64
 702 1423 702 1423 628.5 1383 c 128,-1,65
 555 1343 555 1343 509.5 1280.5 c 128,-1,66
 464 1218 464 1218 438.5 1132.5 c 128,-1,67
 413 1047 413 1047 404 936.5 c 128,-1,68
 395 826 395 826 395 690 c 0,69,70
 395 534 395 534 412 416 c 128,-1,71
 429 298 429 298 461.5 211.5 c 128,-1,72
 494 125 494 125 541.5 67.5 c 128,-1,73
 589 10 589 10 650 -24.5 c 128,-1,74
 711 -59 711 -59 785 -73 c 128,-1,75
 859 -87 859 -87 945 -87 c 0,76,77
 1009 -87 1009 -87 1080 -80 c 128,-1,78
 1151 -73 1151 -73 1227.5 -62 c 128,-1,79
 1304 -51 1304 -51 1386.5 -37 c 128,-1,80
 1469 -23 1469 -23 1556 -9 c 1,81,-1
 1609 -234 l 1,82,83
 1415 -306 1415 -306 1235.5 -345.5 c 128,-1,84
 1056 -385 1056 -385 890 -385 c 0,85,86
 704 -385 704 -385 548.5 -327.5 c 128,-1,87
 393 -270 393 -270 280.5 -142.5 c 128,-1,88
 168 -15 168 -15 105.5 189.5 c 128,-1,89
 43 394 43 394 43 687 c 0,90,91
 43 893 43 893 70 1051.5 c 128,-1,92
 97 1210 97 1210 152 1327 c 128,-1,93
 207 1444 207 1444 290.5 1523.5 c 128,-1,94
 374 1603 374 1603 486 1651 c 128,-1,95
 598 1699 598 1699 740 1720 c 128,-1,96
 882 1741 882 1741 1055 1741 c 0,97,98
 1238 1741 1238 1741 1378.5 1717.5 c 128,-1,99
 1519 1694 1519 1694 1622.5 1647 c 128,-1,100
 1726 1600 1726 1600 1795.5 1528.5 c 128,-1,101
 1865 1457 1865 1457 1907 1361 c 128,-1,102
 1949 1265 1949 1265 1967 1144.5 c 128,-1,103
 1985 1024 1985 1024 1985 878 c 0,104,105
 1985 643 1985 643 1950 490 c 128,-1,106
 1915 337 1915 337 1844.5 248 c 128,-1,107
 1774 159 1774 159 1668.5 123.5 c 128,-1,108
 1563 88 1563 88 1421 88 c 0,109,110
 1328 88 1328 88 1272.5 110.5 c 128,-1,111
 1217 133 1217 133 1189 161 c 0,112,113
 1157 193 1157 193 1143 235 c 1,0,1
922 637 m 1,114,-1
 922 332 l 1,115,-1
 1116 332 l 1,116,-1
 1116 637 l 1,117,-1
 922 637 l 1,114,-1
EndSplineSet
Validated: 1
EndChar

StartChar: A
Encoding: 65 65 36
Width: 1606
Flags: W
HStem: 0 21G<-2 515.086 849.015 1368> 393 179<580 786> 1575 20G<250.79 1115.21>
LayerCount: 2
Fore
SplineSet
554 393 m 1,0,-1
 513 0 l 1,1,-1
 -2 0 l 1,2,-1
 254 1595 l 1,3,-1
 1112 1595 l 1,4,-1
 1368 0 l 1,5,-1
 851 0 l 1,6,-1
 812 393 l 1,7,-1
 554 393 l 1,0,-1
580 572 m 1,8,-1
 786 572 l 1,9,-1
 682 1361 l 1,10,-1
 580 572 l 1,8,-1
EndSplineSet
Validated: 1
EndChar

StartChar: B
Encoding: 66 66 37
Width: 1618
Flags: W
HStem: 0 237<613 844.998> 750 231<613 849> 1358 237<613 848.07>
VStem: 96 517<237 750 981 1358> 849 537<237.633 697.719> 849 485<1005.17 1357.57>
LayerCount: 2
Fore
SplineSet
1386 460 m 0,0,1
 1386 397 1386 397 1383 338 c 128,-1,2
 1380 279 1380 279 1363.5 228 c 128,-1,3
 1347 177 1347 177 1311 135 c 128,-1,4
 1275 93 1275 93 1208.5 63 c 128,-1,5
 1142 33 1142 33 1039 16.5 c 128,-1,6
 936 0 936 0 786 0 c 2,7,-1
 96 0 l 1,8,-1
 96 1595 l 1,9,-1
 795 1595 l 2,10,11
 930 1595 930 1595 1022 1578 c 128,-1,12
 1114 1561 1114 1561 1174 1531 c 128,-1,13
 1234 1501 1234 1501 1266.5 1461 c 128,-1,14
 1299 1421 1299 1421 1314 1376 c 128,-1,15
 1329 1331 1329 1331 1331.5 1282.5 c 128,-1,16
 1334 1234 1334 1234 1334 1188 c 0,17,18
 1334 1123 1334 1123 1320.5 1076.5 c 128,-1,19
 1307 1030 1307 1030 1284.5 998 c 128,-1,20
 1262 966 1262 966 1234 945 c 128,-1,21
 1206 924 1206 924 1177 909 c 0,22,23
 1146 893 1146 893 1112.5 883 c 128,-1,24
 1079 873 1079 873 1041 870 c 1,25,26
 1131 864 1131 864 1197 827 c 1,27,28
 1234 811 1234 811 1268 786.5 c 128,-1,29
 1302 762 1302 762 1328.5 720 c 128,-1,30
 1355 678 1355 678 1370.5 615.5 c 128,-1,31
 1386 553 1386 553 1386 460 c 0,0,1
613 237 m 1,32,-1
 849 237 l 1,33,-1
 849 750 l 1,34,-1
 613 750 l 1,35,-1
 613 237 l 1,32,-1
613 981 m 1,36,-1
 849 981 l 1,37,-1
 849 1358 l 1,38,-1
 613 1358 l 1,39,-1
 613 981 l 1,36,-1
EndSplineSet
Validated: 1
EndChar

StartChar: C
Encoding: 67 67 38
Width: 1628
Flags: W
HStem: -39 276<598.469 829.111> 1358 274<595.634 830.982>
VStem: 78 517<237.695 1357.88> 831 497<237.695 686 909 1357.88>
LayerCount: 2
Fore
SplineSet
831 1358 m 1,0,-1
 595 1358 l 1,1,-1
 595 237 l 1,2,-1
 831 237 l 1,3,-1
 831 686 l 1,4,-1
 1328 686 l 1,5,-1
 1328 371 l 2,6,7
 1328 331 1328 331 1323.5 285 c 128,-1,8
 1319 239 1319 239 1299.5 193.5 c 128,-1,9
 1280 148 1280 148 1241 106 c 128,-1,10
 1202 64 1202 64 1133.5 32 c 128,-1,11
 1065 0 1065 0 962.5 -19.5 c 128,-1,12
 860 -39 860 -39 713 -39 c 0,13,14
 563 -39 563 -39 457.5 -19.5 c 128,-1,15
 352 0 352 0 281.5 32 c 128,-1,16
 211 64 211 64 170.5 106 c 128,-1,17
 130 148 130 148 109.5 193.5 c 128,-1,18
 89 239 89 239 83.5 285 c 128,-1,19
 78 331 78 331 78 371 c 2,20,-1
 78 1227 l 2,21,22
 78 1267 78 1267 83.5 1312.5 c 128,-1,23
 89 1358 89 1358 109 1403 c 128,-1,24
 129 1448 129 1448 169.5 1489.5 c 128,-1,25
 210 1531 210 1531 280.5 1562.5 c 128,-1,26
 351 1594 351 1594 455.5 1613 c 128,-1,27
 560 1632 560 1632 710 1632 c 0,28,29
 858 1632 858 1632 961.5 1613 c 128,-1,30
 1065 1594 1065 1594 1133.5 1562.5 c 128,-1,31
 1202 1531 1202 1531 1241 1489.5 c 128,-1,32
 1280 1448 1280 1448 1299.5 1403 c 128,-1,33
 1319 1358 1319 1358 1323.5 1312.5 c 128,-1,34
 1328 1267 1328 1267 1328 1227 c 2,35,-1
 1328 909 l 1,36,-1
 831 909 l 1,37,-1
 831 1358 l 1,0,-1
EndSplineSet
Validated: 1
EndChar

StartChar: D
Encoding: 68 68 39
Width: 1661
Flags: W
HStem: 0 237<613 848.236> 1358 237<613 848.236>
VStem: 96 517<237 1358> 849 517<237.896 1357.42>
LayerCount: 2
Fore
SplineSet
613 237 m 1,0,-1
 849 237 l 1,1,-1
 849 1358 l 1,2,-1
 613 1358 l 1,3,-1
 613 237 l 1,0,-1
1366 393 m 2,4,5
 1366 353 1366 353 1363.5 308.5 c 128,-1,6
 1361 264 1361 264 1344.5 220 c 128,-1,7
 1328 176 1328 176 1293.5 136.5 c 128,-1,8
 1259 97 1259 97 1194.5 66.5 c 128,-1,9
 1130 36 1130 36 1031 18 c 128,-1,10
 932 0 932 0 787 0 c 2,11,-1
 96 0 l 1,12,-1
 96 1595 l 1,13,-1
 787 1595 l 2,14,15
 932 1595 932 1595 1031 1577 c 128,-1,16
 1130 1559 1130 1559 1194.5 1529 c 128,-1,17
 1259 1499 1259 1499 1293.5 1459.5 c 128,-1,18
 1328 1420 1328 1420 1344.5 1376.5 c 128,-1,19
 1361 1333 1361 1333 1363.5 1288.5 c 128,-1,20
 1366 1244 1366 1244 1366 1204 c 2,21,-1
 1366 393 l 2,4,5
EndSplineSet
Validated: 1
EndChar

StartChar: E
Encoding: 69 69 40
Width: 1198
Flags: W
HStem: 0 237<613 922> 711 250<613 901> 1358 237<613 922>
VStem: 96 517<237 711 961 1358>
LayerCount: 2
Fore
SplineSet
922 1595 m 1,0,-1
 922 1358 l 1,1,-1
 613 1358 l 1,2,-1
 613 961 l 1,3,-1
 901 961 l 1,4,-1
 901 711 l 1,5,-1
 613 711 l 1,6,-1
 613 237 l 1,7,-1
 922 237 l 1,8,-1
 922 0 l 1,9,-1
 96 0 l 1,10,-1
 96 1595 l 1,11,-1
 922 1595 l 1,0,-1
EndSplineSet
Validated: 1
EndChar

StartChar: F
Encoding: 70 70 41
Width: 1174
Flags: W
HStem: 0 21G<96 613> 705 249<613 901> 1358 237<613 922>
VStem: 96 517<0 705 954 1358>
LayerCount: 2
Fore
SplineSet
922 1595 m 1,0,-1
 922 1358 l 1,1,-1
 613 1358 l 1,2,-1
 613 954 l 1,3,-1
 901 954 l 1,4,-1
 901 705 l 1,5,-1
 613 705 l 1,6,-1
 613 0 l 1,7,-1
 96 0 l 1,8,-1
 96 1595 l 1,9,-1
 922 1595 l 1,0,-1
EndSplineSet
Validated: 1
EndChar

StartChar: G
Encoding: 71 71 42
Width: 1645
Flags: W
HStem: -37 274<595 754.875> 0 21G<883.769 1328> 455 231<773 917> 1358 274<595.364 828.466>
VStem: 78 517<237.426 1357.74> 831 497<909 1357.88>
LayerCount: 2
Fore
SplineSet
1328 686 m 1,0,-1
 1328 0 l 1,1,-1
 893 0 l 1,2,-1
 845 104 l 1,3,4
 835 84 835 84 821 66.5 c 128,-1,5
 807 49 807 49 790 33 c 0,6,7
 760 7 760 7 709.5 -15 c 128,-1,8
 659 -37 659 -37 582 -37 c 0,9,10
 483 -37 483 -37 407.5 -19 c 128,-1,11
 332 -1 332 -1 276 30 c 128,-1,12
 220 61 220 61 182 101 c 128,-1,13
 144 141 144 141 121 185 c 128,-1,14
 98 229 98 229 88 273.5 c 128,-1,15
 78 318 78 318 78 358 c 2,16,-1
 78 1227 l 2,17,18
 78 1270 78 1270 83.5 1317 c 128,-1,19
 89 1364 89 1364 109.5 1409 c 128,-1,20
 130 1454 130 1454 170.5 1494.5 c 128,-1,21
 211 1535 211 1535 281.5 1565.5 c 128,-1,22
 352 1596 352 1596 456 1614 c 128,-1,23
 560 1632 560 1632 709 1632 c 0,24,25
 850 1632 850 1632 950.5 1613 c 128,-1,26
 1051 1594 1051 1594 1119.5 1562.5 c 128,-1,27
 1188 1531 1188 1531 1229.5 1489.5 c 128,-1,28
 1271 1448 1271 1448 1292.5 1403 c 128,-1,29
 1314 1358 1314 1358 1321 1312.5 c 128,-1,30
 1328 1267 1328 1267 1328 1227 c 2,31,-1
 1328 909 l 1,32,-1
 831 909 l 1,33,-1
 831 1358 l 1,34,-1
 595 1358 l 1,35,-1
 595 237 l 1,36,-1
 917 237 l 1,37,-1
 917 455 l 1,38,-1
 773 455 l 1,39,-1
 773 686 l 1,40,-1
 1328 686 l 1,0,-1
EndSplineSet
Validated: 1
EndChar

StartChar: H
Encoding: 72 72 43
Width: 1677
Flags: W
HStem: 0 21G<96 613 899 1416> 688 250<613 899> 1575 20G<96 613 899 1416>
VStem: 96 517<0 688 938 1595> 899 517<0 688 938 1595>
LayerCount: 2
Fore
SplineSet
1416 1595 m 1,0,-1
 1416 0 l 1,1,-1
 899 0 l 1,2,-1
 899 688 l 1,3,-1
 613 688 l 1,4,-1
 613 0 l 1,5,-1
 96 0 l 1,6,-1
 96 1595 l 1,7,-1
 613 1595 l 1,8,-1
 613 938 l 1,9,-1
 899 938 l 1,10,-1
 899 1595 l 1,11,-1
 1416 1595 l 1,0,-1
EndSplineSet
Validated: 1
EndChar

StartChar: I
Encoding: 73 73 44
Width: 870
Flags: W
HStem: 0 21G<96 613> 1575 20G<96 613>
VStem: 96 517<0 1595>
LayerCount: 2
Fore
SplineSet
613 1595 m 1,0,-1
 613 0 l 1,1,-1
 96 0 l 1,2,-1
 96 1595 l 1,3,-1
 613 1595 l 1,0,-1
EndSplineSet
Validated: 1
EndChar

StartChar: J
Encoding: 74 74 45
Width: 1612
Flags: W
HStem: -39 276<494.823 724.805> 1575 20G<728 1245>
VStem: 35 457<237.695 603> 728 517<237.695 1595>
LayerCount: 2
Fore
SplineSet
728 1595 m 1,0,-1
 1245 1595 l 1,1,-1
 1245 371 l 2,2,3
 1245 331 1245 331 1238.5 285 c 128,-1,4
 1232 239 1232 239 1210.5 193.5 c 128,-1,5
 1189 148 1189 148 1148 106 c 128,-1,6
 1107 64 1107 64 1038 32 c 128,-1,7
 969 0 969 0 867.5 -19.5 c 128,-1,8
 766 -39 766 -39 624 -39 c 0,9,10
 480 -39 480 -39 380 -19.5 c 128,-1,11
 280 0 280 0 214.5 32 c 128,-1,12
 149 64 149 64 113 106 c 128,-1,13
 77 148 77 148 59.5 193.5 c 128,-1,14
 42 239 42 239 38.5 285 c 128,-1,15
 35 331 35 331 35 371 c 2,16,-1
 35 603 l 1,17,-1
 492 603 l 1,18,-1
 492 237 l 1,19,-1
 728 237 l 1,20,-1
 728 1595 l 1,0,-1
EndSplineSet
Validated: 1
EndChar

StartChar: K
Encoding: 75 75 46
Width: 1872
Flags: W
HStem: 0 21G<96 613 940.094 1535> 1575 20G<96 613 921.592 1517>
VStem: 96 517<0 440 1034 1595>
LayerCount: 2
Fore
SplineSet
613 0 m 1,0,-1
 96 0 l 1,1,-1
 96 1595 l 1,2,-1
 613 1595 l 1,3,-1
 613 1034 l 1,4,-1
 933 1595 l 1,5,-1
 1517 1595 l 1,6,-1
 1012 854 l 1,7,-1
 1535 0 l 1,8,-1
 950 0 l 1,9,-1
 687 531 l 1,10,-1
 613 440 l 1,11,-1
 613 0 l 1,0,-1
EndSplineSet
Validated: 1
EndChar

StartChar: L
Encoding: 76 76 47
Width: 1161
Flags: W
HStem: 0 237<613 921> 1575 20G<96 613>
VStem: 96 517<237 1595>
LayerCount: 2
Fore
SplineSet
96 0 m 1,0,-1
 96 1595 l 1,1,-1
 613 1595 l 1,2,-1
 613 237 l 1,3,-1
 921 237 l 1,4,-1
 921 0 l 1,5,-1
 96 0 l 1,0,-1
EndSplineSet
Validated: 1
EndChar

StartChar: M
Encoding: 77 77 48
Width: 2056
Flags: W
HStem: 0 21G<59 439 669.57 1042.43 1273 1653> 1575 20G<59 666.967 1045.03 1653>
VStem: 59 380<0 1061> 1273 380<0 1061>
LayerCount: 2
Fore
SplineSet
1038 0 m 1,0,-1
 674 0 l 1,1,-1
 439 1061 l 1,2,-1
 439 0 l 1,3,-1
 59 0 l 1,4,-1
 59 1595 l 1,5,-1
 663 1595 l 1,6,-1
 856 622 l 1,7,-1
 1049 1595 l 1,8,-1
 1653 1595 l 1,9,-1
 1653 0 l 1,10,-1
 1273 0 l 1,11,-1
 1273 1061 l 1,12,-1
 1038 0 l 1,0,-1
EndSplineSet
Validated: 1
EndChar

StartChar: N
Encoding: 78 78 49
Width: 1741
Flags: W
HStem: 0 21G<96 528 903.734 1397> 1575 20G<96 579.262 978 1397>
VStem: 96 432<0 831> 978 419<714 1595>
LayerCount: 2
Fore
SplineSet
913 0 m 1,0,-1
 528 831 l 1,1,-1
 528 0 l 1,2,-1
 96 0 l 1,3,-1
 96 1595 l 1,4,-1
 570 1595 l 1,5,-1
 978 714 l 1,6,-1
 978 1595 l 1,7,-1
 1397 1595 l 1,8,-1
 1397 0 l 1,9,-1
 913 0 l 1,0,-1
EndSplineSet
Validated: 1
EndChar

StartChar: O
Encoding: 79 79 50
Width: 1590
Flags: W
HStem: -39 276<597.603 832.291> 1358 274<597.05 832.291>
VStem: 80 517<237.695 1357.88> 833 517<237.695 1357.88>
LayerCount: 2
Fore
SplineSet
597 237 m 1,0,-1
 833 237 l 1,1,-1
 833 1358 l 1,2,-1
 597 1358 l 1,3,-1
 597 237 l 1,0,-1
708 -39 m 0,4,5
 558 -39 558 -39 452.5 -19.5 c 128,-1,6
 347 0 347 0 277.5 32 c 128,-1,7
 208 64 208 64 168.5 106 c 128,-1,8
 129 148 129 148 109 193.5 c 128,-1,9
 89 239 89 239 84.5 285 c 128,-1,10
 80 331 80 331 80 371 c 2,11,-1
 80 1227 l 2,12,13
 80 1267 80 1267 84.5 1312.5 c 128,-1,14
 89 1358 89 1358 109 1403 c 128,-1,15
 129 1448 129 1448 168.5 1489.5 c 128,-1,16
 208 1531 208 1531 277.5 1562.5 c 128,-1,17
 347 1594 347 1594 452 1613 c 128,-1,18
 557 1632 557 1632 708 1632 c 0,19,20
 860 1632 860 1632 966.5 1613 c 128,-1,21
 1073 1594 1073 1594 1144.5 1562.5 c 128,-1,22
 1216 1531 1216 1531 1257 1489.5 c 128,-1,23
 1298 1448 1298 1448 1318.5 1403 c 128,-1,24
 1339 1358 1339 1358 1344.5 1312.5 c 128,-1,25
 1350 1267 1350 1267 1350 1227 c 2,26,-1
 1350 371 l 2,27,28
 1350 331 1350 331 1344.5 285 c 128,-1,29
 1339 239 1339 239 1318.5 193.5 c 128,-1,30
 1298 148 1298 148 1257 106 c 128,-1,31
 1216 64 1216 64 1144.5 32 c 128,-1,32
 1073 0 1073 0 966.5 -19.5 c 128,-1,33
 860 -39 860 -39 708 -39 c 0,4,5
EndSplineSet
Validated: 1
EndChar

StartChar: P
Encoding: 80 80 51
Width: 1626
Flags: W
HStem: 0 21G<96 613> 432 218<613 847.236> 1358 237<613 847.236>
VStem: 96 517<0 432 650 1358> 849 517<651.009 1357.42>
LayerCount: 2
Fore
SplineSet
96 1595 m 1,0,-1
 786 1595 l 2,1,2
 931 1595 931 1595 1030 1577 c 128,-1,3
 1129 1559 1129 1559 1193.5 1529 c 128,-1,4
 1258 1499 1258 1499 1293 1459.5 c 128,-1,5
 1328 1420 1328 1420 1344 1376.5 c 128,-1,6
 1360 1333 1360 1333 1363 1288.5 c 128,-1,7
 1366 1244 1366 1244 1366 1204 c 2,8,-1
 1366 823 l 2,9,10
 1366 783 1366 783 1363 738.5 c 128,-1,11
 1360 694 1360 694 1344 651 c 128,-1,12
 1328 608 1328 608 1293 568 c 128,-1,13
 1258 528 1258 528 1193.5 498 c 128,-1,14
 1129 468 1129 468 1030 450 c 128,-1,15
 931 432 931 432 786 432 c 2,16,-1
 613 432 l 1,17,-1
 613 0 l 1,18,-1
 96 0 l 1,19,-1
 96 1595 l 1,0,-1
613 650 m 1,20,-1
 849 650 l 1,21,-1
 849 1358 l 1,22,-1
 613 1358 l 1,23,-1
 613 650 l 1,20,-1
EndSplineSet
Validated: 1
EndChar

StartChar: R
Encoding: 82 82 53
Width: 1649
Flags: W
HStem: 0 21G<96 613 849 1366> 649 232<613 849> 1358 237<613 845.657>
VStem: 96 517<0 649 881 1358> 849 517<0 648.656 888.048 1357.38>
LayerCount: 2
Fore
SplineSet
849 649 m 1,0,-1
 613 649 l 1,1,-1
 613 0 l 1,2,-1
 96 0 l 1,3,-1
 96 1595 l 1,4,-1
 765 1595 l 2,5,6
 915 1595 915 1595 1018 1576.5 c 128,-1,7
 1121 1558 1121 1558 1187.5 1525.5 c 128,-1,8
 1254 1493 1254 1493 1290.5 1448 c 128,-1,9
 1327 1403 1327 1403 1343.5 1349 c 128,-1,10
 1360 1295 1360 1295 1363 1234 c 128,-1,11
 1366 1173 1366 1173 1366 1110 c 0,12,13
 1366 1051 1366 1051 1358 995.5 c 128,-1,14
 1350 940 1350 940 1325 895 c 128,-1,15
 1300 850 1300 850 1253.5 818 c 128,-1,16
 1207 786 1207 786 1131 774 c 1,17,18
 1166 771 1166 771 1207 756.5 c 128,-1,19
 1248 742 1248 742 1283.5 709.5 c 128,-1,20
 1319 677 1319 677 1342.5 623 c 128,-1,21
 1366 569 1366 569 1366 487 c 2,22,-1
 1366 0 l 1,23,-1
 849 0 l 1,24,-1
 849 649 l 1,0,-1
613 881 m 1,25,-1
 849 881 l 1,26,-1
 849 1358 l 1,27,-1
 613 1358 l 1,28,-1
 613 881 l 1,25,-1
EndSplineSet
Validated: 1
EndChar

StartChar: S
Encoding: 83 83 54
Width: 1585
Flags: W
HStem: -37 274<577.673 808.846> 18 478<208.105 491.147> 1158 449.5<817.493 1134.73> 1358 274<578.547 812.451>
VStem: 57 520<238.641 496 1070.6 1355.94> 813 517<237.354 586.742>
LayerCount: 2
Fore
SplineSet
577 1128 m 2,0,1
 577 1096 577 1096 609.5 1077 c 128,-1,2
 642 1058 642 1058 695 1043.5 c 128,-1,3
 748 1029 748 1029 815.5 1015 c 128,-1,4
 883 1001 883 1001 953.5 979.5 c 128,-1,5
 1024 958 1024 958 1091.5 924.5 c 128,-1,6
 1159 891 1159 891 1212 837.5 c 128,-1,7
 1265 784 1265 784 1297.5 706 c 128,-1,8
 1330 628 1330 628 1330 518 c 0,9,10
 1330 439 1330 439 1326 367 c 128,-1,11
 1322 295 1322 295 1303.5 233.5 c 128,-1,12
 1285 172 1285 172 1245.5 122 c 128,-1,13
 1206 72 1206 72 1135.5 36.5 c 128,-1,14
 1065 1 1065 1 957.5 -18 c 128,-1,15
 850 -37 850 -37 695 -37 c 0,16,17
 562 -37 562 -37 462.5 -23.5 c 128,-1,18
 363 -10 363 -10 292 18 c 128,-1,19
 221 46 221 46 175.5 89.5 c 128,-1,20
 130 133 130 133 103.5 192 c 128,-1,21
 77 251 77 251 67 327 c 128,-1,22
 57 403 57 403 57 496 c 1,23,-1
 577 496 l 1,24,-1
 577 237 l 1,25,-1
 813 237 l 1,26,-1
 813 533 l 2,27,28
 813 562 813 562 780.5 581 c 128,-1,29
 748 600 748 600 695 615.5 c 128,-1,30
 642 631 642 631 574.5 646 c 128,-1,31
 507 661 507 661 436.5 682 c 128,-1,32
 366 703 366 703 298.5 733 c 128,-1,33
 231 763 231 763 178 807.5 c 128,-1,34
 125 852 125 852 92.5 914.5 c 128,-1,35
 60 977 60 977 60 1064 c 0,36,37
 60 1172 60 1172 71.5 1256.5 c 128,-1,38
 83 1341 83 1341 111 1404 c 128,-1,39
 139 1467 139 1467 186 1510.5 c 128,-1,40
 233 1554 233 1554 305 1581 c 128,-1,41
 377 1608 377 1608 475.5 1620 c 128,-1,42
 574 1632 574 1632 705 1632 c 0,43,44
 887 1632 887 1632 1004.5 1607.5 c 128,-1,45
 1122 1583 1122 1583 1190 1527.5 c 128,-1,46
 1258 1472 1258 1472 1284 1381 c 128,-1,47
 1310 1290 1310 1290 1310 1158 c 1,48,-1
 813 1158 l 1,49,-1
 813 1358 l 1,50,-1
 577 1358 l 1,51,-1
 577 1128 l 2,0,1
EndSplineSet
Validated: 1
EndChar

StartChar: T
Encoding: 84 84 55
Width: 1448
Flags: W
HStem: 0 21G<359 876> 1358 237<25 359 876 1212>
VStem: 359 517<0 1358>
LayerCount: 2
Fore
SplineSet
1212 1595 m 1,0,-1
 1212 1358 l 1,1,-1
 876 1358 l 1,2,-1
 876 0 l 1,3,-1
 359 0 l 1,4,-1
 359 1358 l 1,5,-1
 25 1358 l 1,6,-1
 25 1595 l 1,7,-1
 1212 1595 l 1,0,-1
EndSplineSet
Validated: 1
EndChar

StartChar: U
Encoding: 85 85 56
Width: 1671
Flags: W
HStem: -39 276<612.603 846.607> 1575 20G<94 611 847 1364>
VStem: 94 517<237.695 1595> 847 517<237.695 1595>
LayerCount: 2
Fore
SplineSet
611 237 m 1,0,-1
 847 237 l 1,1,-1
 847 1595 l 1,2,-1
 1364 1595 l 1,3,-1
 1364 371 l 2,4,5
 1364 331 1364 331 1358.5 285 c 128,-1,6
 1353 239 1353 239 1332.5 193.5 c 128,-1,7
 1312 148 1312 148 1271 106 c 128,-1,8
 1230 64 1230 64 1158.5 32 c 128,-1,9
 1087 0 1087 0 980.5 -19.5 c 128,-1,10
 874 -39 874 -39 723 -39 c 0,11,12
 573 -39 573 -39 467.5 -19.5 c 128,-1,13
 362 0 362 0 292 32 c 128,-1,14
 222 64 222 64 182.5 106 c 128,-1,15
 143 148 143 148 123.5 193.5 c 128,-1,16
 104 239 104 239 99 285 c 128,-1,17
 94 331 94 331 94 371 c 2,18,-1
 94 1595 l 1,19,-1
 611 1595 l 1,20,-1
 611 237 l 1,0,-1
EndSplineSet
Validated: 1
EndChar

StartChar: V
Encoding: 86 86 57
Width: 1556
Flags: W
HStem: 0 21G<278.288 1083.71> 1575 20G<-14 523.319 836.681 1376>
LayerCount: 2
Fore
SplineSet
521 1595 m 1,0,-1
 680 224 l 1,1,-1
 839 1595 l 1,2,-1
 1376 1595 l 1,3,-1
 1080 0 l 1,4,-1
 282 0 l 1,5,-1
 -14 1595 l 1,6,-1
 521 1595 l 1,0,-1
EndSplineSet
Validated: 1
EndChar

StartChar: W
Encoding: 87 87 58
Width: 2138
Flags: W
HStem: 0 21G<297.226 842.996 1115 1659.79> 1575 20G<0 525.683 792.237 1166.72 1432.3 1958>
LayerCount: 2
Fore
SplineSet
1958 1595 m 1,0,-1
 1656 0 l 1,1,-1
 1118 0 l 1,2,-1
 979 928 l 1,3,-1
 840 0 l 1,4,-1
 301 0 l 1,5,-1
 0 1595 l 1,6,-1
 523 1595 l 1,7,-1
 657 596 l 1,8,-1
 795 1595 l 1,9,-1
 1164 1595 l 1,10,-1
 1300 596 l 1,11,-1
 1435 1595 l 1,12,-1
 1958 1595 l 1,0,-1
EndSplineSet
Validated: 1
EndChar

StartChar: X
Encoding: 88 88 59
Width: 1556
Flags: W
HStem: 0 21G<-20 534.47 783.359 1339> 1575 20G<-20 502.402 815.439 1339>
LayerCount: 2
Fore
SplineSet
496 1595 m 1,0,-1
 657 1092 l 1,1,-1
 822 1595 l 1,2,-1
 1339 1595 l 1,3,-1
 977 782 l 1,4,-1
 1339 0 l 1,5,-1
 789 0 l 1,6,-1
 657 468 l 1,7,-1
 529 0 l 1,8,-1
 -20 0 l 1,9,-1
 339 782 l 1,10,-1
 -20 1595 l 1,11,-1
 496 1595 l 1,0,-1
EndSplineSet
Validated: 1
EndChar

StartChar: Y
Encoding: 89 89 60
Width: 1571
Flags: W
HStem: 0 21G<387 904> 1575 20G<-18 480.532 811.305 1298>
VStem: 387 517<0 449>
LayerCount: 2
Fore
SplineSet
476 1595 m 1,0,-1
 643 858 l 1,1,-1
 816 1595 l 1,2,-1
 1298 1595 l 1,3,-1
 904 449 l 1,4,-1
 904 0 l 1,5,-1
 387 0 l 1,6,-1
 387 459 l 1,7,-1
 -18 1595 l 1,8,-1
 476 1595 l 1,0,-1
EndSplineSet
Validated: 1
EndChar

StartChar: Z
Encoding: 90 90 61
Width: 1147
Flags: W
HStem: 0 294<646 950> 1304 291<33 369>
LayerCount: 2
Fore
SplineSet
960 1595 m 1,0,-1
 646 294 l 1,1,-1
 950 294 l 1,2,-1
 950 0 l 1,3,-1
 23 0 l 1,4,-1
 369 1304 l 1,5,-1
 33 1304 l 1,6,-1
 33 1595 l 1,7,-1
 960 1595 l 1,0,-1
EndSplineSet
Validated: 1
EndChar

StartChar: bracketleft
Encoding: 91 91 62
Width: 1104
Flags: W
HStem: -319 242<666 973> 1578 241<666 973>
VStem: 92 574<-77 1578>
LayerCount: 2
Fore
SplineSet
92 1819 m 1,0,-1
 973 1819 l 1,1,-1
 973 1578 l 1,2,-1
 666 1578 l 1,3,-1
 666 -77 l 1,4,-1
 973 -77 l 1,5,-1
 973 -319 l 1,6,-1
 92 -319 l 1,7,-1
 92 1819 l 1,0,-1
EndSplineSet
Validated: 1
EndChar

StartChar: backslash
Encoding: 92 92 63
Width: 1110
Flags: W
HStem: 0 21G<403.013 901> 1575 20G<89 586.987>
LayerCount: 2
Fore
SplineSet
583 1595 m 1,0,-1
 901 0 l 1,1,-1
 407 0 l 1,2,-1
 89 1595 l 1,3,-1
 583 1595 l 1,0,-1
EndSplineSet
Validated: 1
EndChar

StartChar: bracketright
Encoding: 93 93 64
Width: 1102
Flags: W
HStem: -319 242<-27 282> 1578 241<-27 282>
VStem: 282 572<-77 1578>
LayerCount: 2
Fore
SplineSet
854 -319 m 1,0,-1
 -27 -319 l 1,1,-1
 -27 -77 l 1,2,-1
 282 -77 l 1,3,-1
 282 1578 l 1,4,-1
 -27 1578 l 1,5,-1
 -27 1819 l 1,6,-1
 854 1819 l 1,7,-1
 854 -319 l 1,0,-1
EndSplineSet
Validated: 1
EndChar

StartChar: asciicircum
Encoding: 94 94 65
Width: 1706
Flags: W
HStem: 61 615<38 226 382 561>
LayerCount: 2
Fore
SplineSet
1084 676 m 1,0,-1
 1340 61 l 1,1,-1
 905 61 l 1,2,-1
 825 381 l 1,3,-1
 749 61 l 1,4,-1
 315 61 l 1,5,-1
 561 676 l 1,6,-1
 1084 676 l 1,0,-1
EndSplineSet
Validated: 1
EndChar

StartChar: underscore
Encoding: 95 95 66
Width: 967
Flags: W
HStem: -435 436<10 814>
LayerCount: 2
Fore
SplineSet
814 1 m 1,0,-1
 814 -435 l 1,1,-1
 10 -435 l 1,2,-1
 10 1 l 1,3,-1
 814 1 l 1,0,-1
EndSplineSet
Validated: 1
EndChar

StartChar: grave
Encoding: 96 96 67
Width: 1706
Flags: W
HStem: 40 649
LayerCount: 2
Fore
SplineSet
551 689 m 1,0,-1
 1276 166 l 1,1,-1
 1211 40 l 1,2,-1
 385 265 l 1,3,-1
 551 689 l 1,0,-1
EndSplineSet
Validated: 1
EndChar

StartChar: a
Encoding: 97 97 68
Width: 1481
Flags: W
HStem: -36 273<512 639.656> 0 21G<846.611 1308> 602 193<515.574 788> 1060 283<513.875 787.27>
VStem: 35 477<238.98 578.625> 113 399<895.219 1058.91> 788 477<237 602 782 1058.69>
LayerCount: 2
Fore
SplineSet
852 0 m 1,0,-1
 807 167 l 1,1,2
 781 116 781 116 741 78 c 128,-1,3
 701 40 701 40 652 14.5 c 128,-1,4
 603 -11 603 -11 548 -23.5 c 128,-1,5
 493 -36 493 -36 437 -36 c 0,6,7
 321 -36 321 -36 244 -1.5 c 128,-1,8
 167 33 167 33 120.5 89.5 c 128,-1,9
 74 146 74 146 54.5 218.5 c 128,-1,10
 35 291 35 291 35 368 c 0,11,12
 35 447 35 447 57.5 523.5 c 128,-1,13
 80 600 80 600 135.5 660.5 c 128,-1,14
 191 721 191 721 284.5 758 c 128,-1,15
 378 795 378 795 520 795 c 0,16,17
 580 795 580 795 649.5 792 c 128,-1,18
 719 789 719 789 788 782 c 1,19,-1
 788 1060 l 1,20,-1
 512 1060 l 1,21,-1
 512 893 l 1,22,-1
 138 894 l 1,23,24
 127 933 127 933 120 971 c 128,-1,25
 113 1009 113 1009 113 1044 c 0,26,27
 113 1104 113 1104 138.5 1158.5 c 128,-1,28
 164 1213 164 1213 226.5 1254 c 128,-1,29
 289 1295 289 1295 394.5 1319 c 128,-1,30
 500 1343 500 1343 661 1343 c 0,31,32
 806 1343 806 1343 907 1325 c 128,-1,33
 1008 1307 1008 1307 1075 1277 c 128,-1,34
 1142 1247 1142 1247 1180 1207.5 c 128,-1,35
 1218 1168 1218 1168 1237 1124.5 c 128,-1,36
 1256 1081 1256 1081 1260.5 1036.5 c 128,-1,37
 1265 992 1265 992 1265 952 c 2,38,-1
 1265 257 l 2,39,40
 1265 209 1265 209 1271.5 164 c 128,-1,41
 1278 119 1278 119 1286 82 c 0,42,43
 1291 60 1291 60 1296.5 40 c 128,-1,44
 1302 20 1302 20 1308 0 c 1,45,-1
 852 0 l 1,0,-1
512 602 m 1,46,-1
 512 237 l 1,47,-1
 788 237 l 1,48,-1
 788 602 l 1,49,-1
 512 602 l 1,46,-1
EndSplineSet
Validated: 1
EndChar

StartChar: b
Encoding: 98 98 69
Width: 1505
Flags: W
HStem: -37 274<717.462 833> 0 21G<80 496.509> 1060 284<701.33 833> 1690 20G<80 557>
VStem: 80 477<237 1060 1199 1710> 833 477<237.343 1059.12>
LayerCount: 2
Fore
SplineSet
557 1710 m 1,0,-1
 557 1199 l 1,1,2
 624 1271 624 1271 722.5 1307.5 c 128,-1,3
 821 1344 821 1344 935 1344 c 0,4,5
 1006 1344 1006 1344 1073.5 1321 c 128,-1,6
 1141 1298 1141 1298 1193.5 1250 c 128,-1,7
 1246 1202 1246 1202 1278 1128.5 c 128,-1,8
 1310 1055 1310 1055 1310 955 c 2,9,-1
 1310 377 l 2,10,11
 1310 272 1310 272 1277.5 194 c 128,-1,12
 1245 116 1245 116 1191.5 64.5 c 128,-1,13
 1138 13 1138 13 1069 -12 c 128,-1,14
 1000 -37 1000 -37 928 -37 c 0,15,16
 868 -37 868 -37 811 -24 c 128,-1,17
 754 -11 754 -11 703 14.5 c 128,-1,18
 652 40 652 40 609.5 78.5 c 128,-1,19
 567 117 567 117 537 167 c 1,20,-1
 491 0 l 1,21,-1
 80 0 l 1,22,-1
 80 1710 l 1,23,-1
 557 1710 l 1,0,-1
557 237 m 1,24,-1
 833 237 l 1,25,-1
 833 1060 l 1,26,-1
 557 1060 l 1,27,-1
 557 237 l 1,24,-1
EndSplineSet
Validated: 1
EndChar

StartChar: c
Encoding: 99 99 70
Width: 1479
Flags: W
HStem: -37 274<538.597 812.231> 1060 283<538.597 812.769>
VStem: 61 477<237.709 1059.94> 814 447<237.266 451 855 1058.99>
LayerCount: 2
Fore
SplineSet
1261 451 m 1,0,-1
 1261 354 l 2,1,2
 1261 315 1261 315 1258 270.5 c 128,-1,3
 1255 226 1255 226 1239 182.5 c 128,-1,4
 1223 139 1223 139 1187.5 99.5 c 128,-1,5
 1152 60 1152 60 1086.5 29.5 c 128,-1,6
 1021 -1 1021 -1 920.5 -19 c 128,-1,7
 820 -37 820 -37 673 -37 c 0,8,9
 523 -37 523 -37 419.5 -19 c 128,-1,10
 316 -1 316 -1 248 29 c 128,-1,11
 180 59 180 59 142 99 c 128,-1,12
 104 139 104 139 86 182 c 128,-1,13
 68 225 68 225 64.5 269.5 c 128,-1,14
 61 314 61 314 61 354 c 2,15,-1
 61 954 l 2,16,17
 61 994 61 994 64.5 1038 c 128,-1,18
 68 1082 68 1082 86 1125 c 128,-1,19
 104 1168 104 1168 142 1207.5 c 128,-1,20
 180 1247 180 1247 248 1277 c 128,-1,21
 316 1307 316 1307 419.5 1325 c 128,-1,22
 523 1343 523 1343 673 1343 c 0,23,24
 812 1343 812 1343 910 1327 c 128,-1,25
 1008 1311 1008 1311 1073 1283 c 128,-1,26
 1138 1255 1138 1255 1175.5 1219 c 128,-1,27
 1213 1183 1213 1183 1232 1142 c 128,-1,28
 1251 1101 1251 1101 1256 1059 c 128,-1,29
 1261 1017 1261 1017 1261 978 c 2,30,-1
 1261 855 l 1,31,-1
 814 855 l 1,32,-1
 814 1060 l 1,33,-1
 538 1060 l 1,34,-1
 538 237 l 1,35,-1
 814 237 l 1,36,-1
 814 451 l 1,37,-1
 1261 451 l 1,0,-1
EndSplineSet
Validated: 1
EndChar

StartChar: d
Encoding: 100 100 71
Width: 1505
Flags: W
HStem: -37 274<540 655.538> 0 21G<876.491 1293> 1060 284<540 671.67> 1690 20G<816 1293>
VStem: 63 477<237.343 1059.12> 816 477<237 1060 1199 1710>
LayerCount: 2
Fore
SplineSet
1293 1710 m 1,0,-1
 1293 0 l 1,1,-1
 882 0 l 1,2,-1
 836 167 l 1,3,4
 806 117 806 117 763.5 78.5 c 128,-1,5
 721 40 721 40 670 14.5 c 128,-1,6
 619 -11 619 -11 562 -24 c 128,-1,7
 505 -37 505 -37 445 -37 c 0,8,9
 373 -37 373 -37 304 -12 c 128,-1,10
 235 13 235 13 181.5 64.5 c 128,-1,11
 128 116 128 116 95.5 194 c 128,-1,12
 63 272 63 272 63 377 c 2,13,-1
 63 955 l 2,14,15
 63 1055 63 1055 95 1128.5 c 128,-1,16
 127 1202 127 1202 179.5 1250 c 128,-1,17
 232 1298 232 1298 299.5 1321 c 128,-1,18
 367 1344 367 1344 438 1344 c 0,19,20
 552 1344 552 1344 650.5 1307.5 c 128,-1,21
 749 1271 749 1271 816 1199 c 1,22,-1
 816 1710 l 1,23,-1
 1293 1710 l 1,0,-1
816 1060 m 1,24,-1
 540 1060 l 1,25,-1
 540 237 l 1,26,-1
 816 237 l 1,27,-1
 816 1060 l 1,24,-1
EndSplineSet
Validated: 1
EndChar

StartChar: e
Encoding: 101 101 72
Width: 1481
Flags: W
HStem: -36 273<558.799 790.551> 579 178<558 794> 1060 283<558.799 791.251>
VStem: 61 497<237.07 579 757 1059.94> 794 467<237.032 450 757 1059.66>
LayerCount: 2
Fore
SplineSet
1260 451 m 1,0,1
 1260 380 1260 380 1255.5 316.5 c 128,-1,2
 1251 253 1251 253 1232 198.5 c 128,-1,3
 1213 144 1213 144 1175.5 101 c 128,-1,4
 1138 58 1138 58 1073 27.5 c 128,-1,5
 1008 -3 1008 -3 910 -19.5 c 128,-1,6
 812 -36 812 -36 673 -36 c 0,7,8
 523 -36 523 -36 419.5 -18 c 128,-1,9
 316 0 316 0 248 30 c 128,-1,10
 180 60 180 60 142 99.5 c 128,-1,11
 104 139 104 139 86 182.5 c 128,-1,12
 68 226 68 226 64.5 270 c 128,-1,13
 61 314 61 314 61 354 c 2,14,-1
 61 954 l 2,15,16
 61 994 61 994 64.5 1038 c 128,-1,17
 68 1082 68 1082 86 1125 c 128,-1,18
 104 1168 104 1168 142 1207.5 c 128,-1,19
 180 1247 180 1247 248 1277 c 128,-1,20
 316 1307 316 1307 419.5 1325 c 128,-1,21
 523 1343 523 1343 673 1343 c 0,22,23
 813 1343 813 1343 911 1325 c 128,-1,24
 1009 1307 1009 1307 1074 1277 c 128,-1,25
 1139 1247 1139 1247 1176.5 1207.5 c 128,-1,26
 1214 1168 1214 1168 1233 1125 c 128,-1,27
 1252 1082 1252 1082 1256.5 1037.5 c 128,-1,28
 1261 993 1261 993 1261 954 c 2,29,-1
 1261 579 l 1,30,-1
 558 579 l 1,31,-1
 558 237 l 1,32,-1
 794 237 l 1,33,-1
 794 450 l 1,34,-1
 1260 451 l 1,0,1
558 757 m 1,35,-1
 794 757 l 1,36,-1
 794 1060 l 1,37,-1
 558 1060 l 1,38,-1
 558 757 l 1,35,-1
EndSplineSet
Validated: 1
EndChar

StartChar: f
Encoding: 102 102 73
Width: 1186
Flags: W
HStem: 0 21G<215 692> 1098 202<8 215 692 976> 1477 257<692 943.359> 1477 206<744.059 968>
VStem: 215 477<0 1098 1300 1476.59>
LayerCount: 2
Fore
SplineSet
215 1300 m 1,0,1
 215 1418 215 1418 246.5 1500.5 c 128,-1,2
 278 1583 278 1583 334.5 1635 c 128,-1,3
 391 1687 391 1687 469 1710.5 c 128,-1,4
 547 1734 547 1734 639 1734 c 0,5,6
 715 1734 715 1734 797.5 1720.5 c 128,-1,7
 880 1707 880 1707 968 1683 c 1,8,-1
 968 1477 l 1,9,-1
 692 1477 l 1,10,-1
 692 1300 l 1,11,-1
 976 1300 l 1,12,-1
 976 1098 l 1,13,-1
 692 1098 l 1,14,-1
 692 0 l 1,15,-1
 215 0 l 1,16,-1
 215 1098 l 1,17,-1
 8 1098 l 1,18,-1
 8 1300 l 1,19,-1
 215 1300 l 1,0,1
EndSplineSet
Validated: 1
EndChar

StartChar: g
Encoding: 103 103 74
Width: 1505
Flags: W
HStem: -587 299<539.373 814.527> -44 281<540 667.146> 1060 277<540 653.538> 1280 20G<876.491 1293>
VStem: 63 477<237.577 1059.99> 816 477<-216.926 101 237 1060>
LayerCount: 2
Fore
SplineSet
816 101 m 1,0,1
 783 66 783 66 740.5 39 c 128,-1,2
 698 12 698 12 649 -6.5 c 128,-1,3
 600 -25 600 -25 546.5 -34.5 c 128,-1,4
 493 -44 493 -44 438 -44 c 0,5,6
 367 -44 367 -44 299.5 -21 c 128,-1,7
 232 2 232 2 179.5 50 c 128,-1,8
 127 98 127 98 95 171 c 128,-1,9
 63 244 63 244 63 345 c 2,10,-1
 63 923 l 2,11,12
 63 1028 63 1028 95.5 1106 c 128,-1,13
 128 1184 128 1184 181.5 1235.5 c 128,-1,14
 235 1287 235 1287 304 1312 c 128,-1,15
 373 1337 373 1337 445 1337 c 0,16,17
 503 1337 503 1337 560 1324 c 128,-1,18
 617 1311 617 1311 668 1285.5 c 128,-1,19
 719 1260 719 1260 762.5 1221.5 c 128,-1,20
 806 1183 806 1183 836 1133 c 1,21,-1
 882 1300 l 1,22,-1
 1293 1300 l 1,23,-1
 1293 58 l 2,24,25
 1293 -59 1293 -59 1268.5 -152.5 c 128,-1,26
 1244 -246 1244 -246 1200.5 -318 c 128,-1,27
 1157 -390 1157 -390 1098.5 -441 c 128,-1,28
 1040 -492 1040 -492 971.5 -524.5 c 128,-1,29
 903 -557 903 -557 828.5 -572 c 128,-1,30
 754 -587 754 -587 679 -587 c 0,31,32
 611 -587 611 -587 545.5 -575 c 128,-1,33
 480 -563 480 -563 420.5 -540.5 c 128,-1,34
 361 -518 361 -518 311 -486 c 128,-1,35
 261 -454 261 -454 224 -414.5 c 128,-1,36
 187 -375 187 -375 166.5 -329 c 128,-1,37
 146 -283 146 -283 146 -232 c 0,38,39
 146 -210 146 -210 150 -196 c 128,-1,40
 154 -182 154 -182 163 -159 c 1,41,-1
 539 -171 l 1,42,-1
 539 -288 l 1,43,-1
 816 -288 l 1,44,-1
 816 101 l 1,0,1
816 1060 m 1,45,-1
 540 1060 l 1,46,-1
 540 237 l 1,47,-1
 816 237 l 1,48,-1
 816 1060 l 1,45,-1
EndSplineSet
Validated: 1
EndChar

StartChar: h
Encoding: 104 104 75
Width: 1520
Flags: W
HStem: 0 21G<80 557 833 1310> 1060 283<697.401 833> 1690 20G<80 557>
VStem: 80 477<0 1060 1188 1710> 833 477<0 1059.25>
LayerCount: 2
Fore
SplineSet
80 0 m 1,0,-1
 80 1710 l 1,1,-1
 557 1710 l 1,2,-1
 557 1188 l 1,3,4
 581 1225 581 1225 620 1254 c 128,-1,5
 659 1283 659 1283 708 1302.5 c 128,-1,6
 757 1322 757 1322 813 1332.5 c 128,-1,7
 869 1343 869 1343 928 1343 c 0,8,9
 998 1343 998 1343 1066.5 1321 c 128,-1,10
 1135 1299 1135 1299 1189 1253.5 c 128,-1,11
 1243 1208 1243 1208 1276.5 1137 c 128,-1,12
 1310 1066 1310 1066 1310 968 c 2,13,-1
 1310 0 l 1,14,-1
 833 0 l 1,15,-1
 833 1060 l 1,16,-1
 557 1060 l 1,17,-1
 557 0 l 1,18,-1
 80 0 l 1,0,-1
EndSplineSet
Validated: 1
EndChar

StartChar: i
Encoding: 105 105 76
Width: 780
Flags: W
HStem: 0 21G<80 557> 1280 20G<80 557> 1473 237<80 557>
VStem: 80 477<0 1300 1473 1710>
LayerCount: 2
Fore
SplineSet
557 0 m 1,0,-1
 80 0 l 1,1,-1
 80 1300 l 1,2,-1
 557 1300 l 1,3,-1
 557 0 l 1,0,-1
557 1710 m 1,4,-1
 557 1473 l 1,5,-1
 80 1473 l 1,6,-1
 80 1710 l 1,7,-1
 557 1710 l 1,4,-1
EndSplineSet
Validated: 1
EndChar

StartChar: j
Encoding: 106 106 77
Width: 780
Flags: W
HStem: -332 266<-214.541 -24> -285 219<-221 -24.125> 1280 20G<-24 453> 1473 237<-24 453>
VStem: -24 477<-63.5547 1300 1473 1710>
LayerCount: 2
Fore
SplineSet
-24 1300 m 1,0,-1
 453 1300 l 1,1,-1
 453 94 l 2,2,3
 453 -5 453 -5 423 -83.5 c 128,-1,4
 393 -162 393 -162 338 -217.5 c 128,-1,5
 283 -273 283 -273 206.5 -302.5 c 128,-1,6
 130 -332 130 -332 37 -332 c 0,7,8
 -23 -332 -23 -332 -87.5 -320.5 c 128,-1,9
 -152 -309 -152 -309 -221 -285 c 1,10,-1
 -221 -66 l 1,11,-1
 -24 -66 l 1,12,-1
 -24 1300 l 1,0,-1
453 1710 m 1,13,-1
 453 1473 l 1,14,-1
 -24 1473 l 1,15,-1
 -24 1710 l 1,16,-1
 453 1710 l 1,13,-1
EndSplineSet
Validated: 1
EndChar

StartChar: k
Encoding: 107 107 78
Width: 1612
Flags: W
HStem: 0 21G<80 557 822.948 1336> 1280 20G<787.252 1329> 1690 20G<80 557>
VStem: 80 477<0 348 888 1710>
LayerCount: 2
Fore
SplineSet
80 0 m 1,0,-1
 80 1710 l 1,1,-1
 557 1710 l 1,2,-1
 557 888 l 1,3,-1
 799 1300 l 1,4,-1
 1329 1300 l 1,5,-1
 1012 820 l 1,6,-1
 1336 0 l 1,7,-1
 830 0 l 1,8,-1
 659 485 l 1,9,-1
 557 348 l 1,10,-1
 557 0 l 1,11,-1
 80 0 l 1,0,-1
EndSplineSet
Validated: 1
EndChar

StartChar: l
Encoding: 108 108 79
Width: 780
Flags: W
HStem: 0 21G<80 557> 1690 20G<80 557>
VStem: 80 477<0 1710>
LayerCount: 2
Fore
SplineSet
557 0 m 1,0,-1
 80 0 l 1,1,-1
 80 1710 l 1,2,-1
 557 1710 l 1,3,-1
 557 0 l 1,0,-1
EndSplineSet
Validated: 1
EndChar

StartChar: m
Encoding: 109 109 80
Width: 2249
Flags: W
HStem: 0 21G<80 537 803 1260 1526 1983> 1060 284<697.052 803 1398.4 1526> 1280 20G<80 476.509>
VStem: 80 457<0 1060> 803 457<0 1060> 1526 457<0 1059.45>
CounterMasks: 1 1c
LayerCount: 2
Fore
SplineSet
80 0 m 1,0,-1
 80 1300 l 1,1,-1
 471 1300 l 1,2,-1
 517 1133 l 1,3,4
 543 1185 543 1185 585 1224.5 c 128,-1,5
 627 1264 627 1264 679 1290.5 c 128,-1,6
 731 1317 731 1317 789 1330.5 c 128,-1,7
 847 1344 847 1344 906 1344 c 0,8,9
 955 1344 955 1344 1002.5 1332.5 c 128,-1,10
 1050 1321 1050 1321 1092 1297.5 c 128,-1,11
 1134 1274 1134 1274 1169 1239 c 128,-1,12
 1204 1204 1204 1204 1228 1157 c 1,13,14
 1256 1203 1256 1203 1298.5 1238 c 128,-1,15
 1341 1273 1341 1273 1392 1296.5 c 128,-1,16
 1443 1320 1443 1320 1500 1332 c 128,-1,17
 1557 1344 1557 1344 1614 1344 c 0,18,19
 1683 1344 1683 1344 1749.5 1321 c 128,-1,20
 1816 1298 1816 1298 1868 1251 c 128,-1,21
 1920 1204 1920 1204 1951.5 1133.5 c 128,-1,22
 1983 1063 1983 1063 1983 968 c 2,23,-1
 1983 0 l 1,24,-1
 1526 0 l 1,25,-1
 1526 1060 l 1,26,-1
 1259 1060 l 1,27,28
 1260 1055 1260 1055 1260 1049.5 c 128,-1,29
 1260 1044 1260 1044 1260 1039 c 2,30,-1
 1260 0 l 1,31,-1
 803 0 l 1,32,-1
 803 1060 l 1,33,-1
 537 1060 l 1,34,-1
 537 0 l 1,35,-1
 80 0 l 1,0,-1
EndSplineSet
Validated: 1
EndChar

StartChar: n
Encoding: 110 110 81
Width: 1520
Flags: W
HStem: 0 21G<80 557 833 1310> 1060 284<717.082 833> 1280 20G<80 496.509>
VStem: 80 477<0 1060> 833 477<0 1059.59>
LayerCount: 2
Fore
SplineSet
80 0 m 1,0,-1
 80 1300 l 1,1,-1
 491 1300 l 1,2,-1
 537 1133 l 1,3,4
 563 1185 563 1185 605 1224.5 c 128,-1,5
 647 1264 647 1264 699 1290.5 c 128,-1,6
 751 1317 751 1317 810 1330.5 c 128,-1,7
 869 1344 869 1344 930 1344 c 0,8,9
 1001 1344 1001 1344 1069.5 1321 c 128,-1,10
 1138 1298 1138 1298 1191.5 1251.5 c 128,-1,11
 1245 1205 1245 1205 1277.5 1134 c 128,-1,12
 1310 1063 1310 1063 1310 968 c 2,13,-1
 1310 0 l 1,14,-1
 833 0 l 1,15,-1
 833 1060 l 1,16,-1
 557 1060 l 1,17,-1
 557 0 l 1,18,-1
 80 0 l 1,0,-1
EndSplineSet
Validated: 1
EndChar

StartChar: o
Encoding: 111 111 82
Width: 1487
Flags: W
HStem: -39 276<539.41 811.69> 1060 283<539.41 811.69>
VStem: 61 477<237.083 1058.69> 814 477<237.083 1058.69>
LayerCount: 2
Fore
SplineSet
538 237 m 1,0,-1
 814 237 l 1,1,-1
 814 1060 l 1,2,-1
 538 1060 l 1,3,-1
 538 237 l 1,0,-1
682 -39 m 0,4,5
 532 -39 532 -39 427.5 -21 c 128,-1,6
 323 -3 323 -3 254 27 c 128,-1,7
 185 57 185 57 146.5 97 c 128,-1,8
 108 137 108 137 89 180 c 128,-1,9
 70 223 70 223 65.5 267.5 c 128,-1,10
 61 312 61 312 61 352 c 2,11,-1
 61 952 l 2,12,13
 61 992 61 992 65.5 1036.5 c 128,-1,14
 70 1081 70 1081 89 1124.5 c 128,-1,15
 108 1168 108 1168 146.5 1207.5 c 128,-1,16
 185 1247 185 1247 254 1277 c 128,-1,17
 323 1307 323 1307 427.5 1325 c 128,-1,18
 532 1343 532 1343 682 1343 c 0,19,20
 831 1343 831 1343 934.5 1325 c 128,-1,21
 1038 1307 1038 1307 1105.5 1277 c 128,-1,22
 1173 1247 1173 1247 1210.5 1207.5 c 128,-1,23
 1248 1168 1248 1168 1266 1124.5 c 128,-1,24
 1284 1081 1284 1081 1287.5 1036.5 c 128,-1,25
 1291 992 1291 992 1291 952 c 2,26,-1
 1291 352 l 2,27,28
 1291 312 1291 312 1287.5 267.5 c 128,-1,29
 1284 223 1284 223 1266 180 c 128,-1,30
 1248 137 1248 137 1210.5 97 c 128,-1,31
 1173 57 1173 57 1105.5 27 c 128,-1,32
 1038 -3 1038 -3 934.5 -21 c 128,-1,33
 831 -39 831 -39 682 -39 c 0,4,5
EndSplineSet
Validated: 1
EndChar

StartChar: p
Encoding: 112 112 83
Width: 1503
Flags: W
HStem: -408 21G<80 557> -44 280<705.854 833> 1060 277<718.462 833> 1280 20G<80 496.509>
VStem: 80 477<-408 101 236 1060> 833 477<237.577 1059.99>
LayerCount: 2
Fore
SplineSet
80 -408 m 1,0,-1
 80 1300 l 1,1,-1
 491 1300 l 1,2,-1
 537 1133 l 1,3,4
 567 1183 567 1183 610 1221.5 c 128,-1,5
 653 1260 653 1260 704 1285.5 c 128,-1,6
 755 1311 755 1311 812 1324 c 128,-1,7
 869 1337 869 1337 928 1337 c 0,8,9
 1000 1337 1000 1337 1069 1312 c 128,-1,10
 1138 1287 1138 1287 1191.5 1235.5 c 128,-1,11
 1245 1184 1245 1184 1277.5 1106 c 128,-1,12
 1310 1028 1310 1028 1310 923 c 2,13,-1
 1310 345 l 2,14,15
 1310 244 1310 244 1278 171 c 128,-1,16
 1246 98 1246 98 1193.5 50 c 128,-1,17
 1141 2 1141 2 1073.5 -21 c 128,-1,18
 1006 -44 1006 -44 935 -44 c 0,19,20
 880 -44 880 -44 826.5 -34.5 c 128,-1,21
 773 -25 773 -25 724 -6.5 c 128,-1,22
 675 12 675 12 632.5 39 c 128,-1,23
 590 66 590 66 557 101 c 1,24,-1
 557 -408 l 1,25,-1
 80 -408 l 1,0,-1
557 236 m 1,26,-1
 833 236 l 1,27,-1
 833 1060 l 1,28,-1
 557 1060 l 1,29,-1
 557 236 l 1,26,-1
EndSplineSet
Validated: 1
EndChar

StartChar: q
Encoding: 113 113 84
Width: 1481
Flags: W
HStem: -408 21G<816 1293> -44 281<540 667.146> 1060 277<540 654.528> 1280 20G<876.491 1293>
VStem: 63 477<237.577 1059.99> 816 477<-408 101 237 1060>
LayerCount: 2
Fore
SplineSet
816 -408 m 1,0,-1
 816 101 l 1,1,2
 783 66 783 66 740.5 39 c 128,-1,3
 698 12 698 12 649 -6.5 c 128,-1,4
 600 -25 600 -25 546.5 -34.5 c 128,-1,5
 493 -44 493 -44 438 -44 c 0,6,7
 367 -44 367 -44 299.5 -21 c 128,-1,8
 232 2 232 2 179.5 50 c 128,-1,9
 127 98 127 98 95 171 c 128,-1,10
 63 244 63 244 63 345 c 2,11,-1
 63 923 l 2,12,13
 63 1028 63 1028 95.5 1106 c 128,-1,14
 128 1184 128 1184 181.5 1235.5 c 128,-1,15
 235 1287 235 1287 304 1312 c 128,-1,16
 373 1337 373 1337 445 1337 c 0,17,18
 503 1337 503 1337 560.5 1324 c 128,-1,19
 618 1311 618 1311 669 1285.5 c 128,-1,20
 720 1260 720 1260 763 1221.5 c 128,-1,21
 806 1183 806 1183 836 1133 c 1,22,-1
 882 1300 l 1,23,-1
 1293 1300 l 1,24,-1
 1293 -408 l 1,25,-1
 816 -408 l 1,0,-1
816 1060 m 1,26,-1
 540 1060 l 1,27,-1
 540 237 l 1,28,-1
 816 237 l 1,29,-1
 816 1060 l 1,26,-1
EndSplineSet
Validated: 1
EndChar

StartChar: r
Encoding: 114 114 85
Width: 1014
Flags: W
HStem: 0 21G<80 557> 1280 20G<80 466.463 817.5 835>
VStem: 80 477<0 869>
LayerCount: 2
Fore
SplineSet
80 0 m 1,0,-1
 80 1300 l 1,1,-1
 461 1300 l 1,2,-1
 517 1095 l 1,3,4
 532 1171 532 1171 570.5 1219 c 128,-1,5
 609 1267 609 1267 656 1294 c 128,-1,6
 703 1321 703 1321 751.5 1331 c 128,-1,7
 800 1341 800 1341 835 1343 c 1,8,-1
 835 949 l 1,9,-1
 557 869 l 1,10,-1
 557 0 l 1,11,-1
 80 0 l 1,0,-1
EndSplineSet
Validated: 1
EndChar

StartChar: s
Encoding: 115 115 86
Width: 1425
Flags: W
HStem: -36 273<510.642 780.095> 1060 283<508.422 780.694>
VStem: 31 477<879.791 1059.25> 784 477<237.18 428.626>
LayerCount: 2
Fore
SplineSet
784 404 m 2,0,1
 784 416 784 416 751.5 425.5 c 128,-1,2
 719 435 719 435 666 445.5 c 128,-1,3
 613 456 613 456 545.5 470.5 c 128,-1,4
 478 485 478 485 407.5 507.5 c 128,-1,5
 337 530 337 530 269.5 563 c 128,-1,6
 202 596 202 596 149 644.5 c 128,-1,7
 96 693 96 693 63.5 758.5 c 128,-1,8
 31 824 31 824 31 912 c 0,9,10
 31 976 31 976 41 1033 c 128,-1,11
 51 1090 51 1090 76.5 1138.5 c 128,-1,12
 102 1187 102 1187 147 1225 c 128,-1,13
 192 1263 192 1263 262 1289.5 c 128,-1,14
 332 1316 332 1316 430 1330 c 128,-1,15
 528 1344 528 1344 661 1343 c 256,16,17
 794 1342 794 1342 888 1329.5 c 128,-1,18
 982 1317 982 1317 1045.5 1294.5 c 128,-1,19
 1109 1272 1109 1272 1146.5 1240 c 128,-1,20
 1184 1208 1184 1208 1203.5 1167.5 c 128,-1,21
 1223 1127 1223 1127 1228.5 1078.5 c 128,-1,22
 1234 1030 1234 1030 1234 975 c 2,23,-1
 1234 889 l 1,24,-1
 784 919 l 1,25,-1
 784 1060 l 1,26,-1
 508 1060 l 1,27,-1
 508 907 l 2,28,29
 508 894 508 894 540.5 883 c 128,-1,30
 573 872 573 872 626 860 c 128,-1,31
 679 848 679 848 746.5 832 c 128,-1,32
 814 816 814 816 884.5 792.5 c 128,-1,33
 955 769 955 769 1022.5 735.5 c 128,-1,34
 1090 702 1090 702 1143 655.5 c 128,-1,35
 1196 609 1196 609 1228.5 546 c 128,-1,36
 1261 483 1261 483 1261 401 c 0,37,38
 1261 288 1261 288 1235.5 205 c 128,-1,39
 1210 122 1210 122 1141 67.5 c 128,-1,40
 1072 13 1072 13 950 -12.5 c 128,-1,41
 828 -38 828 -38 635 -36 c 0,42,43
 505 -35 505 -35 411.5 -22 c 128,-1,44
 318 -9 318 -9 254 14.5 c 128,-1,45
 190 38 190 38 152 70.5 c 128,-1,46
 114 103 114 103 94 143.5 c 128,-1,47
 74 184 74 184 67.5 232.5 c 128,-1,48
 61 281 61 281 61 335 c 2,49,-1
 61 413 l 1,50,-1
 508 378 l 1,51,-1
 508 237 l 1,52,-1
 784 237 l 1,53,-1
 784 404 l 2,0,1
EndSplineSet
Validated: 33
EndChar

StartChar: t
Encoding: 116 116 87
Width: 954
Flags: W
HStem: 0 21G<159 636> 1100 200<16 159 636 800> 1575 20G<159 636>
VStem: 159 477<0 1100 1300 1595>
LayerCount: 2
Fore
SplineSet
636 0 m 1,0,-1
 159 0 l 1,1,-1
 159 1100 l 1,2,-1
 16 1100 l 1,3,-1
 16 1300 l 1,4,-1
 159 1300 l 1,5,-1
 159 1595 l 1,6,-1
 636 1595 l 1,7,-1
 636 1300 l 1,8,-1
 800 1300 l 1,9,-1
 800 1100 l 1,10,-1
 636 1100 l 1,11,-1
 636 0 l 1,0,-1
EndSplineSet
Validated: 1
EndChar

StartChar: u
Encoding: 117 117 88
Width: 1520
Flags: W
HStem: -44 281<555 670.918> 0 21G<891.491 1308>
VStem: 78 477<237.836 1300> 831 477<237 1300>
LayerCount: 2
Fore
SplineSet
1308 1300 m 1,0,-1
 1308 0 l 1,1,-1
 897 0 l 1,2,-1
 851 167 l 1,3,4
 825 115 825 115 783 75.5 c 128,-1,5
 741 36 741 36 689 9.5 c 128,-1,6
 637 -17 637 -17 578 -30.5 c 128,-1,7
 519 -44 519 -44 458 -44 c 0,8,9
 387 -44 387 -44 318.5 -21 c 128,-1,10
 250 2 250 2 196.5 48.5 c 128,-1,11
 143 95 143 95 110.5 166 c 128,-1,12
 78 237 78 237 78 332 c 2,13,-1
 78 1300 l 1,14,-1
 555 1300 l 1,15,-1
 555 237 l 1,16,-1
 831 237 l 1,17,-1
 831 1300 l 1,18,-1
 1308 1300 l 1,0,-1
EndSplineSet
Validated: 1
EndChar

StartChar: v
Encoding: 118 118 89
Width: 1375
Flags: W
HStem: 0 21G<299.2 918.785> 1280 20G<-8 441.13 774.833 1225>
LayerCount: 2
Fore
SplineSet
-8 1300 m 1,0,-1
 438 1300 l 1,1,-1
 607 220 l 1,2,-1
 778 1300 l 1,3,-1
 1225 1300 l 1,4,-1
 914 0 l 1,5,-1
 304 0 l 1,6,-1
 -8 1300 l 1,0,-1
EndSplineSet
Validated: 1
EndChar

StartChar: w
Encoding: 119 119 90
Width: 2040
Flags: W
HStem: 0 21G<228.062 768.56 1083.4 1628.09> 1280 20G<-24 433.34 723.42 1132.54 1431.44 1890>
LayerCount: 2
Fore
SplineSet
925 899 m 1,0,-1
 765 0 l 1,1,-1
 232 0 l 1,2,-1
 -24 1300 l 1,3,-1
 431 1300 l 1,4,-1
 548 300 l 1,5,-1
 727 1300 l 1,6,-1
 1129 1300 l 1,7,-1
 1306 300 l 1,8,-1
 1434 1300 l 1,9,-1
 1890 1300 l 1,10,-1
 1624 0 l 1,11,-1
 1087 0 l 1,12,-1
 925 899 l 1,0,-1
EndSplineSet
Validated: 1
EndChar

StartChar: x
Encoding: 120 120 91
Width: 1364
Flags: W
HStem: 0 21G<-18 412.049 741.951 1172> 1280 20G<-18 415.494 737.55 1172>
LayerCount: 2
Fore
SplineSet
-18 0 m 1,0,-1
 299 682 l 1,1,-1
 -18 1300 l 1,2,-1
 408 1300 l 1,3,-1
 577 849 l 1,4,-1
 745 1300 l 1,5,-1
 1172 1300 l 1,6,-1
 855 682 l 1,7,-1
 1172 0 l 1,8,-1
 749 0 l 1,9,-1
 577 488 l 1,10,-1
 405 0 l 1,11,-1
 -18 0 l 1,0,-1
EndSplineSet
Validated: 1
EndChar

StartChar: y
Encoding: 121 121 92
Width: 1520
Flags: W
HStem: -587 352<555.455 830.275> -44 281<555 682.164>
VStem: 78 477<237.577 1300> 831 477<-216.926 101 237 1300>
LayerCount: 2
Fore
SplineSet
555 237 m 1,0,-1
 831 237 l 1,1,-1
 831 1300 l 1,2,-1
 1308 1300 l 1,3,-1
 1308 58 l 2,4,5
 1308 -59 1308 -59 1283.5 -152.5 c 128,-1,6
 1259 -246 1259 -246 1215.5 -318 c 128,-1,7
 1172 -390 1172 -390 1113 -441 c 128,-1,8
 1054 -492 1054 -492 985.5 -524.5 c 128,-1,9
 917 -557 917 -557 842 -572 c 128,-1,10
 767 -587 767 -587 691 -587 c 0,11,12
 623 -587 623 -587 557.5 -575 c 128,-1,13
 492 -563 492 -563 432.5 -540.5 c 128,-1,14
 373 -518 373 -518 323 -486 c 128,-1,15
 273 -454 273 -454 236 -414.5 c 128,-1,16
 199 -375 199 -375 178.5 -329 c 128,-1,17
 158 -283 158 -283 158 -232 c 0,18,19
 158 -210 158 -210 162 -187 c 128,-1,20
 166 -164 166 -164 175 -141 c 1,21,-1
 554 -171 l 1,22,-1
 554 -235 l 1,23,-1
 832 -235 l 1,24,-1
 832 101 l 1,25,26
 799 66 799 66 756 39 c 128,-1,27
 713 12 713 12 664 -6.5 c 128,-1,28
 615 -25 615 -25 561.5 -34.5 c 128,-1,29
 508 -44 508 -44 453 -44 c 0,30,31
 382 -44 382 -44 314.5 -21 c 128,-1,32
 247 2 247 2 194.5 50 c 128,-1,33
 142 98 142 98 110 171 c 128,-1,34
 78 244 78 244 78 345 c 2,35,-1
 78 1300 l 1,36,-1
 555 1300 l 1,37,-1
 555 237 l 1,0,-1
EndSplineSet
Validated: 1
EndChar

StartChar: z
Encoding: 122 122 93
Width: 1122
Flags: W
HStem: 0 246<597 925> 1051 249<59 362>
LayerCount: 2
Fore
SplineSet
59 1300 m 1,0,-1
 919 1300 l 1,1,-1
 919 1079 l 1,2,-1
 597 246 l 1,3,-1
 925 246 l 1,4,-1
 925 0 l 1,5,-1
 37 0 l 1,6,-1
 37 233 l 1,7,-1
 362 1051 l 1,8,-1
 59 1051 l 1,9,-1
 59 1300 l 1,0,-1
EndSplineSet
Validated: 1
EndChar

StartChar: braceleft
Encoding: 123 123 94
Width: 1057
Flags: W
HStem: -330 279<778.499 958> 1646 279<778.083 958>
LayerCount: 2
Fore
SplineSet
694 1348 m 0,0,1
 681 1242 681 1242 675 1156.5 c 128,-1,2
 669 1071 669 1071 659 1003.5 c 128,-1,3
 649 936 649 936 629.5 885 c 128,-1,4
 610 834 610 834 569 797 c 1,5,6
 609 760 609 760 629 709.5 c 128,-1,7
 649 659 649 659 659 591.5 c 128,-1,8
 669 524 669 524 675 438.5 c 128,-1,9
 681 353 681 353 694 247 c 0,10,11
 708 136 708 136 730 76 c 128,-1,12
 752 16 752 16 784.5 -12.5 c 128,-1,13
 817 -41 817 -41 859.5 -46 c 128,-1,14
 902 -51 902 -51 958 -51 c 1,15,-1
 958 -330 l 1,16,17
 853 -330 853 -330 760 -323 c 128,-1,18
 667 -316 667 -316 587.5 -292.5 c 128,-1,19
 508 -269 508 -269 442.5 -223.5 c 128,-1,20
 377 -178 377 -178 326 -100.5 c 128,-1,21
 275 -23 275 -23 239 91.5 c 128,-1,22
 203 206 203 206 183 367 c 0,23,24
 174 439 174 439 166.5 489 c 128,-1,25
 159 539 159 539 150.5 571 c 128,-1,26
 142 603 142 603 131.5 621 c 128,-1,27
 121 639 121 639 105 647 c 128,-1,28
 89 655 89 655 66.5 656.5 c 128,-1,29
 44 658 44 658 12 658 c 1,30,-1
 12 937 l 1,31,32
 44 937 44 937 66.5 938.5 c 128,-1,33
 89 940 89 940 105 948 c 128,-1,34
 121 956 121 956 131.5 974 c 128,-1,35
 142 992 142 992 150.5 1024 c 128,-1,36
 159 1056 159 1056 166.5 1106 c 128,-1,37
 174 1156 174 1156 183 1228 c 0,38,39
 203 1389 203 1389 239 1503.5 c 128,-1,40
 275 1618 275 1618 326 1695.5 c 128,-1,41
 377 1773 377 1773 442.5 1818.5 c 128,-1,42
 508 1864 508 1864 587.5 1887.5 c 128,-1,43
 667 1911 667 1911 760 1918 c 128,-1,44
 853 1925 853 1925 958 1925 c 1,45,-1
 958 1646 l 1,46,47
 902 1646 902 1646 859 1641 c 128,-1,48
 816 1636 816 1636 784 1607.5 c 128,-1,49
 752 1579 752 1579 729.5 1519 c 128,-1,50
 707 1459 707 1459 694 1348 c 0,0,1
EndSplineSet
Validated: 1
EndChar

StartChar: bar
Encoding: 124 124 95
Width: 862
Flags: W
VStem: 92 574<-100 1795>
LayerCount: 2
Fore
SplineSet
666 1795 m 1,0,-1
 666 -100 l 1,1,-1
 92 -100 l 1,2,-1
 92 1795 l 1,3,-1
 666 1795 l 1,0,-1
EndSplineSet
Validated: 1
EndChar

StartChar: braceright
Encoding: 125 125 96
Width: 1057
Flags: W
HStem: -330 279<-68 110.917> 1646 279<-68 111.501>
LayerCount: 2
Fore
SplineSet
196 1348 m 0,0,1
 182 1459 182 1459 160 1519 c 128,-1,2
 138 1579 138 1579 105.5 1607.5 c 128,-1,3
 73 1636 73 1636 30 1641 c 128,-1,4
 -13 1646 -13 1646 -68 1646 c 1,5,-1
 -68 1925 l 1,6,7
 36 1925 36 1925 128.5 1918 c 128,-1,8
 221 1911 221 1911 300.5 1887.5 c 128,-1,9
 380 1864 380 1864 446 1818.5 c 128,-1,10
 512 1773 512 1773 563.5 1695.5 c 128,-1,11
 615 1618 615 1618 651 1503.5 c 128,-1,12
 687 1389 687 1389 707 1228 c 0,13,14
 716 1156 716 1156 723 1106 c 128,-1,15
 730 1056 730 1056 738.5 1024 c 128,-1,16
 747 992 747 992 757.5 974 c 128,-1,17
 768 956 768 956 784 948 c 128,-1,18
 800 940 800 940 822.5 938.5 c 128,-1,19
 845 937 845 937 878 937 c 1,20,-1
 878 658 l 1,21,22
 845 658 845 658 822.5 656.5 c 128,-1,23
 800 655 800 655 784 647 c 128,-1,24
 768 639 768 639 757.5 621 c 128,-1,25
 747 603 747 603 738.5 571 c 128,-1,26
 730 539 730 539 723 489 c 128,-1,27
 716 439 716 439 707 367 c 0,28,29
 687 206 687 206 651 91.5 c 128,-1,30
 615 -23 615 -23 563.5 -100.5 c 128,-1,31
 512 -178 512 -178 446 -223.5 c 128,-1,32
 380 -269 380 -269 300.5 -292.5 c 128,-1,33
 221 -316 221 -316 128.5 -323 c 128,-1,34
 36 -330 36 -330 -68 -330 c 1,35,-1
 -68 -51 l 1,36,37
 -13 -51 -13 -51 30 -46 c 128,-1,38
 73 -41 73 -41 105 -12.5 c 128,-1,39
 137 16 137 16 159.5 76 c 128,-1,40
 182 136 182 136 196 247 c 0,41,42
 209 353 209 353 215 438.5 c 128,-1,43
 221 524 221 524 231 591.5 c 128,-1,44
 241 659 241 659 260.5 709.5 c 128,-1,45
 280 760 280 760 321 797 c 1,46,47
 280 834 280 834 260.5 885 c 128,-1,48
 241 936 241 936 231 1003.5 c 128,-1,49
 221 1071 221 1071 215 1156.5 c 128,-1,50
 209 1242 209 1242 196 1348 c 0,0,1
EndSplineSet
Validated: 1
EndChar

StartChar: asciitilde
Encoding: 126 126 97
Width: 1456
Flags: W
HStem: 616 443<337.534 504.094> 806 446<747.9 907.026>
VStem: 43 268<1082.08 1227> 934 269<642 781.985>
LayerCount: 2
Fore
SplineSet
835 806 m 0,0,1
 810 806 810 806 788.5 792 c 128,-1,2
 767 778 767 778 742.5 757 c 128,-1,3
 718 736 718 736 689 711 c 128,-1,4
 660 686 660 686 621 665 c 128,-1,5
 582 644 582 644 530.5 630 c 128,-1,6
 479 616 479 616 410 616 c 0,7,8
 321 616 321 616 252.5 642 c 128,-1,9
 184 668 184 668 137.5 736 c 128,-1,10
 91 804 91 804 67 922.5 c 128,-1,11
 43 1041 43 1041 43 1227 c 1,12,-1
 311 1227 l 1,13,14
 311 1194 311 1194 316 1163.5 c 128,-1,15
 321 1133 321 1133 333 1110 c 128,-1,16
 345 1087 345 1087 364 1073 c 128,-1,17
 383 1059 383 1059 412 1059 c 0,18,19
 437 1059 437 1059 461 1073.5 c 128,-1,20
 485 1088 485 1088 511 1109 c 128,-1,21
 537 1130 537 1130 567.5 1155.5 c 128,-1,22
 598 1181 598 1181 637 1202 c 128,-1,23
 676 1223 676 1223 724.5 1237.5 c 128,-1,24
 773 1252 773 1252 835 1252 c 0,25,26
 924 1252 924 1252 993 1226.5 c 128,-1,27
 1062 1201 1062 1201 1108.5 1133 c 128,-1,28
 1155 1065 1155 1065 1179 946.5 c 128,-1,29
 1203 828 1203 828 1203 642 c 1,30,-1
 934 642 l 1,31,32
 934 670 934 670 929 699 c 128,-1,33
 924 728 924 728 912.5 752 c 128,-1,34
 901 776 901 776 882 791 c 128,-1,35
 863 806 863 806 835 806 c 0,0,1
EndSplineSet
Validated: 1
EndChar

StartChar: euro
Encoding: 8364 8364 98
Width: 1622
Flags: W
HStem: -39 276<701.125 936.623> 553 173<41 183 701 1071> 814 176<41 183 701 1071> 1408 224<701.125 936.623>
VStem: 183 518<237.058 553 726 814 990 1395.07> 937 457<237.329 473 1120 1407.23>
LayerCount: 2
Fore
SplineSet
183 814 m 1,0,-1
 41 814 l 1,1,-1
 41 990 l 1,2,-1
 183 990 l 1,3,-1
 183 1014 l 2,4,5
 183 1132 183 1132 191 1224 c 128,-1,6
 199 1316 199 1316 223.5 1384.5 c 128,-1,7
 248 1453 248 1453 292.5 1500.5 c 128,-1,8
 337 1548 337 1548 409.5 1577 c 128,-1,9
 482 1606 482 1606 586.5 1619 c 128,-1,10
 691 1632 691 1632 836 1632 c 0,11,12
 973 1632 973 1632 1068 1614.5 c 128,-1,13
 1163 1597 1163 1597 1225 1567.5 c 128,-1,14
 1287 1538 1287 1538 1321 1499.5 c 128,-1,15
 1355 1461 1355 1461 1371.5 1418 c 128,-1,16
 1388 1375 1388 1375 1391 1331 c 128,-1,17
 1394 1287 1394 1287 1394 1247 c 2,18,-1
 1394 1120 l 1,19,-1
 937 1120 l 1,20,-1
 937 1408 l 1,21,-1
 701 1408 l 1,22,-1
 701 990 l 1,23,-1
 1071 990 l 1,24,-1
 1071 814 l 1,25,-1
 701 814 l 1,26,-1
 701 726 l 1,27,-1
 1071 726 l 1,28,-1
 1071 553 l 1,29,-1
 701 553 l 1,30,-1
 701 237 l 1,31,-1
 937 237 l 1,32,-1
 937 473 l 1,33,-1
 1394 473 l 1,34,-1
 1394 346 l 2,35,36
 1394 306 1394 306 1391 262 c 128,-1,37
 1388 218 1388 218 1371.5 175 c 128,-1,38
 1355 132 1355 132 1321 93.5 c 128,-1,39
 1287 55 1287 55 1225 25.5 c 128,-1,40
 1163 -4 1163 -4 1068 -21.5 c 128,-1,41
 973 -39 973 -39 836 -39 c 0,42,43
 691 -39 691 -39 586.5 -27 c 128,-1,44
 482 -15 482 -15 409.5 12 c 128,-1,45
 337 39 337 39 292.5 82.5 c 128,-1,46
 248 126 248 126 223.5 189 c 128,-1,47
 199 252 199 252 191 336.5 c 128,-1,48
 183 421 183 421 183 529 c 2,49,-1
 183 553 l 1,50,-1
 41 553 l 1,51,-1
 41 726 l 1,52,-1
 183 726 l 1,53,-1
 183 814 l 1,0,-1
EndSplineSet
Validated: 1
EndChar

StartChar: florin
Encoding: 402 402 100
Width: 1204
Flags: W
HStem: -434 257<-140.102 38> -383 206<-141 38> 998 202<2 166 717 978> 1377 254<736 1012>
LayerCount: 2
Fore
SplineSet
583 -17 m 2,0,1
 571 -131 571 -131 532.5 -210.5 c 128,-1,2
 494 -290 494 -290 435.5 -339.5 c 128,-1,3
 377 -389 377 -389 301 -411.5 c 128,-1,4
 225 -434 225 -434 138 -434 c 0,5,6
 68 -434 68 -434 -8 -420.5 c 128,-1,7
 -84 -407 -84 -407 -162 -383 c 1,8,-1
 -141 -177 l 1,9,-1
 38 -177 l 1,10,-1
 166 998 l 1,11,-1
 -21 998 l 1,12,-1
 2 1200 l 1,13,-1
 189 1200 l 1,14,-1
 191 1217 l 2,15,16
 203 1320 203 1320 233 1398 c 128,-1,17
 263 1476 263 1476 322 1527.5 c 128,-1,18
 381 1579 381 1579 474.5 1605 c 128,-1,19
 568 1631 568 1631 708 1631 c 0,20,21
 802 1631 802 1631 863.5 1623.5 c 128,-1,22
 925 1616 925 1616 964 1606 c 0,23,24
 983 1601 983 1601 1001 1596 c 128,-1,25
 1019 1591 1019 1591 1033 1583 c 1,26,-1
 1012 1377 l 1,27,-1
 736 1377 l 1,28,-1
 717 1200 l 1,29,-1
 999 1200 l 1,30,-1
 978 998 l 1,31,-1
 694 998 l 1,32,-1
 583 -17 l 2,0,1
EndSplineSet
Validated: 1
EndChar

StartChar: quotedblbase
Encoding: 8222 8222 101
Width: 1255
Flags: W
HStem: -507 806<132 420 660 948>
VStem: 132 288<-507 -371.061> 660 288<-507 -371.061>
LayerCount: 2
Fore
SplineSet
420 -507 m 1,0,-1
 132 -507 l 1,1,-1
 47 299 l 1,2,-1
 505 299 l 1,3,-1
 420 -507 l 1,0,-1
948 -507 m 1,4,-1
 660 -507 l 1,5,-1
 575 299 l 1,6,-1
 1033 299 l 1,7,-1
 948 -507 l 1,4,-1
EndSplineSet
Validated: 1
EndChar

StartChar: ellipsis
Encoding: 8230 8230 102
Width: 2068
Flags: W
HStem: 0 467<74 532 662 1120 1249 1707>
VStem: 74 458<0 467> 662 458<0 467> 1249 458<0 467>
LayerCount: 2
Fore
SplineSet
532 0 m 1,0,-1
 74 0 l 1,1,-1
 74 467 l 1,2,-1
 532 467 l 1,3,-1
 532 0 l 1,0,-1
1120 0 m 1,4,-1
 662 0 l 1,5,-1
 662 467 l 1,6,-1
 1120 467 l 1,7,-1
 1120 0 l 1,4,-1
1707 0 m 1,8,-1
 1249 0 l 1,9,-1
 1249 467 l 1,10,-1
 1707 467 l 1,11,-1
 1707 0 l 1,8,-1
EndSplineSet
Validated: 1
EndChar

StartChar: dagger
Encoding: 8224 8224 103
Width: 1323
Flags: W
HStem: 0 21G<304 825> 900 400<41 304 825 1097> 1575 20G<317 825>
VStem: 304 521<0 900 1300 1595>
LayerCount: 2
Fore
SplineSet
825 0 m 1,0,-1
 304 0 l 1,1,-1
 304 900 l 1,2,-1
 41 900 l 1,3,-1
 41 1300 l 1,4,-1
 317 1300 l 1,5,-1
 317 1595 l 1,6,-1
 825 1595 l 1,7,-1
 825 1300 l 1,8,-1
 1097 1300 l 1,9,-1
 1097 900 l 1,10,-1
 825 900 l 1,11,-1
 825 0 l 1,0,-1
EndSplineSet
Validated: 1
EndChar

StartChar: daggerdbl
Encoding: 8225 8225 104
Width: 1352
Flags: W
HStem: 0 21G<319 839> 295 400<55 319 839 1111> 900 400<55 319 839 1111> 1575 20G<319 839>
VStem: 55 1056<295 695 900 1300> 319 520<0 295 695 900 1300 1595>
LayerCount: 2
Fore
SplineSet
839 695 m 1,0,-1
 1111 695 l 1,1,-1
 1111 295 l 1,2,-1
 839 295 l 1,3,-1
 839 0 l 1,4,-1
 319 0 l 1,5,-1
 319 295 l 1,6,-1
 55 295 l 1,7,-1
 55 695 l 1,8,-1
 319 695 l 1,9,-1
 319 900 l 1,10,-1
 55 900 l 1,11,-1
 55 1300 l 1,12,-1
 319 1300 l 1,13,-1
 319 1595 l 1,14,-1
 839 1595 l 1,15,-1
 839 1300 l 1,16,-1
 1111 1300 l 1,17,-1
 1111 900 l 1,18,-1
 839 900 l 1,19,-1
 839 695 l 1,0,-1
EndSplineSet
Validated: 1
EndChar

StartChar: circumflex
Encoding: 710 710 105
Width: 1706
Flags: W
HStem: 61 615<38 226 382 561>
LayerCount: 2
Fore
SplineSet
1084 676 m 1,0,-1
 1340 61 l 1,1,-1
 905 61 l 1,2,-1
 825 381 l 1,3,-1
 749 61 l 1,4,-1
 315 61 l 1,5,-1
 561 676 l 1,6,-1
 1084 676 l 1,0,-1
EndSplineSet
Validated: 1
EndChar

StartChar: perthousand
Encoding: 8240 8240 106
Width: 4059
Flags: W
HStem: 75 215<1903.27 2140.67 2911.27 3148.67> 454 215<378.209 618.672> 955 219<1903.27 2140.67 2911.27 3148.67> 1334 219<378.209 618.672>
VStem: 45 333<669.918 1333.91> 620 329<669.918 1333.91> 1569 333<290.842 954.788> 2143 329<290.842 954.788> 2577 333<290.842 954.788> 3151 329<290.842 954.788>
LayerCount: 2
Fore
SplineSet
3151 955 m 1,0,-1
 2910 955 l 1,1,-1
 2910 290 l 1,2,-1
 3151 290 l 1,3,-1
 3151 955 l 1,0,-1
3027 75 m 256,4,5
 2914 75 2914 75 2837 89 c 128,-1,6
 2760 103 2760 103 2710 127 c 128,-1,7
 2660 151 2660 151 2633 182 c 128,-1,8
 2606 213 2606 213 2593.5 248 c 128,-1,9
 2581 283 2581 283 2579 318.5 c 128,-1,10
 2577 354 2577 354 2577 386 c 2,11,-1
 2577 863 l 2,12,13
 2577 895 2577 895 2579 930.5 c 128,-1,14
 2581 966 2581 966 2593.5 1000.5 c 128,-1,15
 2606 1035 2606 1035 2633 1066.5 c 128,-1,16
 2660 1098 2660 1098 2710 1122 c 128,-1,17
 2760 1146 2760 1146 2837 1160 c 128,-1,18
 2914 1174 2914 1174 3027 1174 c 256,19,20
 3140 1174 3140 1174 3217.5 1160 c 128,-1,21
 3295 1146 3295 1146 3345.5 1122 c 128,-1,22
 3396 1098 3396 1098 3423.5 1066.5 c 128,-1,23
 3451 1035 3451 1035 3463.5 1000.5 c 128,-1,24
 3476 966 3476 966 3478 930.5 c 128,-1,25
 3480 895 3480 895 3480 863 c 2,26,-1
 3480 386 l 2,27,28
 3480 354 3480 354 3478 318.5 c 128,-1,29
 3476 283 3476 283 3463.5 248 c 128,-1,30
 3451 213 3451 213 3423.5 182 c 128,-1,31
 3396 151 3396 151 3345.5 127 c 128,-1,32
 3295 103 3295 103 3217.5 89 c 128,-1,33
 3140 75 3140 75 3027 75 c 256,4,5
620 1334 m 1,34,-1
 378 1334 l 1,35,-1
 378 669 l 1,36,-1
 620 669 l 1,37,-1
 620 1334 l 1,34,-1
497 454 m 256,38,39
 384 454 384 454 306.5 468 c 128,-1,40
 229 482 229 482 179 506 c 128,-1,41
 129 530 129 530 101.5 561.5 c 128,-1,42
 74 593 74 593 61.5 627.5 c 128,-1,43
 49 662 49 662 47 697.5 c 128,-1,44
 45 733 45 733 45 765 c 2,45,-1
 45 1244 l 2,46,47
 45 1276 45 1276 47 1311 c 128,-1,48
 49 1346 49 1346 61.5 1380.5 c 128,-1,49
 74 1415 74 1415 101.5 1446 c 128,-1,50
 129 1477 129 1477 179 1501 c 128,-1,51
 229 1525 229 1525 306.5 1539 c 128,-1,52
 384 1553 384 1553 497 1553 c 256,53,54
 610 1553 610 1553 687.5 1539 c 128,-1,55
 765 1525 765 1525 815 1501 c 128,-1,56
 865 1477 865 1477 892.5 1446 c 128,-1,57
 920 1415 920 1415 932.5 1380.5 c 128,-1,58
 945 1346 945 1346 947 1311 c 128,-1,59
 949 1276 949 1276 949 1244 c 2,60,-1
 949 765 l 2,61,62
 949 733 949 733 947 697.5 c 128,-1,63
 945 662 945 662 932.5 627.5 c 128,-1,64
 920 593 920 593 892.5 561.5 c 128,-1,65
 865 530 865 530 815 506 c 128,-1,66
 765 482 765 482 687.5 468 c 128,-1,67
 610 454 610 454 497 454 c 256,38,39
2143 955 m 1,68,-1
 1902 955 l 1,69,-1
 1902 290 l 1,70,-1
 2143 290 l 1,71,-1
 2143 955 l 1,68,-1
2019 75 m 256,72,73
 1906 75 1906 75 1829 89 c 128,-1,74
 1752 103 1752 103 1702 127 c 128,-1,75
 1652 151 1652 151 1625 182 c 128,-1,76
 1598 213 1598 213 1585.5 248 c 128,-1,77
 1573 283 1573 283 1571 318.5 c 128,-1,78
 1569 354 1569 354 1569 386 c 2,79,-1
 1569 863 l 2,80,81
 1569 895 1569 895 1571 930.5 c 128,-1,82
 1573 966 1573 966 1585.5 1000.5 c 128,-1,83
 1598 1035 1598 1035 1625 1066.5 c 128,-1,84
 1652 1098 1652 1098 1702 1122 c 128,-1,85
 1752 1146 1752 1146 1829 1160 c 128,-1,86
 1906 1174 1906 1174 2019 1174 c 256,87,88
 2132 1174 2132 1174 2209.5 1160 c 128,-1,89
 2287 1146 2287 1146 2337.5 1122 c 128,-1,90
 2388 1098 2388 1098 2415.5 1066.5 c 128,-1,91
 2443 1035 2443 1035 2455.5 1000.5 c 128,-1,92
 2468 966 2468 966 2470 930.5 c 128,-1,93
 2472 895 2472 895 2472 863 c 2,94,-1
 2472 386 l 2,95,96
 2472 354 2472 354 2470 318.5 c 128,-1,97
 2468 283 2468 283 2455.5 248 c 128,-1,98
 2443 213 2443 213 2415.5 182 c 128,-1,99
 2388 151 2388 151 2337.5 127 c 128,-1,100
 2287 103 2287 103 2209.5 89 c 128,-1,101
 2132 75 2132 75 2019 75 c 256,72,73
1639 1670 m 1,102,-1
 1300 -40 l 1,103,-1
 880 -40 l 1,104,-1
 1224 1670 l 1,105,-1
 1639 1670 l 1,102,-1
EndSplineSet
Validated: 1
EndChar

StartChar: guilsinglleft
Encoding: 8249 8249 108
Width: 1051
Flags: W
HStem: 0 21G<802.607 835> 1575 20G<803.129 835>
LayerCount: 2
Fore
SplineSet
43 1098 m 1,0,-1
 835 1595 l 1,1,-1
 835 1090 l 1,2,-1
 292 797 l 1,3,-1
 835 504 l 1,4,-1
 835 0 l 1,5,-1
 43 489 l 1,6,-1
 43 1098 l 1,0,-1
EndSplineSet
Validated: 1
EndChar

StartChar: OE
Encoding: 338 338 109
Width: 1925
Flags: W
HStem: 0 237<600.025 836 1352 1718> 711 250<1352 1696> 1358 237<600.025 836 1352 1718>
VStem: 82 517<237.466 1357.14> 836 516<237 711 961 1358>
LayerCount: 2
Fore
SplineSet
772 0 m 2,0,1
 600 0 600 0 482 16.5 c 128,-1,2
 364 33 364 33 287 61 c 128,-1,3
 210 89 210 89 168.5 125.5 c 128,-1,4
 127 162 127 162 108 203.5 c 128,-1,5
 89 245 89 245 85.5 288 c 128,-1,6
 82 331 82 331 82 371 c 2,7,-1
 82 1227 l 2,8,9
 82 1266 82 1266 85.5 1308.5 c 128,-1,10
 89 1351 89 1351 108 1392 c 128,-1,11
 127 1433 127 1433 168.5 1470 c 128,-1,12
 210 1507 210 1507 287 1534.5 c 128,-1,13
 364 1562 364 1562 482 1578.5 c 128,-1,14
 600 1595 600 1595 772 1595 c 2,15,-1
 1718 1595 l 1,16,-1
 1718 1358 l 1,17,-1
 1352 1358 l 1,18,-1
 1352 961 l 1,19,-1
 1696 961 l 1,20,-1
 1696 711 l 1,21,-1
 1352 711 l 1,22,-1
 1352 237 l 1,23,-1
 1718 237 l 1,24,-1
 1718 0 l 1,25,-1
 772 0 l 2,0,1
599 237 m 1,26,-1
 836 237 l 1,27,-1
 836 1358 l 1,28,-1
 599 1358 l 1,29,-1
 599 237 l 1,26,-1
EndSplineSet
Validated: 1
EndChar

StartChar: quoteleft
Encoding: 8216 8216 110
Width: 711
Flags: W
HStem: 1436 199<424.616 535>
VStem: 66 492<781 1267.9>
LayerCount: 2
Fore
SplineSet
535 1436 m 1,0,1
 482 1424 482 1424 441 1401 c 0,2,3
 423 1391 423 1391 406.5 1378.5 c 128,-1,4
 390 1366 390 1366 377 1349.5 c 128,-1,5
 364 1333 364 1333 356 1312.5 c 128,-1,6
 348 1292 348 1292 348 1268 c 1,7,-1
 558 1268 l 1,8,-1
 558 781 l 1,9,-1
 66 781 l 1,10,-1
 66 1118 l 2,11,12
 66 1269 66 1269 98 1369 c 128,-1,13
 130 1469 130 1469 190.5 1528 c 128,-1,14
 251 1587 251 1587 338 1611 c 128,-1,15
 425 1635 425 1635 535 1635 c 1,16,-1
 535 1436 l 1,0,1
EndSplineSet
Validated: 1
EndChar

StartChar: quoteright
Encoding: 8217 8217 111
Width: 696
Flags: W
HStem: 749 199<90 197.323> 1583 20G<66 558>
VStem: 66 492<1119.32 1603>
LayerCount: 2
Fore
SplineSet
90 948 m 1,0,1
 141 960 141 960 183 983 c 0,2,3
 201 993 201 993 217.5 1005.5 c 128,-1,4
 234 1018 234 1018 247.5 1034.5 c 128,-1,5
 261 1051 261 1051 269 1071.5 c 128,-1,6
 277 1092 277 1092 277 1116 c 1,7,-1
 66 1116 l 1,8,-1
 66 1603 l 1,9,-1
 558 1603 l 1,10,-1
 558 1266 l 2,11,12
 558 1114 558 1114 526 1014.5 c 128,-1,13
 494 915 494 915 434 856 c 128,-1,14
 374 797 374 797 287 773 c 128,-1,15
 200 749 200 749 90 749 c 1,16,-1
 90 948 l 1,0,1
EndSplineSet
Validated: 1
EndChar

StartChar: quotedblleft
Encoding: 8220 8220 112
Width: 1366
Flags: W
HStem: 781 487<348 558 905 1117> 1436 199<424.616 535 981.757 1092>
VStem: 66 492<781 1267.9> 623 494<781 1267.9>
LayerCount: 2
Fore
SplineSet
535 1436 m 1,0,1
 482 1424 482 1424 441 1401 c 0,2,3
 423 1391 423 1391 406.5 1378.5 c 128,-1,4
 390 1366 390 1366 377 1349.5 c 128,-1,5
 364 1333 364 1333 356 1312.5 c 128,-1,6
 348 1292 348 1292 348 1268 c 1,7,-1
 558 1268 l 1,8,-1
 558 781 l 1,9,-1
 66 781 l 1,10,-1
 66 1118 l 2,11,12
 66 1269 66 1269 98 1369 c 128,-1,13
 130 1469 130 1469 190.5 1528 c 128,-1,14
 251 1587 251 1587 338 1611 c 128,-1,15
 425 1635 425 1635 535 1635 c 1,16,-1
 535 1436 l 1,0,1
1092 1436 m 1,17,18
 1039 1424 1039 1424 998 1401 c 0,19,20
 980 1391 980 1391 963.5 1378.5 c 128,-1,21
 947 1366 947 1366 934 1349.5 c 128,-1,22
 921 1333 921 1333 913 1312.5 c 128,-1,23
 905 1292 905 1292 905 1268 c 1,24,-1
 1117 1268 l 1,25,-1
 1117 781 l 1,26,-1
 623 781 l 1,27,-1
 623 1118 l 2,28,29
 623 1269 623 1269 655 1369 c 128,-1,30
 687 1469 687 1469 748 1528 c 128,-1,31
 809 1587 809 1587 895.5 1611 c 128,-1,32
 982 1635 982 1635 1092 1635 c 1,33,-1
 1092 1436 l 1,17,18
EndSplineSet
Validated: 1
EndChar

StartChar: quotedblright
Encoding: 8221 8221 113
Width: 1358
Flags: W
HStem: 749 199<90 197.323 651 758.323> 1116 487<66 277 627 838>
VStem: 66 492<1119.32 1603> 627 492<1119.32 1603>
LayerCount: 2
Fore
SplineSet
90 948 m 1,0,1
 141 960 141 960 183 983 c 0,2,3
 201 993 201 993 217.5 1005.5 c 128,-1,4
 234 1018 234 1018 247.5 1034.5 c 128,-1,5
 261 1051 261 1051 269 1071.5 c 128,-1,6
 277 1092 277 1092 277 1116 c 1,7,-1
 66 1116 l 1,8,-1
 66 1603 l 1,9,-1
 558 1603 l 1,10,-1
 558 1266 l 2,11,12
 558 1114 558 1114 526 1014.5 c 128,-1,13
 494 915 494 915 434 856 c 128,-1,14
 374 797 374 797 287 773 c 128,-1,15
 200 749 200 749 90 749 c 1,16,-1
 90 948 l 1,0,1
651 948 m 1,17,18
 702 960 702 960 744 983 c 0,19,20
 762 993 762 993 778.5 1005.5 c 128,-1,21
 795 1018 795 1018 808.5 1034.5 c 128,-1,22
 822 1051 822 1051 830 1071.5 c 128,-1,23
 838 1092 838 1092 838 1116 c 1,24,-1
 627 1116 l 1,25,-1
 627 1603 l 1,26,-1
 1119 1603 l 1,27,-1
 1119 1266 l 2,28,29
 1119 1114 1119 1114 1087 1014.5 c 128,-1,30
 1055 915 1055 915 995 856 c 128,-1,31
 935 797 935 797 848 773 c 128,-1,32
 761 749 761 749 651 749 c 1,33,-1
 651 948 l 1,17,18
EndSplineSet
Validated: 1
EndChar

StartChar: bullet
Encoding: 8226 8226 114
Width: 1155
Flags: W
VStem: 57 888<408.537 1042.37>
LayerCount: 2
Fore
SplineSet
945 726 m 256,0,1
 945 584 945 584 922.5 486 c 128,-1,2
 900 388 900 388 863.5 325 c 128,-1,3
 827 262 827 262 780.5 227.5 c 128,-1,4
 734 193 734 193 686.5 177 c 128,-1,5
 639 161 639 161 594 158.5 c 128,-1,6
 549 156 549 156 515 156 c 0,7,8
 468 156 468 156 415.5 159 c 128,-1,9
 363 162 363 162 312 178 c 128,-1,10
 261 194 261 194 215 228.5 c 128,-1,11
 169 263 169 263 134 326.5 c 128,-1,12
 99 390 99 390 78 487 c 128,-1,13
 57 584 57 584 57 726 c 0,14,15
 57 867 57 867 78 964 c 128,-1,16
 99 1061 99 1061 134 1124 c 128,-1,17
 169 1187 169 1187 215 1221.5 c 128,-1,18
 261 1256 261 1256 312 1272 c 128,-1,19
 363 1288 363 1288 415.5 1291 c 128,-1,20
 468 1294 468 1294 515 1294 c 0,21,22
 549 1294 549 1294 594 1291.5 c 128,-1,23
 639 1289 639 1289 686.5 1273 c 128,-1,24
 734 1257 734 1257 780.5 1223 c 128,-1,25
 827 1189 827 1189 863.5 1126 c 128,-1,26
 900 1063 900 1063 922.5 965.5 c 128,-1,27
 945 868 945 868 945 726 c 256,0,1
EndSplineSet
Validated: 1
EndChar

StartChar: endash
Encoding: 8211 8211 115
Width: 1006
Flags: W
HStem: 461 436<59 812>
LayerCount: 2
Fore
SplineSet
812 897 m 1,0,-1
 812 461 l 1,1,-1
 59 461 l 1,2,-1
 59 897 l 1,3,-1
 812 897 l 1,0,-1
EndSplineSet
Validated: 1
EndChar

StartChar: emdash
Encoding: 8212 8212 116
Width: 1911
Flags: W
HStem: 461 436<59 1583>
LayerCount: 2
Fore
SplineSet
1583 897 m 1,0,-1
 1583 461 l 1,1,-1
 59 461 l 1,2,-1
 59 897 l 1,3,-1
 1583 897 l 1,0,-1
EndSplineSet
Validated: 1
EndChar

StartChar: tilde
Encoding: 732 732 117
Width: 1288
Flags: W
HStem: 70 443<253.534 420.094> 260 446<663.9 823.026>
VStem: -41 268<536.076 681> 850 269<96 235.985>
LayerCount: 2
Fore
SplineSet
751 260 m 0,0,1
 726 260 726 260 704.5 246 c 128,-1,2
 683 232 683 232 658.5 211 c 128,-1,3
 634 190 634 190 605 165 c 128,-1,4
 576 140 576 140 537 119 c 128,-1,5
 498 98 498 98 446.5 84 c 128,-1,6
 395 70 395 70 326 70 c 0,7,8
 237 70 237 70 168.5 96 c 128,-1,9
 100 122 100 122 53.5 190 c 128,-1,10
 7 258 7 258 -17 376.5 c 128,-1,11
 -41 495 -41 495 -41 681 c 1,12,-1
 227 681 l 1,13,14
 227 648 227 648 232 617.5 c 128,-1,15
 237 587 237 587 249 564 c 128,-1,16
 261 541 261 541 280 527 c 128,-1,17
 299 513 299 513 328 513 c 0,18,19
 353 513 353 513 377 527.5 c 128,-1,20
 401 542 401 542 427 563 c 128,-1,21
 453 584 453 584 483.5 609.5 c 128,-1,22
 514 635 514 635 553 656 c 128,-1,23
 592 677 592 677 640.5 691.5 c 128,-1,24
 689 706 689 706 751 706 c 0,25,26
 840 706 840 706 909 680.5 c 128,-1,27
 978 655 978 655 1024.5 587 c 128,-1,28
 1071 519 1071 519 1095 400.5 c 128,-1,29
 1119 282 1119 282 1119 96 c 1,30,-1
 850 96 l 1,31,32
 850 124 850 124 845 153 c 128,-1,33
 840 182 840 182 828.5 206 c 128,-1,34
 817 230 817 230 798 245 c 128,-1,35
 779 260 779 260 751 260 c 0,0,1
EndSplineSet
Validated: 1
EndChar

StartChar: trademark
Encoding: 8482 8482 118
Width: 1974
Flags: W
HStem: 657 938<183 520 707 1043 1279 1614> 1453 142<37 183 520 668>
VStem: 183 337<657 1453> 707 336<657 951> 1113 94<657 715.539> 1279 335<657 951>
LayerCount: 2
Fore
SplineSet
668 1595 m 1,0,-1
 668 1453 l 1,1,-1
 520 1453 l 1,2,-1
 520 657 l 1,3,-1
 183 657 l 1,4,-1
 183 1453 l 1,5,-1
 37 1453 l 1,6,-1
 37 1595 l 1,7,-1
 668 1595 l 1,0,-1
1113 657 m 1,8,-1
 1043 951 l 1,9,-1
 1043 657 l 1,10,-1
 707 657 l 1,11,-1
 707 1595 l 1,12,-1
 1100 1595 l 1,13,-1
 1162 1158 l 1,14,-1
 1215 1595 l 1,15,-1
 1614 1595 l 1,16,-1
 1614 657 l 1,17,-1
 1279 657 l 1,18,-1
 1279 951 l 1,19,-1
 1207 657 l 1,20,-1
 1113 657 l 1,8,-1
EndSplineSet
Validated: 1
EndChar

StartChar: guilsinglright
Encoding: 8250 8250 120
Width: 1051
Flags: W
HStem: 0 21G<74 106.434> 1577 20G<74 105.784>
LayerCount: 2
Fore
SplineSet
867 489 m 1,0,-1
 74 0 l 1,1,-1
 74 504 l 1,2,-1
 617 797 l 1,3,-1
 74 1092 l 1,4,-1
 74 1597 l 1,5,-1
 867 1098 l 1,6,-1
 867 489 l 1,0,-1
EndSplineSet
Validated: 1
EndChar

StartChar: oe
Encoding: 339 339 121
Width: 2187
Flags: W
HStem: -36 273<569.231 802.258 1301.62 1532.96> 621 206<1300 1536> 1060 283<569.231 800.888 1301.52 1533.61>
VStem: 70 497<238.125 1059.58> 803 497<237 621 827 1060> 1536 497<238.125 555 827 1059.58>
CounterMasks: 1 1c
LayerCount: 2
Fore
SplineSet
2033 555 m 1,0,-1
 2033 369 l 2,1,2
 2033 329 2033 329 2032 283.5 c 128,-1,3
 2031 238 2031 238 2016 193 c 128,-1,4
 2001 148 2001 148 1965 106.5 c 128,-1,5
 1929 65 1929 65 1860 33.5 c 128,-1,6
 1791 2 1791 2 1681.5 -17 c 128,-1,7
 1572 -36 1572 -36 1410 -36 c 0,8,9
 1306 -36 1306 -36 1237.5 -22 c 128,-1,10
 1169 -8 1169 -8 1126 12 c 128,-1,11
 1083 32 1083 32 1061.5 55 c 128,-1,12
 1040 78 1040 78 1031 96 c 1,13,14
 1019 77 1019 77 993.5 54 c 128,-1,15
 968 31 968 31 925 11 c 128,-1,16
 882 -9 882 -9 818.5 -22.5 c 128,-1,17
 755 -36 755 -36 668 -36 c 0,18,19
 516 -36 516 -36 412.5 -17 c 128,-1,20
 309 2 309 2 242.5 33.5 c 128,-1,21
 176 65 176 65 140.5 106.5 c 128,-1,22
 105 148 105 148 89.5 193 c 128,-1,23
 74 238 74 238 72 283.5 c 128,-1,24
 70 329 70 329 70 369 c 2,25,-1
 70 932 l 2,26,27
 70 972 70 972 72 1018 c 128,-1,28
 74 1064 74 1064 89.5 1109.5 c 128,-1,29
 105 1155 105 1155 140.5 1197.5 c 128,-1,30
 176 1240 176 1240 242.5 1272 c 128,-1,31
 309 1304 309 1304 412.5 1323.5 c 128,-1,32
 516 1343 516 1343 668 1343 c 0,33,34
 759 1343 759 1343 824 1328.5 c 128,-1,35
 889 1314 889 1314 932.5 1293 c 128,-1,36
 976 1272 976 1272 999.5 1249.5 c 128,-1,37
 1023 1227 1023 1227 1031 1212 c 1,38,39
 1043 1229 1043 1229 1068 1251.5 c 128,-1,40
 1093 1274 1093 1274 1137 1294.5 c 128,-1,41
 1181 1315 1181 1315 1247.5 1329 c 128,-1,42
 1314 1343 1314 1343 1410 1343 c 0,43,44
 1573 1343 1573 1343 1682.5 1323.5 c 128,-1,45
 1792 1304 1792 1304 1861 1272 c 128,-1,46
 1930 1240 1930 1240 1965.5 1197.5 c 128,-1,47
 2001 1155 2001 1155 2016 1109.5 c 128,-1,48
 2031 1064 2031 1064 2032 1018 c 128,-1,49
 2033 972 2033 972 2033 932 c 2,50,-1
 2033 621 l 1,51,-1
 1300 621 l 1,52,-1
 1300 237 l 1,53,-1
 1536 237 l 1,54,-1
 1536 555 l 1,55,-1
 2033 555 l 1,0,-1
567 237 m 1,56,-1
 803 237 l 1,57,-1
 803 1060 l 1,58,-1
 567 1060 l 1,59,-1
 567 237 l 1,56,-1
1300 827 m 1,60,-1
 1536 827 l 1,61,-1
 1536 1060 l 1,62,-1
 1300 1060 l 1,63,-1
 1300 827 l 1,60,-1
EndSplineSet
Validated: 1
EndChar

StartChar: cent
Encoding: 162 162 125
Width: 1430
Flags: W
HStem: 1575 20G<441 870>
VStem: 45 477<238.139 1059.07> 441 429<-304 -18.302 1322.76 1595> 797 448<237.156 451 855 1059.71>
LayerCount: 2
Fore
SplineSet
441 -25 m 1,0,1
 343 -12 343 -12 275 12 c 128,-1,2
 207 36 207 36 163 68 c 128,-1,3
 119 100 119 100 95 137 c 128,-1,4
 71 174 71 174 60 213.5 c 128,-1,5
 49 253 49 253 47 292 c 128,-1,6
 45 331 45 331 45 367 c 2,7,-1
 45 862 l 2,8,9
 45 905 45 905 47 951.5 c 128,-1,10
 49 998 49 998 60 1043.5 c 128,-1,11
 71 1089 71 1089 95 1132 c 128,-1,12
 119 1175 119 1175 163 1212.5 c 128,-1,13
 207 1250 207 1250 274.5 1280.5 c 128,-1,14
 342 1311 342 1311 441 1331 c 1,15,-1
 441 1595 l 1,16,-1
 870 1595 l 1,17,-1
 870 1331 l 1,18,19
 964 1315 964 1315 1028.5 1285.5 c 128,-1,20
 1093 1256 1093 1256 1134.5 1217.5 c 128,-1,21
 1176 1179 1176 1179 1198.5 1133.5 c 128,-1,22
 1221 1088 1221 1088 1231.5 1040.5 c 128,-1,23
 1242 993 1242 993 1243.5 945.5 c 128,-1,24
 1245 898 1245 898 1245 855 c 1,25,-1
 797 855 l 1,26,-1
 797 1060 l 1,27,-1
 522 1060 l 1,28,-1
 522 237 l 1,29,-1
 797 237 l 1,30,-1
 797 451 l 1,31,-1
 1245 451 l 1,32,-1
 1245 367 l 2,33,34
 1245 331 1245 331 1243 292 c 128,-1,35
 1241 253 1241 253 1230.5 214 c 128,-1,36
 1220 175 1220 175 1197.5 137.5 c 128,-1,37
 1175 100 1175 100 1133.5 68 c 128,-1,38
 1092 36 1092 36 1027.5 12 c 128,-1,39
 963 -12 963 -12 870 -25 c 1,40,-1
 870 -304 l 1,41,-1
 441 -304 l 1,42,-1
 441 -25 l 1,0,1
EndSplineSet
Validated: 1
EndChar

StartChar: sterling
Encoding: 163 163 126
Width: 1642
Flags: W
HStem: 0.5 236.5<808.042 941> 718 222<45 188 665 1211> 1358 274<665.672 940.357>
VStem: 188 477<297.651 718 940 1355.94> 941 477<238.267 562 1070 1357.04>
LayerCount: 2
Fore
SplineSet
1211 718 m 1,0,-1
 665 718 l 1,1,-1
 665 237 l 1,2,-1
 941 237 l 1,3,-1
 941 562 l 1,4,-1
 1418 562 l 1,5,-1
 1418 385 l 2,6,7
 1418 345 1418 345 1416 301 c 128,-1,8
 1414 257 1414 257 1404.5 214 c 128,-1,9
 1395 171 1395 171 1374 132.5 c 128,-1,10
 1353 94 1353 94 1315 64.5 c 128,-1,11
 1277 35 1277 35 1219 17.5 c 128,-1,12
 1161 0 1161 0 1077 0 c 0,13,14
 978 0 978 0 911 14.5 c 128,-1,15
 844 29 844 29 799.5 49 c 128,-1,16
 755 69 755 69 729 91.5 c 128,-1,17
 703 114 703 114 685 130 c 1,18,19
 657 98 657 98 631.5 75.5 c 128,-1,20
 606 53 606 53 575 39 c 128,-1,21
 544 25 544 25 502 17 c 128,-1,22
 460 9 460 9 398.5 5 c 128,-1,23
 337 1 337 1 250.5 0.5 c 128,-1,24
 164 0 164 0 45 0 c 1,25,-1
 45 265 l 1,26,27
 85 270 85 270 116 283 c 0,28,29
 143 294 143 294 165.5 315.5 c 128,-1,30
 188 337 188 337 188 375 c 2,31,-1
 188 718 l 1,32,-1
 45 718 l 1,33,-1
 45 940 l 1,34,-1
 188 940 l 1,35,-1
 188 1064 l 2,36,37
 188 1172 188 1172 196 1256.5 c 128,-1,38
 204 1341 204 1341 228 1404 c 128,-1,39
 252 1467 252 1467 295 1510.5 c 128,-1,40
 338 1554 338 1554 408.5 1581 c 128,-1,41
 479 1608 479 1608 580.5 1620 c 128,-1,42
 682 1632 682 1632 822 1632 c 0,43,44
 967 1632 967 1632 1067.5 1614.5 c 128,-1,45
 1168 1597 1168 1597 1234 1567.5 c 128,-1,46
 1300 1538 1300 1538 1337 1499.5 c 128,-1,47
 1374 1461 1374 1461 1392 1418 c 128,-1,48
 1410 1375 1410 1375 1414 1331 c 128,-1,49
 1418 1287 1418 1287 1418 1247 c 2,50,-1
 1418 1070 l 1,51,-1
 941 1070 l 1,52,-1
 941 1358 l 1,53,-1
 665 1358 l 1,54,-1
 665 940 l 1,55,-1
 1211 940 l 1,56,-1
 1211 718 l 1,0,-1
EndSplineSet
Validated: 1
EndChar

StartChar: currency
Encoding: 164 164 127
Width: 1446
Flags: W
HStem: 299 270<370.722 869.564> 1069 274<369.789 869.431>
VStem: 55.5 313.5<570.014 1067.51> 871 319<569.959 1067.59>
LayerCount: 2
Fore
SplineSet
286 1286 m 1,0,1
 346 1312 346 1312 428.5 1327.5 c 128,-1,2
 511 1343 511 1343 623 1343 c 0,3,4
 732 1343 732 1343 813.5 1328 c 128,-1,5
 895 1313 895 1313 956 1287 c 1,6,-1
 1061 1414 l 1,7,-1
 1134 1330 l 1,8,-1
 1052 1231 l 1,9,10
 1104 1189 1104 1189 1132 1136.5 c 128,-1,11
 1160 1084 1160 1084 1173 1027.5 c 128,-1,12
 1186 971 1186 971 1188 913.5 c 128,-1,13
 1190 856 1190 856 1190 804 c 0,14,15
 1190 765 1190 765 1187.5 712.5 c 128,-1,16
 1185 660 1185 660 1169.5 604.5 c 128,-1,17
 1154 549 1154 549 1121 495 c 128,-1,18
 1088 441 1088 441 1027 398 c 1,19,-1
 1134 272 l 1,20,-1
 1061 188 l 1,21,-1
 929 346 l 1,22,23
 869 324 869 324 794.5 311.5 c 128,-1,24
 720 299 720 299 623 299 c 0,25,26
 523 299 523 299 446.5 312 c 128,-1,27
 370 325 370 325 313 348 c 1,28,-1
 179 188 l 1,29,-1
 107 272 l 1,30,-1
 214 400 l 1,31,32
 154 443 154 443 121 497 c 128,-1,33
 88 551 88 551 73 606 c 128,-1,34
 58 661 58 661 55.5 713 c 128,-1,35
 53 765 53 765 53 804 c 0,36,37
 53 856 53 856 55 913 c 128,-1,38
 57 970 57 970 70 1026 c 128,-1,39
 83 1082 83 1082 111 1134.5 c 128,-1,40
 139 1187 139 1187 190 1229 c 1,41,-1
 107 1330 l 1,42,-1
 179 1414 l 1,43,-1
 286 1286 l 1,0,1
369 569 m 1,44,-1
 871 569 l 1,45,-1
 871 1069 l 1,46,-1
 369 1069 l 1,47,-1
 369 569 l 1,44,-1
EndSplineSet
Validated: 1
EndChar

StartChar: yen
Encoding: 165 165 128
Width: 1665
Flags: W
HStem: 0 21G<425 997> 299 143<127 425 997 1301> 585 143<127 332 1095 1301> 1575 20G<29 517.707 908.149 1396>
LayerCount: 2
Fore
SplineSet
425 442 m 1,0,-1
 425 459 l 1,1,-1
 381 585 l 1,2,-1
 127 585 l 1,3,-1
 127 728 l 1,4,-1
 332 728 l 1,5,-1
 29 1595 l 1,6,-1
 513 1595 l 1,7,-1
 710 758 l 1,8,-1
 913 1595 l 1,9,-1
 1396 1595 l 1,10,-1
 1095 728 l 1,11,-1
 1301 728 l 1,12,-1
 1301 585 l 1,13,-1
 1045 585 l 1,14,-1
 997 449 l 1,15,-1
 997 442 l 1,16,-1
 1301 442 l 1,17,-1
 1301 299 l 1,18,-1
 997 299 l 1,19,-1
 997 0 l 1,20,-1
 425 0 l 1,21,-1
 425 299 l 1,22,-1
 127 299 l 1,23,-1
 127 442 l 1,24,-1
 425 442 l 1,0,-1
EndSplineSet
Validated: 1
EndChar

StartChar: brokenbar
Encoding: 166 166 129
Width: 864
Flags: W
VStem: 94 516<-255 656 797 1708>
LayerCount: 2
Fore
SplineSet
610 656 m 1,0,-1
 610 -255 l 1,1,-1
 94 -255 l 1,2,-1
 94 656 l 1,3,-1
 610 656 l 1,0,-1
610 1708 m 1,4,-1
 610 797 l 1,5,-1
 94 797 l 1,6,-1
 94 1708 l 1,7,-1
 610 1708 l 1,4,-1
EndSplineSet
Validated: 1
EndChar

StartChar: section
Encoding: 167 167 130
Width: 1401
Flags: W
HStem: -39 276<528.759 800.996> 493 257<528 804> 973 254.5<547.319 804> 1498 274<549.401 821.254>
VStem: 51 477<238.141 426 750.072 957.371> 55 492<1238.97 1497.82> 804 477<238.57 487.975 765.519 972.44>
LayerCount: 2
Fore
SplineSet
55 1331 m 0,0,1
 55 1395 55 1395 61.5 1452.5 c 128,-1,2
 68 1510 68 1510 90.5 1559 c 128,-1,3
 113 1608 113 1608 154.5 1647.5 c 128,-1,4
 196 1687 196 1687 266.5 1714.5 c 128,-1,5
 337 1742 337 1742 440 1757 c 128,-1,6
 543 1772 543 1772 687 1772 c 0,7,8
 820 1772 820 1772 915.5 1759.5 c 128,-1,9
 1011 1747 1011 1747 1076 1724 c 128,-1,10
 1141 1701 1141 1701 1179.5 1668.5 c 128,-1,11
 1218 1636 1218 1636 1238.5 1596 c 128,-1,12
 1259 1556 1259 1556 1265 1509.5 c 128,-1,13
 1271 1463 1271 1463 1271 1412 c 0,14,15
 1271 1386 1271 1386 1270.5 1360 c 128,-1,16
 1270 1334 1270 1334 1270 1307 c 1,17,-1
 823 1307 l 1,18,-1
 823 1498 l 1,19,-1
 547 1498 l 1,20,-1
 547 1249 l 1,21,22
 557 1240 557 1240 594.5 1237 c 128,-1,23
 632 1234 632 1234 685.5 1232 c 128,-1,24
 739 1230 739 1230 804 1227.5 c 128,-1,25
 869 1225 869 1225 935.5 1216 c 128,-1,26
 1002 1207 1002 1207 1064 1189.5 c 128,-1,27
 1126 1172 1126 1172 1174.5 1141.5 c 128,-1,28
 1223 1111 1223 1111 1252 1064 c 128,-1,29
 1281 1017 1281 1017 1281 950 c 0,30,31
 1281 895 1281 895 1271.5 854.5 c 128,-1,32
 1262 814 1262 814 1247 784.5 c 128,-1,33
 1232 755 1232 755 1214.5 736.5 c 128,-1,34
 1197 718 1197 718 1181.5 707 c 128,-1,35
 1166 696 1166 696 1155 691.5 c 128,-1,36
 1144 687 1144 687 1142 686 c 1,37,38
 1145 685 1145 685 1167 672 c 128,-1,39
 1189 659 1189 659 1214.5 627.5 c 128,-1,40
 1240 596 1240 596 1260.5 541.5 c 128,-1,41
 1281 487 1281 487 1281 402 c 0,42,43
 1281 338 1281 338 1273.5 280.5 c 128,-1,44
 1266 223 1266 223 1243.5 174 c 128,-1,45
 1221 125 1221 125 1178.5 85.5 c 128,-1,46
 1136 46 1136 46 1066 18.5 c 128,-1,47
 996 -9 996 -9 894 -24 c 128,-1,48
 792 -39 792 -39 651 -39 c 0,49,50
 511 -39 511 -39 412 -26.5 c 128,-1,51
 313 -14 313 -14 246 9 c 128,-1,52
 179 32 179 32 140.5 64.5 c 128,-1,53
 102 97 102 97 82 137 c 128,-1,54
 62 177 62 177 56.5 223.5 c 128,-1,55
 51 270 51 270 51 321 c 2,56,-1
 51 426 l 1,57,-1
 528 426 l 1,58,-1
 528 237 l 1,59,-1
 804 237 l 1,60,-1
 804 484 l 1,61,62
 784 489 784 489 716.5 491 c 128,-1,63
 649 493 649 493 552 493 c 0,64,65
 501 493 501 493 444.5 494.5 c 128,-1,66
 388 496 388 496 332 504 c 128,-1,67
 276 512 276 512 225.5 529.5 c 128,-1,68
 175 547 175 547 136 579 c 128,-1,69
 97 611 97 611 74 660.5 c 128,-1,70
 51 710 51 710 51 783 c 0,71,72
 51 859 51 859 72 909.5 c 128,-1,73
 93 960 93 960 119 990 c 128,-1,74
 145 1020 145 1020 167 1032.5 c 128,-1,75
 189 1045 189 1045 192 1046 c 1,76,77
 189 1047 189 1047 167.5 1061.5 c 128,-1,78
 146 1076 146 1076 121 1109 c 128,-1,79
 96 1142 96 1142 75.5 1196.5 c 128,-1,80
 55 1251 55 1251 55 1331 c 0,0,1
804 750 m 1,81,-1
 804 973 l 1,82,-1
 528 973 l 1,83,-1
 528 750 l 1,84,-1
 804 750 l 1,81,-1
EndSplineSet
Validated: 1
EndChar

StartChar: dieresis
Encoding: 168 168 131
Width: 774
Flags: W
HStem: 101 237<-209 196 408 813>
VStem: -209 405<101 338> 408 405<101 338>
LayerCount: 2
Fore
SplineSet
196 338 m 1,0,-1
 196 101 l 1,1,-1
 -209 101 l 1,2,-1
 -209 338 l 1,3,-1
 196 338 l 1,0,-1
813 338 m 1,4,-1
 813 101 l 1,5,-1
 408 101 l 1,6,-1
 408 338 l 1,7,-1
 813 338 l 1,4,-1
EndSplineSet
Validated: 1
EndChar

StartChar: copyright
Encoding: 169 169 132
Width: 1911
Flags: W
HStem: -102 171<520.982 1194.33> 215 160<769.258 917.55> 1274 160<768.719 917.55> 1573 176<519.725 1197.24>
VStem: 51 217<270.38 1373.53> 456 312<375.133 1273.86> 919 310<375.387 752 915 1273.92> 1450 216<272.789 1371.58>
LayerCount: 2
Fore
SplineSet
859 -102 m 256,0,1
 706 -102 706 -102 590 -81.5 c 128,-1,2
 474 -61 474 -61 388.5 -26.5 c 128,-1,3
 303 8 303 8 244.5 54 c 128,-1,4
 186 100 186 100 148.5 152 c 128,-1,5
 111 204 111 204 91 258.5 c 128,-1,6
 71 313 71 313 62 364 c 128,-1,7
 53 415 53 415 52 460.5 c 128,-1,8
 51 506 51 506 51 539 c 2,9,-1
 51 1116 l 2,10,11
 51 1149 51 1149 52 1193.5 c 128,-1,12
 53 1238 53 1238 62 1289 c 128,-1,13
 71 1340 71 1340 91 1393.5 c 128,-1,14
 111 1447 111 1447 148.5 1498.5 c 128,-1,15
 186 1550 186 1550 244.5 1595.5 c 128,-1,16
 303 1641 303 1641 388.5 1675 c 128,-1,17
 474 1709 474 1709 590 1729 c 128,-1,18
 706 1749 706 1749 859 1749 c 256,19,20
 1012 1749 1012 1749 1128 1729 c 128,-1,21
 1244 1709 1244 1709 1329.5 1675 c 128,-1,22
 1415 1641 1415 1641 1473 1595.5 c 128,-1,23
 1531 1550 1531 1550 1568.5 1498.5 c 128,-1,24
 1606 1447 1606 1447 1626 1393.5 c 128,-1,25
 1646 1340 1646 1340 1655 1289 c 128,-1,26
 1664 1238 1664 1238 1665 1193.5 c 128,-1,27
 1666 1149 1666 1149 1666 1116 c 2,28,-1
 1666 539 l 2,29,30
 1666 506 1666 506 1665 460.5 c 128,-1,31
 1664 415 1664 415 1655 364 c 128,-1,32
 1646 313 1646 313 1626 258.5 c 128,-1,33
 1606 204 1606 204 1568.5 152 c 128,-1,34
 1531 100 1531 100 1473 54 c 128,-1,35
 1415 8 1415 8 1329.5 -26.5 c 128,-1,36
 1244 -61 1244 -61 1128 -81.5 c 128,-1,37
 1012 -102 1012 -102 859 -102 c 256,0,1
859 69 m 0,38,39
 999 69 999 69 1097 88.5 c 128,-1,40
 1195 108 1195 108 1260.5 140.5 c 128,-1,41
 1326 173 1326 173 1364 215.5 c 128,-1,42
 1402 258 1402 258 1421 304 c 128,-1,43
 1440 350 1440 350 1445 396 c 128,-1,44
 1450 442 1450 442 1450 482 c 2,45,-1
 1450 1165 l 2,46,47
 1450 1205 1450 1205 1445 1250.5 c 128,-1,48
 1440 1296 1440 1296 1421 1341 c 128,-1,49
 1402 1386 1402 1386 1364 1428 c 128,-1,50
 1326 1470 1326 1470 1260.5 1502.5 c 128,-1,51
 1195 1535 1195 1535 1097 1554 c 128,-1,52
 999 1573 999 1573 859 1573 c 0,53,54
 718 1573 718 1573 619.5 1554 c 128,-1,55
 521 1535 521 1535 455 1502.5 c 128,-1,56
 389 1470 389 1470 352 1428 c 128,-1,57
 315 1386 315 1386 296 1341 c 128,-1,58
 277 1296 277 1296 272.5 1250 c 128,-1,59
 268 1204 268 1204 268 1165 c 2,60,-1
 268 482 l 2,61,62
 268 442 268 442 272.5 396 c 128,-1,63
 277 350 277 350 296 304 c 128,-1,64
 315 258 315 258 352 215.5 c 128,-1,65
 389 173 389 173 455 140.5 c 128,-1,66
 521 108 521 108 619.5 88.5 c 128,-1,67
 718 69 718 69 859 69 c 0,38,39
768 375 m 1,68,-1
 919 375 l 1,69,-1
 919 752 l 1,70,-1
 1229 752 l 1,71,-1
 1229 485 l 2,72,73
 1229 457 1229 457 1227 426.5 c 128,-1,74
 1225 396 1225 396 1214 366 c 128,-1,75
 1203 336 1203 336 1179.5 308.5 c 128,-1,76
 1156 281 1156 281 1112 260.5 c 128,-1,77
 1068 240 1068 240 1000.5 227.5 c 128,-1,78
 933 215 933 215 835 215 c 0,79,80
 742 215 742 215 677.5 227.5 c 128,-1,81
 613 240 613 240 570.5 261 c 128,-1,82
 528 282 528 282 505 309.5 c 128,-1,83
 482 337 482 337 471 367.5 c 128,-1,84
 460 398 460 398 458 429 c 128,-1,85
 456 460 456 460 456 489 c 2,86,-1
 456 1159 l 2,87,88
 456 1188 456 1188 458 1219.5 c 128,-1,89
 460 1251 460 1251 471 1281.5 c 128,-1,90
 482 1312 482 1312 505 1339.5 c 128,-1,91
 528 1367 528 1367 570.5 1388 c 128,-1,92
 613 1409 613 1409 677 1421.5 c 128,-1,93
 741 1434 741 1434 835 1434 c 0,94,95
 933 1434 933 1434 1000.5 1421.5 c 128,-1,96
 1068 1409 1068 1409 1112 1388.5 c 128,-1,97
 1156 1368 1156 1368 1179.5 1340.5 c 128,-1,98
 1203 1313 1203 1313 1214 1282.5 c 128,-1,99
 1225 1252 1225 1252 1227 1221.5 c 128,-1,100
 1229 1191 1229 1191 1229 1163 c 2,101,-1
 1229 915 l 1,102,-1
 919 915 l 1,103,-1
 919 1274 l 1,104,-1
 768 1274 l 1,105,-1
 768 375 l 1,68,-1
EndSplineSet
Validated: 1
EndChar

StartChar: guillemotleft
Encoding: 171 171 134
Width: 1870
Flags: W
HStem: 0 21G<721.084 750 1503.08 1532> 1577 20G<721.663 750 1503.66 1532>
LayerCount: 2
Fore
SplineSet
43 1098 m 1,0,-1
 750 1597 l 1,1,-1
 750 1092 l 1,2,-1
 292 797 l 1,3,-1
 750 504 l 1,4,-1
 750 0 l 1,5,-1
 43 489 l 1,6,-1
 43 1098 l 1,0,-1
825 1098 m 1,7,-1
 1532 1597 l 1,8,-1
 1532 1092 l 1,9,-1
 1074 797 l 1,10,-1
 1532 504 l 1,11,-1
 1532 0 l 1,12,-1
 825 489 l 1,13,-1
 825 1098 l 1,7,-1
EndSplineSet
Validated: 1
EndChar

StartChar: logicalnot
Encoding: 172 172 135
Width: 1313
Flags: W
HStem: 680 380<53 837>
VStem: 837 207<237 680>
LayerCount: 2
Fore
SplineSet
1044 237 m 1,0,-1
 837 237 l 1,1,-1
 837 680 l 1,2,-1
 53 680 l 1,3,-1
 53 1060 l 1,4,-1
 1044 1060 l 1,5,-1
 1044 237 l 1,0,-1
EndSplineSet
Validated: 1
EndChar

StartChar: uni00AD
Encoding: 173 173 136
Width: 1006
Flags: W
HStem: 461 336<59 812>
LayerCount: 2
Fore
SplineSet
812 797 m 1,0,-1
 812 461 l 1,1,-1
 59 461 l 1,2,-1
 59 797 l 1,3,-1
 812 797 l 1,0,-1
EndSplineSet
Validated: 1
EndChar

StartChar: registered
Encoding: 174 174 137
Width: 1911
Flags: W
HStem: -102 171<520.982 1194.33> 756 159<786 941> 1274 160<786 940.782> 1573 176<519.725 1197.24>
VStem: 51 217<270.38 1373.53> 474 312<279 756 915 1274> 941 306<279 755.633> 1450 216<272.789 1371.58>
LayerCount: 2
Fore
SplineSet
859 -102 m 256,0,1
 706 -102 706 -102 590 -81.5 c 128,-1,2
 474 -61 474 -61 388.5 -26.5 c 128,-1,3
 303 8 303 8 244.5 54 c 128,-1,4
 186 100 186 100 148.5 152 c 128,-1,5
 111 204 111 204 91 258.5 c 128,-1,6
 71 313 71 313 62 364 c 128,-1,7
 53 415 53 415 52 460.5 c 128,-1,8
 51 506 51 506 51 539 c 2,9,-1
 51 1116 l 2,10,11
 51 1149 51 1149 52 1193.5 c 128,-1,12
 53 1238 53 1238 62 1289 c 128,-1,13
 71 1340 71 1340 91 1393.5 c 128,-1,14
 111 1447 111 1447 148.5 1498.5 c 128,-1,15
 186 1550 186 1550 244.5 1595.5 c 128,-1,16
 303 1641 303 1641 388.5 1675 c 128,-1,17
 474 1709 474 1709 590 1729 c 128,-1,18
 706 1749 706 1749 859 1749 c 256,19,20
 1012 1749 1012 1749 1128 1729 c 128,-1,21
 1244 1709 1244 1709 1329.5 1675 c 128,-1,22
 1415 1641 1415 1641 1473 1595.5 c 128,-1,23
 1531 1550 1531 1550 1568.5 1498.5 c 128,-1,24
 1606 1447 1606 1447 1626 1393.5 c 128,-1,25
 1646 1340 1646 1340 1655 1289 c 128,-1,26
 1664 1238 1664 1238 1665 1193.5 c 128,-1,27
 1666 1149 1666 1149 1666 1116 c 2,28,-1
 1666 539 l 2,29,30
 1666 506 1666 506 1665 460.5 c 128,-1,31
 1664 415 1664 415 1655 364 c 128,-1,32
 1646 313 1646 313 1626 258.5 c 128,-1,33
 1606 204 1606 204 1568.5 152 c 128,-1,34
 1531 100 1531 100 1473 54 c 128,-1,35
 1415 8 1415 8 1329.5 -26.5 c 128,-1,36
 1244 -61 1244 -61 1128 -81.5 c 128,-1,37
 1012 -102 1012 -102 859 -102 c 256,0,1
941 756 m 1,38,-1
 786 756 l 1,39,-1
 786 279 l 1,40,-1
 474 279 l 1,41,-1
 474 1434 l 1,42,-1
 853 1434 l 2,43,44
 951 1434 951 1434 1018.5 1421.5 c 128,-1,45
 1086 1409 1086 1409 1130 1388.5 c 128,-1,46
 1174 1368 1174 1368 1197.5 1340.5 c 128,-1,47
 1221 1313 1221 1313 1232 1282.5 c 128,-1,48
 1243 1252 1243 1252 1245 1221.5 c 128,-1,49
 1247 1191 1247 1191 1247 1163 c 2,50,-1
 1247 1010 l 2,51,52
 1247 963 1247 963 1233 933 c 128,-1,53
 1219 903 1219 903 1198 884.5 c 128,-1,54
 1177 866 1177 866 1152.5 856.5 c 128,-1,55
 1128 847 1128 847 1107 842 c 1,56,57
 1131 839 1131 839 1158 829 c 128,-1,58
 1185 819 1185 819 1207.5 796.5 c 128,-1,59
 1230 774 1230 774 1245 737 c 128,-1,60
 1260 700 1260 700 1260 643 c 2,61,-1
 1262 279 l 1,62,-1
 941 279 l 1,63,-1
 941 756 l 1,38,-1
786 915 m 1,64,-1
 941 915 l 1,65,-1
 941 1274 l 1,66,-1
 786 1274 l 1,67,-1
 786 915 l 1,64,-1
859 69 m 0,68,69
 999 69 999 69 1097 88.5 c 128,-1,70
 1195 108 1195 108 1260.5 140.5 c 128,-1,71
 1326 173 1326 173 1364 215.5 c 128,-1,72
 1402 258 1402 258 1421 304 c 128,-1,73
 1440 350 1440 350 1445 396 c 128,-1,74
 1450 442 1450 442 1450 482 c 2,75,-1
 1450 1165 l 2,76,77
 1450 1205 1450 1205 1445 1250.5 c 128,-1,78
 1440 1296 1440 1296 1421 1341 c 128,-1,79
 1402 1386 1402 1386 1364 1428 c 128,-1,80
 1326 1470 1326 1470 1260.5 1502.5 c 128,-1,81
 1195 1535 1195 1535 1097 1554 c 128,-1,82
 999 1573 999 1573 859 1573 c 0,83,84
 718 1573 718 1573 619.5 1554 c 128,-1,85
 521 1535 521 1535 455 1502.5 c 128,-1,86
 389 1470 389 1470 352 1428 c 128,-1,87
 315 1386 315 1386 296 1341 c 128,-1,88
 277 1296 277 1296 272.5 1250 c 128,-1,89
 268 1204 268 1204 268 1165 c 2,90,-1
 268 482 l 2,91,92
 268 442 268 442 272.5 396 c 128,-1,93
 277 350 277 350 296 304 c 128,-1,94
 315 258 315 258 352 215.5 c 128,-1,95
 389 173 389 173 455 140.5 c 128,-1,96
 521 108 521 108 619.5 88.5 c 128,-1,97
 718 69 718 69 859 69 c 0,68,69
EndSplineSet
Validated: 1
EndChar

StartChar: macron
Encoding: 175 175 138
Width: 774
Flags: W
HStem: 82 336<-147 777>
LayerCount: 2
Fore
SplineSet
777 418 m 1,0,-1
 777 82 l 1,1,-1
 -147 82 l 1,2,-1
 -147 418 l 1,3,-1
 777 418 l 1,0,-1
EndSplineSet
Validated: 1
EndChar

StartChar: degree
Encoding: 176 176 139
Width: 752
Flags: W
HStem: 1081 183<272.296 441.758> 1483 178<272.296 442.745>
VStem: 35 213<1290.4 1457.53> 466 211<1289.54 1458.37>
LayerCount: 2
Fore
SplineSet
355 1661 m 0,0,1
 427 1661 427 1661 486 1638 c 128,-1,2
 545 1615 545 1615 587.5 1576 c 128,-1,3
 630 1537 630 1537 653.5 1484.5 c 128,-1,4
 677 1432 677 1432 677 1372 c 0,5,6
 677 1311 677 1311 653.5 1258 c 128,-1,7
 630 1205 630 1205 587.5 1165.5 c 128,-1,8
 545 1126 545 1126 486 1103.5 c 128,-1,9
 427 1081 427 1081 355 1081 c 0,10,11
 284 1081 284 1081 225.5 1103.5 c 128,-1,12
 167 1126 167 1126 124.5 1165.5 c 128,-1,13
 82 1205 82 1205 58.5 1258 c 128,-1,14
 35 1311 35 1311 35 1372 c 0,15,16
 35 1432 35 1432 58.5 1484.5 c 128,-1,17
 82 1537 82 1537 124.5 1576 c 128,-1,18
 167 1615 167 1615 225.5 1638 c 128,-1,19
 284 1661 284 1661 355 1661 c 0,0,1
357 1483 m 0,20,21
 305 1483 305 1483 276.5 1451.5 c 128,-1,22
 248 1420 248 1420 248 1374 c 0,23,24
 248 1329 248 1329 276.5 1296.5 c 128,-1,25
 305 1264 305 1264 357 1264 c 0,26,27
 411 1264 411 1264 438.5 1296.5 c 128,-1,28
 466 1329 466 1329 466 1374 c 0,29,30
 466 1420 466 1420 438.5 1451.5 c 128,-1,31
 411 1483 411 1483 357 1483 c 0,20,21
EndSplineSet
Validated: 1
EndChar

StartChar: plusminus
Encoding: 177 177 140
Width: 1339
Flags: W
HStem: 0 328<173 926> 712 350<41 352 758 1069>
VStem: 352 406<434 712 1062 1358>
LayerCount: 2
Fore
SplineSet
352 1062 m 1,0,-1
 352 1358 l 1,1,-1
 758 1358 l 1,2,-1
 758 1062 l 1,3,-1
 1069 1062 l 1,4,-1
 1069 712 l 1,5,-1
 758 712 l 1,6,-1
 758 434 l 1,7,-1
 352 434 l 1,8,-1
 352 712 l 1,9,-1
 41 712 l 1,10,-1
 41 1062 l 1,11,-1
 352 1062 l 1,0,-1
926 328 m 1,12,-1
 926 0 l 1,13,-1
 173 0 l 1,14,-1
 173 328 l 1,15,-1
 926 328 l 1,12,-1
EndSplineSet
Validated: 1
EndChar

StartChar: twosuperior
Encoding: 178 178 141
Width: 1167
Flags: W
HStem: 0 240<463 921>
VStem: 63 400<240 350.34 851 1085.15> 546 418<810.383 1085.16>
LayerCount: 2
Fore
SplineSet
63 851 m 1,0,1
 63 920 63 920 68 980.5 c 128,-1,2
 73 1041 73 1041 88.5 1091.5 c 128,-1,3
 104 1142 104 1142 133.5 1182 c 128,-1,4
 163 1222 163 1222 212 1249.5 c 128,-1,5
 261 1277 261 1277 333 1291.5 c 128,-1,6
 405 1306 405 1306 505 1306 c 0,7,8
 653 1306 653 1306 743.5 1276 c 128,-1,9
 834 1246 834 1246 883 1191 c 128,-1,10
 932 1136 932 1136 948 1059.5 c 128,-1,11
 964 983 964 983 964 890 c 0,12,13
 964 777 964 777 942.5 700.5 c 128,-1,14
 921 624 921 624 885.5 574 c 128,-1,15
 850 524 850 524 805 494 c 128,-1,16
 760 464 760 464 713.5 444.5 c 128,-1,17
 667 425 667 425 622 410.5 c 128,-1,18
 577 396 577 396 541.5 375.5 c 128,-1,19
 506 355 506 355 484.5 324 c 128,-1,20
 463 293 463 293 463 240 c 1,21,-1
 921 240 l 1,22,-1
 921 0 l 1,23,-1
 63 0 l 1,24,-1
 63 242 l 2,25,26
 63 366 63 366 84 454 c 128,-1,27
 105 542 105 542 138.5 602 c 128,-1,28
 172 662 172 662 215.5 698.5 c 128,-1,29
 259 735 259 735 304.5 756 c 128,-1,30
 350 777 350 777 393.5 786.5 c 128,-1,31
 437 796 437 796 470.5 802 c 128,-1,32
 504 808 504 808 525 815 c 128,-1,33
 546 822 546 822 546 838 c 2,34,-1
 546 1086 l 1,35,-1
 463 1086 l 1,36,-1
 463 851 l 1,37,-1
 63 851 l 1,0,1
EndSplineSet
Validated: 1
EndChar

StartChar: threesuperior
Encoding: 179 179 142
Width: 1194
Flags: W
HStem: -30 219<456.363 551.262> 566 180<391 553> 1091 217<455.919 551.262>
VStem: 55 400<189.964 491 820 1089.49> 553 417<190.236 565.808 746.186 1090.39>
LayerCount: 2
Fore
SplineSet
55 820 m 1,0,1
 55 900 55 900 60.5 967.5 c 128,-1,2
 66 1035 66 1035 83 1089.5 c 128,-1,3
 100 1144 100 1144 131 1185 c 128,-1,4
 162 1226 162 1226 212.5 1253 c 128,-1,5
 263 1280 263 1280 336 1294 c 128,-1,6
 409 1308 409 1308 511 1308 c 256,7,8
 613 1308 613 1308 686.5 1293 c 128,-1,9
 760 1278 760 1278 811 1251 c 128,-1,10
 862 1224 862 1224 893 1186 c 128,-1,11
 924 1148 924 1148 941.5 1102 c 128,-1,12
 959 1056 959 1056 964.5 1003 c 128,-1,13
 970 950 970 950 970 894 c 0,14,15
 970 822 970 822 954.5 776.5 c 128,-1,16
 939 731 939 731 921 704 c 1,17,18
 898 672 898 672 872 656 c 1,19,20
 899 641 899 641 921 610 c 0,21,22
 939 584 939 584 954.5 537.5 c 128,-1,23
 970 491 970 491 970 418 c 0,24,25
 970 360 970 360 964.5 304 c 128,-1,26
 959 248 959 248 941.5 198 c 128,-1,27
 924 148 924 148 893 106 c 128,-1,28
 862 64 862 64 811 34 c 128,-1,29
 760 4 760 4 686.5 -13 c 128,-1,30
 613 -30 613 -30 511 -30 c 0,31,32
 410 -30 410 -30 336.5 -15 c 128,-1,33
 263 0 263 0 212.5 30 c 128,-1,34
 162 60 162 60 131 104 c 128,-1,35
 100 148 100 148 83 206 c 128,-1,36
 66 264 66 264 60.5 335.5 c 128,-1,37
 55 407 55 407 55 492 c 1,38,-1
 455 491 l 1,39,-1
 455 189 l 1,40,-1
 553 189 l 1,41,-1
 553 566 l 1,42,-1
 391 566 l 1,43,-1
 391 746 l 1,44,-1
 553 746 l 1,45,-1
 553 1091 l 1,46,-1
 455 1091 l 1,47,-1
 455 820 l 1,48,-1
 55 820 l 1,0,1
EndSplineSet
Validated: 1
EndChar

StartChar: acute
Encoding: 180 180 143
Width: 1706
Flags: W
HStem: 41 649
LayerCount: 2
Fore
SplineSet
1363 266 m 1,0,-1
 537 41 l 1,1,-1
 472 167 l 1,2,-1
 1197 690 l 1,3,-1
 1363 266 l 1,0,-1
EndSplineSet
Validated: 1
EndChar

StartChar: mu
Encoding: 181 181 144
Width: 1491
Flags: W
HStem: 0 21G<884.895 1303> 1280 20G<74 550 826 1303>
VStem: 74 476<-345 -16 237 1300> 826 477<237 1300>
LayerCount: 2
Fore
SplineSet
74 1300 m 1,0,-1
 550 1300 l 1,1,-1
 550 237 l 1,2,-1
 826 237 l 1,3,-1
 826 1300 l 1,4,-1
 1303 1300 l 1,5,-1
 1303 0 l 1,6,-1
 892 0 l 1,7,-1
 865 76 l 1,8,9
 839 56 839 56 800.5 41.5 c 128,-1,10
 762 27 762 27 718 16 c 128,-1,11
 674 5 674 5 629 -2.5 c 128,-1,12
 584 -10 584 -10 546 -16 c 1,13,-1
 546 -345 l 1,14,-1
 74 -345 l 1,15,-1
 74 1300 l 1,0,-1
EndSplineSet
Validated: 1
EndChar

StartChar: paragraph
Encoding: 182 182 145
Width: 1370
Flags: W
HStem: 0 21G<520 757 856 1092> 1575 20G<549.5 1092>
VStem: 37 1055<870.968 1369.04> 520 237<0 658> 856 236<0 658>
LayerCount: 2
Fore
SplineSet
520 659 m 1,0,1
 382 659 382 659 289 692.5 c 128,-1,2
 196 726 196 726 140 785.5 c 128,-1,3
 84 845 84 845 60.5 927 c 128,-1,4
 37 1009 37 1009 37 1107 c 0,5,6
 37 1180 37 1180 46 1245 c 128,-1,7
 55 1310 55 1310 79 1364 c 128,-1,8
 103 1418 103 1418 144 1461 c 128,-1,9
 185 1504 185 1504 248.5 1534 c 128,-1,10
 312 1564 312 1564 401 1579.5 c 128,-1,11
 490 1595 490 1595 609 1595 c 2,12,-1
 1092 1595 l 1,13,-1
 1092 0 l 1,14,-1
 856 0 l 1,15,-1
 856 658 l 1,16,-1
 757 658 l 1,17,-1
 757 0 l 1,18,-1
 520 0 l 1,19,-1
 520 659 l 1,0,1
EndSplineSet
Validated: 1
EndChar

StartChar: periodcentered
Encoding: 183 183 146
Width: 698
Flags: W
HStem: 655 467<80 538>
VStem: 80 458<655 1122>
LayerCount: 2
Fore
SplineSet
538 655 m 1,0,-1
 80 655 l 1,1,-1
 80 1122 l 1,2,-1
 538 1122 l 1,3,-1
 538 655 l 1,0,-1
EndSplineSet
Validated: 1
EndChar

StartChar: cedilla
Encoding: 184 184 147
Width: 1456
Flags: W
HStem: -782 180<689.358 833.798> -288 296<533 797>
VStem: 385 303<-601.394 -415> 836 302<-601.209 -288.445>
LayerCount: 2
Fore
SplineSet
533 8 m 1,0,-1
 797 8 l 1,1,-1
 797 -106 l 1,2,3
 879 -106 879 -106 936.5 -118 c 128,-1,4
 994 -130 994 -130 1032 -150.5 c 128,-1,5
 1070 -171 1070 -171 1091.5 -197 c 128,-1,6
 1113 -223 1113 -223 1123 -252 c 128,-1,7
 1133 -281 1133 -281 1135.5 -310.5 c 128,-1,8
 1138 -340 1138 -340 1138 -366 c 2,9,-1
 1138 -522 l 2,10,11
 1138 -548 1138 -548 1135.5 -578 c 128,-1,12
 1133 -608 1133 -608 1121.5 -636.5 c 128,-1,13
 1110 -665 1110 -665 1086.5 -691.5 c 128,-1,14
 1063 -718 1063 -718 1021 -738 c 128,-1,15
 979 -758 979 -758 916 -770 c 128,-1,16
 853 -782 853 -782 762 -782 c 0,17,18
 670 -782 670 -782 606 -770 c 128,-1,19
 542 -758 542 -758 500 -738 c 128,-1,20
 458 -718 458 -718 435 -691.5 c 128,-1,21
 412 -665 412 -665 401 -636.5 c 128,-1,22
 390 -608 390 -608 387.5 -578.5 c 128,-1,23
 385 -549 385 -549 385 -522 c 2,24,-1
 385 -415 l 1,25,-1
 688 -415 l 1,26,-1
 688 -602 l 1,27,-1
 836 -602 l 1,28,-1
 836 -288 l 1,29,-1
 533 -288 l 1,30,-1
 533 8 l 1,0,-1
EndSplineSet
Validated: 1
EndChar

StartChar: onesuperior
Encoding: 185 185 148
Width: 834
Flags: W
HStem: 0 21G<162 622> 1081 195<25 162>
VStem: 162 460<0 1081>
LayerCount: 2
Fore
SplineSet
622 1276 m 1,0,-1
 622 0 l 1,1,-1
 162 0 l 1,2,-1
 162 1081 l 1,3,-1
 25 1081 l 1,4,-1
 25 1276 l 1,5,-1
 622 1276 l 1,0,-1
EndSplineSet
Validated: 1
EndChar

StartChar: AE
Encoding: 198 198 161
Width: 2081
Flags: W
HStem: 0 244<1319 1668> 348 230<671 828> 711 250<1319 1647> 1354 241<1319 1668>
VStem: 828 491<244 348 578 711 961 1217>
LayerCount: 2
Fore
SplineSet
605 348 m 1,0,-1
 505 0 l 1,1,-1
 -31 0 l 1,2,-1
 544 1595 l 1,3,-1
 1668 1595 l 1,4,-1
 1668 1354 l 1,5,-1
 1319 1354 l 1,6,-1
 1319 961 l 1,7,-1
 1647 961 l 1,8,-1
 1647 711 l 1,9,-1
 1319 711 l 1,10,-1
 1319 244 l 1,11,-1
 1668 244 l 1,12,-1
 1668 0 l 1,13,-1
 828 0 l 1,14,-1
 828 348 l 1,15,-1
 605 348 l 1,0,-1
671 578 m 1,16,-1
 828 578 l 1,17,-1
 828 1217 l 1,18,-1
 671 578 l 1,16,-1
EndSplineSet
Validated: 1
EndChar

StartChar: Eth
Encoding: 208 208 171
Width: 1710
Flags: W
HStem: 0 237<662 897.236> 726 142<49 770> 1358 237<662 897.236>
VStem: 145 517<237 1358> 898 517<237.896 1357.42>
LayerCount: 2
Fore
SplineSet
770 868 m 1,0,-1
 770 726 l 1,1,-1
 49 726 l 1,2,-1
 49 868 l 1,3,-1
 770 868 l 1,0,-1
662 237 m 1,4,-1
 898 237 l 1,5,-1
 898 1358 l 1,6,-1
 662 1358 l 1,7,-1
 662 237 l 1,4,-1
1415 393 m 2,8,9
 1415 353 1415 353 1412.5 308.5 c 128,-1,10
 1410 264 1410 264 1393.5 220 c 128,-1,11
 1377 176 1377 176 1342.5 136.5 c 128,-1,12
 1308 97 1308 97 1243.5 66.5 c 128,-1,13
 1179 36 1179 36 1080 18 c 128,-1,14
 981 0 981 0 836 0 c 2,15,-1
 145 0 l 1,16,-1
 145 1595 l 1,17,-1
 836 1595 l 2,18,19
 981 1595 981 1595 1080 1577 c 128,-1,20
 1179 1559 1179 1559 1243.5 1529 c 128,-1,21
 1308 1499 1308 1499 1342.5 1459.5 c 128,-1,22
 1377 1420 1377 1420 1393.5 1376.5 c 128,-1,23
 1410 1333 1410 1333 1412.5 1288.5 c 128,-1,24
 1415 1244 1415 1244 1415 1204 c 2,25,-1
 1415 393 l 2,8,9
EndSplineSet
Validated: 5
EndChar

StartChar: multiply
Encoding: 215 215 178
Width: 1358
Flags: W
LayerCount: 2
Fore
SplineSet
1132 924 m 1,0,-1
 899 649 l 1,1,-1
 1132 375 l 1,2,-1
 816 4 l 1,3,-1
 584 279 l 1,4,-1
 350 4 l 1,5,-1
 35 375 l 1,6,-1
 269 649 l 1,7,-1
 35 924 l 1,8,-1
 350 1294 l 1,9,-1
 584 1020 l 1,10,-1
 816 1294 l 1,11,-1
 1132 924 l 1,0,-1
EndSplineSet
Validated: 1
EndChar

StartChar: Oslash
Encoding: 216 216 179
Width: 1634
Flags: W
HStem: -39 276<595 830.291> 1358 274<595.05 830.291>
VStem: 831 517<237.695 1267>
LayerCount: 2
Fore
SplineSet
1149 1817 m 1,0,-1
 1259 1716 l 1,1,-1
 215 -166 l 1,2,-1
 99 -70 l 1,3,-1
 1149 1817 l 1,0,-1
595 237 m 1,4,-1
 831 237 l 1,5,-1
 831 1358 l 1,6,-1
 595 1358 l 1,7,-1
 595 237 l 1,4,-1
706 -39 m 0,8,9
 556 -39 556 -39 450.5 -19.5 c 128,-1,10
 345 0 345 0 275.5 32 c 128,-1,11
 206 64 206 64 166.5 106 c 128,-1,12
 127 148 127 148 107 193.5 c 128,-1,13
 87 239 87 239 82.5 285 c 128,-1,14
 78 331 78 331 78 371 c 2,15,-1
 78 1227 l 2,16,17
 78 1267 78 1267 82.5 1312.5 c 128,-1,18
 87 1358 87 1358 107 1403 c 128,-1,19
 127 1448 127 1448 166.5 1489.5 c 128,-1,20
 206 1531 206 1531 275.5 1562.5 c 128,-1,21
 345 1594 345 1594 450 1613 c 128,-1,22
 555 1632 555 1632 706 1632 c 0,23,24
 858 1632 858 1632 964.5 1613 c 128,-1,25
 1071 1594 1071 1594 1142.5 1562.5 c 128,-1,26
 1214 1531 1214 1531 1255 1489.5 c 128,-1,27
 1296 1448 1296 1448 1316.5 1403 c 128,-1,28
 1337 1358 1337 1358 1342.5 1312.5 c 128,-1,29
 1348 1267 1348 1267 1348 1227 c 2,30,-1
 1348 371 l 2,31,32
 1348 331 1348 331 1342.5 285 c 128,-1,33
 1337 239 1337 239 1316.5 193.5 c 128,-1,34
 1296 148 1296 148 1255 106 c 128,-1,35
 1214 64 1214 64 1142.5 32 c 128,-1,36
 1071 0 1071 0 964.5 -19.5 c 128,-1,37
 858 -39 858 -39 706 -39 c 0,8,9
EndSplineSet
Validated: 5
EndChar

StartChar: Thorn
Encoding: 222 222 185
Width: 1599
Flags: W
HStem: 0 21G<96 593> 250 232<593 828.091> 1182 231<593 828.091> 1575 20G<96 593>
VStem: 96 497<0 250 482 1182 1413 1595> 829 497<482.474 1180.88>
LayerCount: 2
Fore
SplineSet
96 1595 m 1,0,-1
 593 1595 l 1,1,-1
 593 1413 l 1,2,-1
 764 1413 l 2,3,4
 906 1413 906 1413 1003 1395 c 128,-1,5
 1100 1377 1100 1377 1162.5 1347 c 128,-1,6
 1225 1317 1225 1317 1258.5 1277.5 c 128,-1,7
 1292 1238 1292 1238 1307 1194.5 c 128,-1,8
 1322 1151 1322 1151 1324 1106.5 c 128,-1,9
 1326 1062 1326 1062 1326 1022 c 2,10,-1
 1326 641 l 2,11,12
 1326 601 1326 601 1324 556.5 c 128,-1,13
 1322 512 1322 512 1307 469 c 128,-1,14
 1292 426 1292 426 1258.5 386 c 128,-1,15
 1225 346 1225 346 1162.5 316 c 128,-1,16
 1100 286 1100 286 1003 268 c 128,-1,17
 906 250 906 250 764 250 c 2,18,-1
 593 250 l 1,19,-1
 593 0 l 1,20,-1
 96 0 l 1,21,-1
 96 1595 l 1,0,-1
593 482 m 1,22,-1
 829 482 l 1,23,-1
 829 1182 l 1,24,-1
 593 1182 l 1,25,-1
 593 482 l 1,22,-1
EndSplineSet
Validated: 1
EndChar

StartChar: germandbls
Encoding: 223 223 186
Width: 1483
Flags: W
HStem: -37 231<672 810.643> 750 231<699 811> 1358 237<577.379 810.679>
VStem: 78 497<-205 1357.28> 811 497<195 720.532> 811 427<992.117 1357.33>
LayerCount: 2
Fore
SplineSet
575 -205 m 1,0,-1
 78 -205 l 1,1,-1
 78 1217 l 2,2,3
 78 1256 78 1256 82.5 1299.5 c 128,-1,4
 87 1343 87 1343 106 1385 c 128,-1,5
 125 1427 125 1427 163.5 1465 c 128,-1,6
 202 1503 202 1503 270.5 1532 c 128,-1,7
 339 1561 339 1561 442.5 1578 c 128,-1,8
 546 1595 546 1595 695 1595 c 0,9,10
 828 1595 828 1595 920 1574.5 c 128,-1,11
 1012 1554 1012 1554 1072.5 1520 c 128,-1,12
 1133 1486 1133 1486 1166.5 1441.5 c 128,-1,13
 1200 1397 1200 1397 1216 1350 c 128,-1,14
 1232 1303 1232 1303 1235 1256 c 128,-1,15
 1238 1209 1238 1209 1238 1170 c 0,16,17
 1238 1111 1238 1111 1226 1068.5 c 128,-1,18
 1214 1026 1214 1026 1195 995 c 128,-1,19
 1176 964 1176 964 1151.5 943.5 c 128,-1,20
 1127 923 1127 923 1102 909 c 0,21,22
 1042 876 1042 876 966 870 c 1,23,24
 1018 867 1018 867 1078 851 c 128,-1,25
 1138 835 1138 835 1189 798.5 c 128,-1,26
 1240 762 1240 762 1274 702.5 c 128,-1,27
 1308 643 1308 643 1308 553 c 2,28,-1
 1308 258 l 2,29,30
 1308 222 1308 222 1303 186 c 128,-1,31
 1298 150 1298 150 1280 117.5 c 128,-1,32
 1262 85 1262 85 1226 56.5 c 128,-1,33
 1190 28 1190 28 1129 7.5 c 128,-1,34
 1068 -13 1068 -13 976.5 -25 c 128,-1,35
 885 -37 885 -37 756 -37 c 2,36,-1
 672 -37 l 1,37,-1
 672 194 l 1,38,-1
 811 194 l 1,39,-1
 811 750 l 1,40,-1
 699 750 l 1,41,-1
 699 981 l 1,42,-1
 811 981 l 1,43,-1
 811 1358 l 1,44,-1
 575 1358 l 1,45,-1
 575 -205 l 1,0,-1
EndSplineSet
Validated: 1
EndChar

StartChar: ae
Encoding: 230 230 193
Width: 2191
Flags: W
HStem: -36 273<528.637 762.476 1262.21 1494.2> 579 178<1261 1498> 602 193<530.303 764> 1060 283<529.589 763.723 1262.28 1497.56>
VStem: 31 497<237.983 574.203> 101 427<895.219 1058.91> 764 497<237 579 782 1060> 1498 496<237.032 450 757 1059.66>
LayerCount: 2
Fore
SplineSet
1994 451 m 1,0,1
 1994 380 1994 380 1989.5 316.5 c 128,-1,2
 1985 253 1985 253 1966 198.5 c 128,-1,3
 1947 144 1947 144 1907.5 101 c 128,-1,4
 1868 58 1868 58 1798.5 27.5 c 128,-1,5
 1729 -3 1729 -3 1623.5 -19.5 c 128,-1,6
 1518 -36 1518 -36 1366 -36 c 0,7,8
 1272 -36 1272 -36 1207 -16.5 c 128,-1,9
 1142 3 1142 3 1099 27 c 0,10,11
 1048 55 1048 55 1016 90 c 1,12,13
 983 54 983 54 921 27 c 0,14,15
 868 3 868 3 777 -16.5 c 128,-1,16
 686 -36 686 -36 545 -36 c 0,17,18
 413 -36 413 -36 316 -2.5 c 128,-1,19
 219 31 219 31 155.5 86.5 c 128,-1,20
 92 142 92 142 61.5 215 c 128,-1,21
 31 288 31 288 31 368 c 0,22,23
 31 447 31 447 55 523.5 c 128,-1,24
 79 600 79 600 140.5 660.5 c 128,-1,25
 202 721 202 721 307 758 c 128,-1,26
 412 795 412 795 575 795 c 0,27,28
 620 795 620 795 666.5 792 c 128,-1,29
 713 789 713 789 764 782 c 1,30,-1
 764 1060 l 1,31,-1
 528 1060 l 1,32,-1
 528 893 l 1,33,-1
 126 894 l 1,34,35
 115 933 115 933 108 971 c 128,-1,36
 101 1009 101 1009 101 1044 c 0,37,38
 101 1104 101 1104 127 1158.5 c 128,-1,39
 153 1213 153 1213 218.5 1254 c 128,-1,40
 284 1295 284 1295 395 1319 c 128,-1,41
 506 1343 506 1343 676 1343 c 0,42,43
 766 1343 766 1343 828 1330.5 c 128,-1,44
 890 1318 890 1318 932 1303 c 0,45,46
 980 1285 980 1285 1011 1263 c 1,47,48
 1047 1284 1047 1284 1101 1303 c 0,49,50
 1146 1318 1146 1318 1212 1330.5 c 128,-1,51
 1278 1343 1278 1343 1366 1343 c 0,52,53
 1517 1343 1517 1343 1622.5 1325 c 128,-1,54
 1728 1307 1728 1307 1798 1277 c 128,-1,55
 1868 1247 1868 1247 1907.5 1207.5 c 128,-1,56
 1947 1168 1947 1168 1966 1125 c 128,-1,57
 1985 1082 1985 1082 1989.5 1037.5 c 128,-1,58
 1994 993 1994 993 1994 954 c 2,59,-1
 1994 579 l 1,60,-1
 1261 579 l 1,61,-1
 1261 237 l 1,62,-1
 1498 237 l 1,63,-1
 1498 450 l 1,64,-1
 1994 451 l 1,0,1
528 602 m 1,65,-1
 528 237 l 1,66,-1
 764 237 l 1,67,-1
 764 602 l 1,68,-1
 528 602 l 1,65,-1
1261 757 m 1,69,-1
 1498 757 l 1,70,-1
 1498 1060 l 1,71,-1
 1261 1060 l 1,72,-1
 1261 757 l 1,69,-1
EndSplineSet
Validated: 1
EndChar

StartChar: eth
Encoding: 240 240 203
Width: 1427
Flags: W
HStem: -38 274<531.377 764.617> 904 192<530.725 707>
VStem: 33 497<237.345 855.016> 766 497<315.019 900.43>
LayerCount: 2
Fore
SplineSet
474 1415 m 1,0,1
 436 1444 436 1444 400.5 1468.5 c 128,-1,2
 365 1493 365 1493 336 1510 c 2,3,-1
 275 1546 l 1,4,-1
 478 1887 l 1,5,6
 501 1876 501 1876 526.5 1863.5 c 128,-1,7
 552 1851 552 1851 580 1835 c 0,8,9
 628 1809 628 1809 687 1769 c 128,-1,10
 746 1729 746 1729 812 1672 c 1,11,-1
 1000 1815 l 1,12,-1
 1064 1692 l 1,13,-1
 912 1576 l 1,14,15
 974 1511 974 1511 1036.5 1431 c 128,-1,16
 1099 1351 1099 1351 1149.5 1255.5 c 128,-1,17
 1200 1160 1200 1160 1231.5 1047.5 c 128,-1,18
 1263 935 1263 935 1263 806 c 0,19,20
 1263 653 1263 653 1253 531 c 128,-1,21
 1243 409 1243 409 1218 315 c 128,-1,22
 1193 221 1193 221 1149 154 c 128,-1,23
 1105 87 1105 87 1038 44.5 c 128,-1,24
 971 2 971 2 877 -18 c 128,-1,25
 783 -38 783 -38 657 -38 c 0,26,27
 518 -38 518 -38 417.5 -21 c 128,-1,28
 317 -4 317 -4 248 28.5 c 128,-1,29
 179 61 179 61 136.5 109 c 128,-1,30
 94 157 94 157 71 219.5 c 128,-1,31
 48 282 48 282 40.5 358 c 128,-1,32
 33 434 33 434 33 523 c 0,33,34
 33 604 33 604 39 678.5 c 128,-1,35
 45 753 45 753 64 816.5 c 128,-1,36
 83 880 83 880 119.5 931.5 c 128,-1,37
 156 983 156 983 217 1019.5 c 128,-1,38
 278 1056 278 1056 366.5 1076 c 128,-1,39
 455 1096 455 1096 580 1096 c 2,40,-1
 707 1096 l 1,41,42
 707 1124 707 1124 697 1153.5 c 128,-1,43
 687 1183 687 1183 670 1212 c 128,-1,44
 653 1241 653 1241 630 1269 c 128,-1,45
 607 1297 607 1297 580 1323 c 1,46,-1
 352 1150 l 1,47,-1
 289 1274 l 1,48,-1
 474 1415 l 1,0,1
766 904 m 1,49,-1
 530 904 l 1,50,-1
 530 236 l 1,51,-1
 766 236 l 1,52,-1
 766 904 l 1,49,-1
EndSplineSet
Validated: 1
EndChar

StartChar: divide
Encoding: 247 247 210
Width: 1313
Flags: W
HStem: 92 467<334 792> 670 238<39 1089> 1000 497<334 792>
VStem: 334 458<92 559 1000 1497>
LayerCount: 2
Fore
SplineSet
792 92 m 1,0,-1
 334 92 l 1,1,-1
 334 559 l 1,2,-1
 792 559 l 1,3,-1
 792 92 l 1,0,-1
792 1000 m 1,4,-1
 334 1000 l 1,5,-1
 334 1497 l 1,6,-1
 792 1497 l 1,7,-1
 792 1000 l 1,4,-1
1089 908 m 1,8,-1
 1089 670 l 1,9,-1
 39 670 l 1,10,-1
 39 908 l 1,11,-1
 1089 908 l 1,8,-1
EndSplineSet
Validated: 1
EndChar

StartChar: oslash
Encoding: 248 248 211
Width: 1487
Flags: W
HStem: -39 317<556.014 752.801> 1029 314<556.438 750.781>
VStem: 59 497<278.156 379 627 1028.2> 753 497<278.555 673 920 1028.75>
LayerCount: 2
Fore
SplineSet
659 -39 m 0,0,1
 542 -39 542 -39 455.5 -27.5 c 128,-1,2
 369 -16 369 -16 305 4 c 1,3,-1
 215 -131 l 1,4,-1
 99 -53 l 1,5,-1
 178 65 l 1,6,7
 136 96 136 96 112 132 c 128,-1,8
 88 168 88 168 76 205.5 c 128,-1,9
 64 243 64 243 61.5 280.5 c 128,-1,10
 59 318 59 318 59 352 c 2,11,-1
 59 952 l 2,12,13
 59 992 59 992 63 1036.5 c 128,-1,14
 67 1081 67 1081 85.5 1124.5 c 128,-1,15
 104 1168 104 1168 141.5 1207.5 c 128,-1,16
 179 1247 179 1247 245.5 1277 c 128,-1,17
 312 1307 312 1307 413 1325 c 128,-1,18
 514 1343 514 1343 659 1343 c 0,19,20
 774 1343 774 1343 859.5 1331.5 c 128,-1,21
 945 1320 945 1320 1008 1300 c 1,22,-1
 1097 1432 l 1,23,-1
 1206 1350 l 1,24,-1
 1132 1240 l 1,25,26
 1174 1209 1174 1209 1198 1173 c 128,-1,27
 1222 1137 1222 1137 1233.5 1099.5 c 128,-1,28
 1245 1062 1245 1062 1247.5 1024 c 128,-1,29
 1250 986 1250 986 1250 952 c 2,30,-1
 1250 352 l 2,31,32
 1250 312 1250 312 1246.5 267.5 c 128,-1,33
 1243 223 1243 223 1225 180 c 128,-1,34
 1207 137 1207 137 1170.5 97 c 128,-1,35
 1134 57 1134 57 1068.5 27 c 128,-1,36
 1003 -3 1003 -3 903 -21 c 128,-1,37
 803 -39 803 -39 659 -39 c 0,0,1
556 627 m 1,38,-1
 753 920 l 1,39,-1
 753 1029 l 1,40,-1
 556 1029 l 1,41,-1
 556 627 l 1,38,-1
753 278 m 1,42,-1
 753 673 l 1,43,-1
 556 379 l 1,44,-1
 556 278 l 1,45,-1
 753 278 l 1,42,-1
EndSplineSet
Validated: 1
EndChar

StartChar: thorn
Encoding: 254 254 217
Width: 1483
Flags: W
HStem: -409 21G<80 557> -23 260<619.646 833> 1060 263<613.579 833> 1582 20G<80 557>
VStem: 80 477<-409 78 237 1060 1225 1602> 833 477<237.438 1059.69>
LayerCount: 2
Fore
SplineSet
557 1602 m 1,0,-1
 557 1225 l 1,1,2
 567 1240 567 1240 584 1257 c 128,-1,3
 601 1274 601 1274 637 1289 c 128,-1,4
 673 1304 673 1304 734 1313.5 c 128,-1,5
 795 1323 795 1323 894 1323 c 0,6,7
 997 1323 997 1323 1068.5 1303.5 c 128,-1,8
 1140 1284 1140 1284 1186 1251.5 c 128,-1,9
 1232 1219 1232 1219 1257 1176 c 128,-1,10
 1282 1133 1282 1133 1294 1087 c 128,-1,11
 1306 1041 1306 1041 1308 995 c 128,-1,12
 1310 949 1310 949 1310 909 c 2,13,-1
 1310 391 l 2,14,15
 1310 351 1310 351 1308 305 c 128,-1,16
 1306 259 1306 259 1294 213 c 128,-1,17
 1282 167 1282 167 1257 124.5 c 128,-1,18
 1232 82 1232 82 1186 49 c 128,-1,19
 1140 16 1140 16 1068.5 -3.5 c 128,-1,20
 997 -23 997 -23 894 -23 c 0,21,22
 794 -23 794 -23 734 -13 c 128,-1,23
 674 -3 674 -3 639.5 12 c 128,-1,24
 605 27 605 27 588 44.5 c 128,-1,25
 571 62 571 62 557 78 c 1,26,-1
 557 -409 l 1,27,-1
 80 -409 l 1,28,-1
 80 1602 l 1,29,-1
 557 1602 l 1,0,-1
557 237 m 1,30,-1
 833 237 l 1,31,-1
 833 1060 l 1,32,-1
 557 1060 l 1,33,-1
 557 237 l 1,30,-1
EndSplineSet
Validated: 1
EndChar

StartChar: fi
Encoding: 64257 64257 219
Width: 1819
Flags: W
HStem: 0 21G<163 691 951 1479> 1098 202<10 163 691 951> 1393 317<951 1479> 1477 233<691 951>
VStem: 163 528<0 1098 1300 1475.43> 951 528<0 1098 1393 1477>
LayerCount: 2
Fore
SplineSet
1479 0 m 1,0,-1
 951 0 l 1,1,-1
 951 1098 l 1,2,-1
 691 1098 l 1,3,-1
 691 0 l 1,4,-1
 163 0 l 1,5,-1
 163 1098 l 1,6,-1
 10 1098 l 1,7,-1
 10 1300 l 1,8,-1
 163 1300 l 1,9,-1
 163 1317 l 2,10,11
 163 1420 163 1420 184.5 1494.5 c 128,-1,12
 206 1569 206 1569 259.5 1617 c 128,-1,13
 313 1665 313 1665 404 1687.5 c 128,-1,14
 495 1710 495 1710 635 1710 c 2,15,-1
 1479 1710 l 1,16,-1
 1479 1393 l 1,17,-1
 951 1393 l 1,18,-1
 951 1477 l 1,19,-1
 691 1477 l 1,20,-1
 691 1300 l 1,21,-1
 1479 1300 l 1,22,-1
 1479 0 l 1,0,-1
EndSplineSet
Validated: 1
EndChar

StartChar: fl
Encoding: 64258 64258 220
Width: 1823
Flags: W
HStem: 0 21G<163 691 955 1483> 1098 202<10 163 691 955> 1477 234<691 955>
VStem: 163 528<0 1098 1300 1475.43> 955 528<0 1098 1300 1477>
LayerCount: 2
Fore
SplineSet
1483 0 m 1,0,-1
 955 0 l 1,1,-1
 955 1098 l 1,2,-1
 691 1098 l 1,3,-1
 691 0 l 1,4,-1
 163 0 l 1,5,-1
 163 1098 l 1,6,-1
 10 1098 l 1,7,-1
 10 1300 l 1,8,-1
 163 1300 l 1,9,-1
 163 1317 l 2,10,11
 163 1420 163 1420 184.5 1494.5 c 128,-1,12
 206 1569 206 1569 259.5 1617 c 128,-1,13
 313 1665 313 1665 404 1688 c 128,-1,14
 495 1711 495 1711 635 1711 c 2,15,-1
 1483 1710 l 1,16,-1
 1483 0 l 1,0,-1
691 1300 m 1,17,-1
 955 1300 l 1,18,-1
 955 1477 l 1,19,-1
 691 1477 l 1,20,-1
 691 1300 l 1,17,-1
EndSplineSet
Validated: 1
EndChar

StartChar: Lslash
Encoding: 321 321 221
Width: 1567
Flags: W
HStem: 0 237<793 1101> 1575 20G<276 793>
VStem: 276 517<237 1595>
LayerCount: 2
Fore
SplineSet
1036 935 m 1,0,-1
 29 412 l 1,1,-1
 29 752 l 1,2,-1
 1036 1273 l 1,3,-1
 1036 935 l 1,0,-1
276 0 m 1,4,-1
 276 1595 l 1,5,-1
 793 1595 l 1,6,-1
 793 237 l 1,7,-1
 1101 237 l 1,8,-1
 1101 0 l 1,9,-1
 276 0 l 1,4,-1
EndSplineSet
Validated: 5
EndChar

StartChar: lslash
Encoding: 322 322 222
Width: 1124
Flags: W
HStem: 0 21G<214 691> 1690 20G<214 691>
VStem: 214 477<0 1710>
LayerCount: 2
Fore
SplineSet
945 1023 m 1,0,-1
 14 539 l 1,1,-1
 14 788 l 1,2,-1
 945 1271 l 1,3,-1
 945 1023 l 1,0,-1
691 0 m 1,4,-1
 214 0 l 1,5,-1
 214 1710 l 1,6,-1
 691 1710 l 1,7,-1
 691 0 l 1,4,-1
EndSplineSet
Validated: 5
EndChar

StartChar: minus
Encoding: 8722 8722 225
Width: 1012
Flags: W
HStem: 461 336<61 814>
LayerCount: 2
Fore
SplineSet
814 797 m 1,0,-1
 814 461 l 1,1,-1
 61 461 l 1,2,-1
 61 797 l 1,3,-1
 814 797 l 1,0,-1
EndSplineSet
Validated: 1
EndChar

StartChar: caron
Encoding: 711 711 226
Width: 1706
Flags: W
HStem: 82 614<561 749 905 1084>
LayerCount: 2
Fore
SplineSet
561 82 m 1,0,-1
 315 696 l 1,1,-1
 749 696 l 1,2,-1
 825 377 l 1,3,-1
 905 696 l 1,4,-1
 1340 696 l 1,5,-1
 1084 82 l 1,6,-1
 561 82 l 1,0,-1
EndSplineSet
Validated: 1
EndChar

StartChar: dotlessi
Encoding: 305 305 227
Width: 766
Flags: W
HStem: 0 21G<80 594> 1280 20G<80 594>
VStem: 80 514<0 1300>
LayerCount: 2
Fore
SplineSet
594 0 m 1,0,-1
 80 0 l 1,1,-1
 80 1300 l 1,2,-1
 594 1300 l 1,3,-1
 594 0 l 1,0,-1
EndSplineSet
Validated: 1
EndChar

StartChar: ring
Encoding: 730 730 230
Width: 774
Flags: W
HStem: 141 178<285.245 460.788> 538 183<285.827 460.206>
VStem: 53 211<340.268 515.738> 482 213<340.268 515.738>
LayerCount: 2
Fore
SplineSet
375 141 m 0,0,1
 307 141 307 141 248.5 164 c 128,-1,2
 190 187 190 187 146.5 226 c 128,-1,3
 103 265 103 265 78 317.5 c 128,-1,4
 53 370 53 370 53 430 c 0,5,6
 53 491 53 491 78 544 c 128,-1,7
 103 597 103 597 146.5 636.5 c 128,-1,8
 190 676 190 676 248.5 698.5 c 128,-1,9
 307 721 307 721 375 721 c 0,10,11
 441 721 441 721 499 698.5 c 128,-1,12
 557 676 557 676 600.5 636.5 c 128,-1,13
 644 597 644 597 669.5 544 c 128,-1,14
 695 491 695 491 695 430 c 0,15,16
 695 370 695 370 669.5 317.5 c 128,-1,17
 644 265 644 265 600.5 226 c 128,-1,18
 557 187 557 187 499 164 c 128,-1,19
 441 141 441 141 375 141 c 0,0,1
373 319 m 0,20,21
 395 319 395 319 415 327.5 c 128,-1,22
 435 336 435 336 450 350.5 c 128,-1,23
 465 365 465 365 473.5 385 c 128,-1,24
 482 405 482 405 482 428 c 0,25,26
 482 450 482 450 473.5 470 c 128,-1,27
 465 490 465 490 450 505 c 128,-1,28
 435 520 435 520 415 529 c 128,-1,29
 395 538 395 538 373 538 c 0,30,31
 350 538 350 538 330.5 529 c 128,-1,32
 311 520 311 520 296 505 c 128,-1,33
 281 490 281 490 272.5 470 c 128,-1,34
 264 450 264 450 264 428 c 0,35,36
 264 405 264 405 272.5 385 c 128,-1,37
 281 365 281 365 296 350.5 c 128,-1,38
 311 336 311 336 330.5 327.5 c 128,-1,39
 350 319 350 319 373 319 c 0,20,21
EndSplineSet
Validated: 1
EndChar

StartChar: breve
Encoding: 728 728 253
Width: 1288
Flags: W
HStem: 70 403<453.369 674.865>
VStem: 150 272<503.373 731> 705.5 271.5<503.373 731>
LayerCount: 2
Fore
SplineSet
568 70 m 0,0,1
 461 70 461 70 382 103.5 c 128,-1,2
 303 137 303 137 251.5 214.5 c 128,-1,3
 200 292 200 292 175 418.5 c 128,-1,4
 150 545 150 545 150 731 c 1,5,-1
 419 731 l 1,6,7
 419 671 419 671 422 623.5 c 128,-1,8
 425 576 425 576 439 542.5 c 128,-1,9
 453 509 453 509 483.5 491 c 128,-1,10
 514 473 514 473 568 473 c 0,11,12
 619 473 619 473 647.5 491 c 128,-1,13
 676 509 676 509 689.5 542.5 c 128,-1,14
 703 576 703 576 705.5 624 c 128,-1,15
 708 672 708 672 708 731 c 1,16,-1
 977 731 l 1,17,18
 977 545 977 545 952 418.5 c 128,-1,19
 927 292 927 292 876.5 214.5 c 128,-1,20
 826 137 826 137 749 103.5 c 128,-1,21
 672 70 672 70 568 70 c 0,0,1
EndSplineSet
Validated: 1
EndChar

StartChar: hungarumlaut
Encoding: 733 733 263
Width: 2570
Flags: W
LayerCount: 2
Fore
SplineSet
1274 957 m 1,0,-1
 1004 30 l 1,1,-1
 821 30 l 1,2,-1
 821 1015 l 1,3,-1
 1274 957 l 1,0,-1
1789 953 m 1,4,-1
 1519 30 l 1,5,-1
 1336 30 l 1,6,-1
 1336 1011 l 1,7,-1
 1789 953 l 1,4,-1
EndSplineSet
Validated: 1
EndChar

StartChar: ogonek
Encoding: 731 731 283
Width: 1288
Flags: W
HStem: 0 79<598.631 723>
VStem: 276 227<-402.5 -174.254>
LayerCount: 2
Fore
SplineSet
722 -737 m 1,0,1
 605 -737 605 -737 520.5 -706 c 128,-1,2
 436 -675 436 -675 382 -623.5 c 128,-1,3
 328 -572 328 -572 302 -505 c 128,-1,4
 276 -438 276 -438 276 -367 c 0,5,6
 276 -286 276 -286 307 -206 c 128,-1,7
 338 -126 338 -126 396 -63 c 128,-1,8
 454 0 454 0 536.5 39.5 c 128,-1,9
 619 79 619 79 723 79 c 1,10,-1
 723 0 l 1,11,12
 672 0 672 0 631 -20 c 128,-1,13
 590 -40 590 -40 561.5 -72.5 c 128,-1,14
 533 -105 533 -105 518 -146 c 128,-1,15
 503 -187 503 -187 503 -229 c 0,16,17
 503 -267 503 -267 515.5 -301.5 c 128,-1,18
 528 -336 528 -336 555 -363 c 128,-1,19
 582 -390 582 -390 623.5 -406 c 128,-1,20
 665 -422 665 -422 722 -422 c 1,21,-1
 722 -737 l 1,0,1
EndSplineSet
Validated: 1
EndChar

StartChar: dcroat
Encoding: 273 273 296
Width: 1505
Flags: W
HStem: -37 274<540 655.538> 0 21G<876.491 1293> 1060 284<540 671.67> 1457 138<569 1409> 1690 20G<816 1293>
VStem: 63 477<237.343 1059.12> 816 477<237 1060 1199 1710>
LayerCount: 2
Fore
SplineSet
1409 1595 m 1,0,-1
 1409 1457 l 1,1,-1
 569 1457 l 1,2,-1
 569 1595 l 1,3,-1
 1409 1595 l 1,0,-1
1293 1710 m 1,4,-1
 1293 0 l 1,5,-1
 882 0 l 1,6,-1
 836 167 l 1,7,8
 806 117 806 117 763.5 78.5 c 128,-1,9
 721 40 721 40 670 14.5 c 128,-1,10
 619 -11 619 -11 562 -24 c 128,-1,11
 505 -37 505 -37 445 -37 c 0,12,13
 373 -37 373 -37 304 -12 c 128,-1,14
 235 13 235 13 181.5 64.5 c 128,-1,15
 128 116 128 116 95.5 194 c 128,-1,16
 63 272 63 272 63 377 c 2,17,-1
 63 955 l 2,18,19
 63 1055 63 1055 95 1128.5 c 128,-1,20
 127 1202 127 1202 179.5 1250 c 128,-1,21
 232 1298 232 1298 299.5 1321 c 128,-1,22
 367 1344 367 1344 438 1344 c 0,23,24
 552 1344 552 1344 650.5 1307.5 c 128,-1,25
 749 1271 749 1271 816 1199 c 1,26,-1
 816 1710 l 1,27,-1
 1293 1710 l 1,4,-1
816 1060 m 1,28,-1
 540 1060 l 1,29,-1
 540 237 l 1,30,-1
 816 237 l 1,31,-1
 816 1060 l 1,28,-1
EndSplineSet
Validated: 5
EndChar

StartChar: Dcroat
Encoding: 272 272 298
Width: 1679
Flags: W
HStem: 0 237<646 881.236> 726 142<20 741> 1358 237<646 881.236>
VStem: 129 517<237 1358> 882 517<237.896 1357.42>
LayerCount: 2
Fore
SplineSet
741 868 m 1,0,-1
 741 726 l 1,1,-1
 20 726 l 1,2,-1
 20 868 l 1,3,-1
 741 868 l 1,0,-1
646 237 m 1,4,-1
 882 237 l 1,5,-1
 882 1358 l 1,6,-1
 646 1358 l 1,7,-1
 646 237 l 1,4,-1
1399 393 m 2,8,9
 1399 353 1399 353 1396.5 308.5 c 128,-1,10
 1394 264 1394 264 1377.5 220 c 128,-1,11
 1361 176 1361 176 1326.5 136.5 c 128,-1,12
 1292 97 1292 97 1227.5 66.5 c 128,-1,13
 1163 36 1163 36 1064 18 c 128,-1,14
 965 0 965 0 820 0 c 2,15,-1
 129 0 l 1,16,-1
 129 1595 l 1,17,-1
 820 1595 l 2,18,19
 965 1595 965 1595 1064 1577 c 128,-1,20
 1163 1559 1163 1559 1227.5 1529 c 128,-1,21
 1292 1499 1292 1499 1326.5 1459.5 c 128,-1,22
 1361 1420 1361 1420 1377.5 1376.5 c 128,-1,23
 1394 1333 1394 1333 1396.5 1288.5 c 128,-1,24
 1399 1244 1399 1244 1399 1204 c 2,25,-1
 1399 393 l 2,8,9
EndSplineSet
Validated: 5
EndChar

StartChar: four.superior
Encoding: 8308 8308 299
Width: 1210
Flags: W
HStem: 524 288<470 646> 1586 20G<243.507 635>
VStem: 646 334<330 524 812 1080>
LayerCount: 2
Fore
SplineSet
980 330 m 1,0,-1
 646 330 l 1,1,-1
 646 524 l 1,2,-1
 43 524 l 1,3,-1
 43 856 l 1,4,-1
 249 1606 l 1,5,-1
 635 1606 l 1,6,-1
 470 856 l 1,7,-1
 470 812 l 1,8,-1
 646 812 l 1,9,-1
 646 1080 l 1,10,-1
 980 1080 l 1,11,-1
 980 330 l 1,0,-1
EndSplineSet
Validated: 1
EndChar

StartChar: dotaccent
Encoding: 729 729 304
Width: 698
Flags: W
HStem: 0 467<80 538>
VStem: 80 458<0 467>
LayerCount: 2
Fore
SplineSet
538 0 m 1,0,-1
 80 0 l 1,1,-1
 80 467 l 1,2,-1
 538 467 l 1,3,-1
 538 0 l 1,0,-1
EndSplineSet
Validated: 1
EndChar

StartChar: Hbar
Encoding: 294 294 305
Width: 1772
Flags: W
HStem: 0 21G<141 658 944 1461> 688 250<658 944> 1176 124<45 1539> 1575 20G<141 658 944 1461>
VStem: 141 517<0 688 938 1595> 944 517<0 688 938 1595>
LayerCount: 2
Fore
SplineSet
1539 1300 m 1,0,-1
 1539 1176 l 1,1,-1
 45 1176 l 1,2,-1
 45 1300 l 1,3,-1
 1539 1300 l 1,0,-1
1461 1595 m 1,4,-1
 1461 0 l 1,5,-1
 944 0 l 1,6,-1
 944 688 l 1,7,-1
 658 688 l 1,8,-1
 658 0 l 1,9,-1
 141 0 l 1,10,-1
 141 1595 l 1,11,-1
 658 1595 l 1,12,-1
 658 938 l 1,13,-1
 944 938 l 1,14,-1
 944 1595 l 1,15,-1
 1461 1595 l 1,4,-1
EndSplineSet
Validated: 5
EndChar

StartChar: hbar
Encoding: 295 295 309
Width: 1520
Flags: W
HStem: 0 21G<68 545 821 1298> 1060 283<685.401 821> 1454 140<-12 878> 1690 20G<68 545>
VStem: 68 477<0 1060 1188 1710> 821 477<0 1059.25>
LayerCount: 2
Fore
SplineSet
878 1594 m 1,0,-1
 878 1454 l 1,1,-1
 -12 1454 l 1,2,-1
 -12 1594 l 1,3,-1
 878 1594 l 1,0,-1
68 0 m 1,4,-1
 68 1710 l 1,5,-1
 545 1710 l 1,6,-1
 545 1188 l 1,7,8
 569 1225 569 1225 608 1254 c 128,-1,9
 647 1283 647 1283 696 1302.5 c 128,-1,10
 745 1322 745 1322 801 1332.5 c 128,-1,11
 857 1343 857 1343 916 1343 c 0,12,13
 986 1343 986 1343 1054.5 1321 c 128,-1,14
 1123 1299 1123 1299 1177 1253.5 c 128,-1,15
 1231 1208 1231 1208 1264.5 1137 c 128,-1,16
 1298 1066 1298 1066 1298 968 c 2,17,-1
 1298 0 l 1,18,-1
 821 0 l 1,19,-1
 821 1060 l 1,20,-1
 545 1060 l 1,21,-1
 545 0 l 1,22,-1
 68 0 l 1,4,-1
EndSplineSet
Validated: 5
EndChar

StartChar: jcircumflex
Encoding: 309 309 311
Width: 780
Flags: W
HStem: -318.5 252.5<-220.248 35> -285 219<-221 33.3284> 1280 20G<35 563>
VStem: 35 528<-64.8511 1300>
LayerCount: 2
Fore
SplineSet
563 94 m 2,0,1
 563 54 563 54 561 7.5 c 128,-1,2
 559 -39 559 -39 547 -85 c 128,-1,3
 535 -131 535 -131 510.5 -174 c 128,-1,4
 486 -217 486 -217 440.5 -250 c 128,-1,5
 395 -283 395 -283 326 -302.5 c 128,-1,6
 257 -322 257 -322 157 -322 c 0,7,8
 80 -322 80 -322 20 -318.5 c 128,-1,9
 -40 -315 -40 -315 -85.5 -309.5 c 128,-1,10
 -131 -304 -131 -304 -164 -297.5 c 128,-1,11
 -197 -291 -197 -291 -221 -285 c 1,12,-1
 -221 -66 l 1,13,-1
 35 -66 l 1,14,-1
 35 1300 l 1,15,-1
 563 1300 l 1,16,-1
 563 94 l 2,0,1
572 2010 m 1,17,-1
 828 1395 l 1,18,-1
 393 1395 l 1,19,-1
 313 1715 l 1,20,-1
 237 1395 l 1,21,-1
 -197 1395 l 1,22,-1
 49 2010 l 1,23,-1
 572 2010 l 1,17,-1
EndSplineSet
Validated: 1
EndChar

StartChar: kgreenlandic
Encoding: 312 312 323
Width: 1612
Flags: W
HStem: 0 21G<80 608 873.484 1401> 1279 21G<80 608 839.05 1380>
VStem: 80 528<0 318 858 1299>
LayerCount: 2
Fore
SplineSet
80 0 m 1,0,-1
 80 1299 l 1,1,-1
 608 1299 l 1,2,-1
 608 858 l 1,3,-1
 850 1300 l 1,4,-1
 1380 1300 l 1,5,-1
 1077 790 l 1,6,-1
 1401 0 l 1,7,-1
 881 0 l 1,8,-1
 710 455 l 1,9,-1
 608 318 l 1,10,-1
 608 0 l 1,11,-1
 80 0 l 1,0,-1
EndSplineSet
Validated: 1
EndChar

StartChar: tbar
Encoding: 359 359 333
Width: 1001
Flags: W
HStem: 0 21G<196 673> 597 200<41 822> 1100 200<53 196 673 837> 1575 20G<196 673>
VStem: 196 477<0 1100 1300 1595>
LayerCount: 2
Fore
SplineSet
822 797 m 1,0,-1
 822 597 l 1,1,-1
 41 597 l 1,2,-1
 41 797 l 1,3,-1
 822 797 l 1,0,-1
673 0 m 1,4,-1
 196 0 l 1,5,-1
 196 1100 l 1,6,-1
 53 1100 l 1,7,-1
 53 1300 l 1,8,-1
 196 1300 l 1,9,-1
 196 1595 l 1,10,-1
 673 1595 l 1,11,-1
 673 1300 l 1,12,-1
 837 1300 l 1,13,-1
 837 1100 l 1,14,-1
 673 1100 l 1,15,-1
 673 0 l 1,4,-1
EndSplineSet
Validated: 5
EndChar

StartChar: Eng
Encoding: 330 330 334
Width: 1741
Flags: W
HStem: 0 21G<96 498> 1575 20G<96 610.723 1008 1409>
VStem: 96 402<0 711> 500 400<-379.506 -125> 1008 401<-382.092 -144 834 1595>
LayerCount: 2
Fore
SplineSet
1010 -144 m 1,0,-1
 498 711 l 1,1,-1
 498 0 l 1,2,-1
 96 0 l 1,3,-1
 96 1595 l 1,4,-1
 600 1595 l 1,5,-1
 1008 834 l 1,6,-1
 1008 1595 l 1,7,-1
 1409 1595 l 1,8,-1
 1409 -245 l 2,9,10
 1409 -376 1409 -376 1369.5 -474.5 c 128,-1,11
 1330 -573 1330 -573 1265.5 -639 c 128,-1,12
 1201 -705 1201 -705 1118.5 -738.5 c 128,-1,13
 1036 -772 1036 -772 950 -772 c 0,14,15
 865 -772 865 -772 784 -739.5 c 128,-1,16
 703 -707 703 -707 640 -641 c 128,-1,17
 577 -575 577 -575 538.5 -476 c 128,-1,18
 500 -377 500 -377 500 -245 c 2,19,-1
 500 -125 l 1,20,-1
 900 -125 l 1,21,-1
 900 -383 l 1,22,-1
 1010 -383 l 1,23,-1
 1010 -144 l 1,0,-1
EndSplineSet
Validated: 1
EndChar

StartChar: eng
Encoding: 331 331 335
Width: 1520
Flags: W
HStem: -458.5 252.5<577.627 833> -425 219<577 831.721> 0 21G<80 557> 1060 284<716.074 833> 1280 20G<80 496.509>
VStem: 80 477<0 1060> 833 477<-204.851 1058.24>
LayerCount: 2
Fore
SplineSet
80 0 m 1,0,-1
 80 1300 l 1,1,-1
 491 1300 l 1,2,-1
 537 1133 l 1,3,4
 566 1190 566 1190 611.5 1230.5 c 128,-1,5
 657 1271 657 1271 709.5 1296 c 128,-1,6
 762 1321 762 1321 817.5 1332.5 c 128,-1,7
 873 1344 873 1344 921 1344 c 0,8,9
 1025 1344 1025 1344 1099 1311 c 128,-1,10
 1173 1278 1173 1278 1220 1221.5 c 128,-1,11
 1267 1165 1267 1165 1288.5 1091 c 128,-1,12
 1310 1017 1310 1017 1310 935 c 2,13,-1
 1310 -46 l 2,14,15
 1310 -86 1310 -86 1307.5 -132.5 c 128,-1,16
 1305 -179 1305 -179 1293.5 -225 c 128,-1,17
 1282 -271 1282 -271 1257 -314 c 128,-1,18
 1232 -357 1232 -357 1187 -390 c 128,-1,19
 1142 -423 1142 -423 1072.5 -442.5 c 128,-1,20
 1003 -462 1003 -462 903 -462 c 0,21,22
 835 -462 835 -462 783.5 -458.5 c 128,-1,23
 732 -455 732 -455 692.5 -449.5 c 128,-1,24
 653 -444 653 -444 625 -437.5 c 128,-1,25
 597 -431 597 -431 577 -425 c 1,26,-1
 577 -206 l 1,27,-1
 833 -206 l 1,28,-1
 833 1060 l 1,29,-1
 557 1060 l 1,30,-1
 557 0 l 1,31,-1
 80 0 l 1,0,-1
EndSplineSet
Validated: 1
EndChar

StartChar: Euro
Encoding: 65537 -1 347
Width: 1690
Flags: W
HStem: -39 276<640.469 871.111> 441 255<51 759> 868 255<51 759> 1358 274<637.634 872.982>
VStem: 51 708<441 696 868 1123> 120 517<237.695 1357.88> 873 497<237.695 686 909 1357.88>
LayerCount: 2
Fore
SplineSet
759 696 m 1,0,-1
 759 441 l 1,1,-1
 51 441 l 1,2,-1
 51 696 l 1,3,-1
 759 696 l 1,0,-1
759 1123 m 1,4,-1
 759 868 l 1,5,-1
 51 868 l 1,6,-1
 51 1123 l 1,7,-1
 759 1123 l 1,4,-1
873 1358 m 1,8,-1
 637 1358 l 1,9,-1
 637 237 l 1,10,-1
 873 237 l 1,11,-1
 873 686 l 1,12,-1
 1370 686 l 1,13,-1
 1370 371 l 2,14,15
 1370 331 1370 331 1365.5 285 c 128,-1,16
 1361 239 1361 239 1341.5 193.5 c 128,-1,17
 1322 148 1322 148 1283 106 c 128,-1,18
 1244 64 1244 64 1175.5 32 c 128,-1,19
 1107 0 1107 0 1004.5 -19.5 c 128,-1,20
 902 -39 902 -39 755 -39 c 0,21,22
 605 -39 605 -39 499.5 -19.5 c 128,-1,23
 394 0 394 0 323.5 32 c 128,-1,24
 253 64 253 64 212.5 106 c 128,-1,25
 172 148 172 148 151.5 193.5 c 128,-1,26
 131 239 131 239 125.5 285 c 128,-1,27
 120 331 120 331 120 371 c 2,28,-1
 120 1227 l 2,29,30
 120 1267 120 1267 125.5 1312.5 c 128,-1,31
 131 1358 131 1358 151 1403 c 128,-1,32
 171 1448 171 1448 211.5 1489.5 c 128,-1,33
 252 1531 252 1531 322.5 1562.5 c 128,-1,34
 393 1594 393 1594 497.5 1613 c 128,-1,35
 602 1632 602 1632 752 1632 c 0,36,37
 900 1632 900 1632 1003.5 1613 c 128,-1,38
 1107 1594 1107 1594 1175.5 1562.5 c 128,-1,39
 1244 1531 1244 1531 1283 1489.5 c 128,-1,40
 1322 1448 1322 1448 1341.5 1403 c 128,-1,41
 1361 1358 1361 1358 1365.5 1312.5 c 128,-1,42
 1370 1267 1370 1267 1370 1227 c 2,43,-1
 1370 909 l 1,44,-1
 873 909 l 1,45,-1
 873 1358 l 1,8,-1
EndSplineSet
Validated: 5
EndChar

StartChar: afii00208
Encoding: 8213 8213 348
Width: 1911
Flags: W
HStem: 461 436<59 1583>
LayerCount: 2
Fore
SplineSet
1583 897 m 1,0,-1
 1583 461 l 1,1,-1
 59 461 l 1,2,-1
 59 897 l 1,3,-1
 1583 897 l 1,0,-1
EndSplineSet
Validated: 1
EndChar

StartChar: dotlessj
Encoding: 567 567 377
Width: 662
Flags: W
HStem: -332 266<-111.541 79> -285 219<-118 78.875>
VStem: 79 497<-63.5547 1300>
LayerCount: 2
Fore
SplineSet
79 1300 m 1,0,-1
 576 1300 l 1,1,-1
 576 94 l 2,2,3
 576 -5 576 -5 544.5 -83.5 c 128,-1,4
 513 -162 513 -162 455.5 -217.5 c 128,-1,5
 398 -273 398 -273 317.5 -302.5 c 128,-1,6
 237 -332 237 -332 140 -332 c 0,7,8
 80 -332 80 -332 15.5 -320.5 c 128,-1,9
 -49 -309 -49 -309 -118 -285 c 1,10,-1
 -118 -66 l 1,11,-1
 79 -66 l 1,12,-1
 79 1300 l 1,0,-1
EndSplineSet
Validated: 1
EndChar

StartChar: dblgrave
Encoding: 63190 63190 391
Width: 2570
Flags: W
LayerCount: 2
Fore
SplineSet
1553 1015 m 1,0,-1
 1553 30 l 1,1,-1
 1370 30 l 1,2,-1
 1100 957 l 1,3,-1
 1553 1015 l 1,0,-1
1038 1011 m 1,4,-1
 1038 30 l 1,5,-1
 855 30 l 1,6,-1
 585 953 l 1,7,-1
 1038 1011 l 1,4,-1
EndSplineSet
Validated: 1
EndChar

StartChar: invertedbreve
Encoding: 65540 -1 403
Width: 1288
Flags: W
HStem: 328 403<453.369 674.865>
VStem: 150 269<70 293.078> 708 269<70 297.627>
LayerCount: 2
Fore
SplineSet
568 731 m 0,0,1
 672 731 672 731 749 697.5 c 128,-1,2
 826 664 826 664 876.5 586.5 c 128,-1,3
 927 509 927 509 952 382.5 c 128,-1,4
 977 256 977 256 977 70 c 1,5,-1
 708 70 l 1,6,7
 708 129 708 129 705.5 177 c 128,-1,8
 703 225 703 225 689.5 258.5 c 128,-1,9
 676 292 676 292 647.5 310 c 128,-1,10
 619 328 619 328 568 328 c 0,11,12
 514 328 514 328 483.5 310 c 128,-1,13
 453 292 453 292 439 258.5 c 128,-1,14
 425 225 425 225 422 177.5 c 128,-1,15
 419 130 419 130 419 70 c 1,16,-1
 150 70 l 1,17,18
 150 256 150 256 175 382.5 c 128,-1,19
 200 509 200 509 251.5 586.5 c 128,-1,20
 303 664 303 664 382 697.5 c 128,-1,21
 461 731 461 731 568 731 c 0,0,1
EndSplineSet
Validated: 1
EndChar

